<?xml version="1.0" standalone="no"?> <!DOCTYPE svg PUBLIC "-//W3C//DTD SVG 1.0//EN" "http://www.w3.org/TR/2001/REC-SVG-20010904/DTD/svg10.dtd" > <svg xmlns="http://www.w3.org/2000/svg" width="100%" height="100%">
<defs >
<font id="dinroundprolightwebfont" horiz-adv-x="1154" ><font-face
    font-family="DINRoundPro-Light"
    units-per-em="2048"
    panose-1="2 11 5 4 2 1 1 1 1 2"
    ascent="2132"
    descent="-485"
    alphabetic="0" />
<missing-glyph horiz-adv-x="1161" d="M897 0H264Q229 0 214 15Q199 31 199 66V1393Q199 1427 214 1443Q229 1458 264 1458H897Q932 1458 947 1443Q963 1427 963 1393V66Q963 31 947 15Q932 0 897 0ZM852 98V1360H309V98H852Z" />
<glyph unicode=" " glyph-name="space" horiz-adv-x="522" />
<glyph unicode="!" glyph-name="exclam" horiz-adv-x="622" d="M287 462V1390Q287 1427 299 1446Q313 1466 342 1466T385 1446Q397 1427 397 1390V462Q397 425 385 406Q372 385 342 385T299 406Q287 425 287 462ZM376 -6T342 -6T284 18T260 76T284 134T342 158T400
134T424 76T400 18Z" />
<glyph unicode="&quot;" glyph-name="quotedbl" horiz-adv-x="760" d="M168 1176V1399Q168 1434 179 1450Q192 1470 221 1470T263 1450Q274 1434 274 1399V1176Q274 1142 263 1124Q250 1104 221 1104T179 1124Q168 1142 168 1176ZM486 1176V1399Q486 1434 498
1450Q511 1470 540 1470Q567 1470 582 1450Q593 1434 593 1399V1176Q593 1142 582 1124Q567 1104 540 1104Q511 1104 498 1124Q486 1141 486 1176Z" />
<glyph unicode="#" glyph-name="numbersign" horiz-adv-x="1308" d="M1119 535Q1119 512 1101 498Q1087 487 1054 487H878L791 52Q783 17 768 4Q754 -8 734 -8Q715 -8 699 6Q679 27 688 73L771 487H440L353 52Q346 18 331 4Q318 -8 297 -8T262 6Q242 27 251 73L334
487H196Q163 487 148 498Q130 512 130 535Q130 558 148 571Q163 582 196 582H352L416 895H256Q223 895 209 905Q190 919 190 942T209 979Q223 989 256 989H434L517 1406Q524 1440 540 1454Q554 1466 573 1466Q594 1466 608 1452Q629 1432 620 1385L541 989H871L954
1406Q960 1439 977 1454Q990 1466 1011 1466Q1030 1466 1046 1452Q1066 1432 1057 1385L978 989H1114Q1147 989 1161 979Q1180 966 1180 942T1161 905Q1147 895 1114 895H959L896 582H1054Q1087 582 1101 571Q1119 558 1119 535ZM790 582L853 895H522L459 582H790Z"
/>
<glyph unicode="$" glyph-name="dollar" horiz-adv-x="1202" d="M542 -176V-11Q427 -6 336 26T158 130Q119 160 119 189Q119 213 134 228Q149 244 171 244Q190 244 229 213Q307 149 378 121T542 87V691L510 696Q421 711 363 734T250 804Q135 900 135 1071Q135
1243 244 1349T542 1468V1593Q542 1626 552 1640Q565 1659 589 1659Q611 1659 626 1640Q636 1626 636 1593V1469Q731 1465 803 1439T954 1357Q995 1327 995 1299Q995 1280 984 1268Q970 1250 946 1250Q926 1250 888 1278Q819 1326 764 1347T636 1373V779L694 770Q796
754 853 733T956 674Q1081 571 1081 391Q1081 216 962 108T636 -11V-176Q636 -209 626 -223Q611 -242 589 -242Q565 -242 552 -223Q542 -209 542 -176ZM680 670L636 677V87Q792 96 881 175T971 387Q971 523 891 592Q852 626 812 640T680 670ZM319 883Q365 846 411
827T536 795L542 794V1373Q402 1363 323 1284T244 1075Q244 946 319 883Z" />
<glyph unicode="%" glyph-name="percent" horiz-adv-x="1695" d="M472 67L1153 1428Q1165 1455 1180 1462Q1187 1466 1196 1466T1215 1461Q1234 1451 1237 1434Q1240 1416 1227 1392L546 30Q534 4 519 -4Q512 -8 503 -8Q493 -8 483 -3Q465 7 462 25Q459 41 472
67ZM590 981V1192Q590 1393 412 1393Q231 1393 231 1192V981Q231 782 412 782Q590 782 590 981ZM680 1196V977Q680 854 606 780T412 705Q291 705 216 780T141 977V1196Q141 1319 216 1394T412 1470T606 1395T680 1196ZM1464 264V475Q1464 676 1286 676Q1106 676
1106 475V264Q1106 66 1286 66Q1464 66 1464 264ZM1554 479V260Q1554 137 1480 63T1286 -12T1091 63T1016 260V479Q1016 602 1091 678T1286 754T1480 678T1554 479Z" />
<glyph unicode="&amp;" glyph-name="ampersand" horiz-adv-x="1488" d="M1188 33L1073 172Q1046 145 1012 119T920 61T786 8T625 -12Q423 -12 298 103T172 403Q172 450 182 492T205 568T246 637T297 696T361 752T429 803T506 856Q468 902 447 930T398 1002T357
1091T344 1180Q344 1302 430 1386T641 1470Q764 1470 851 1385T938 1178Q938 1094 894 1032T770 915L662 842L1079 336Q1122 400 1139 464T1163 635Q1166 680 1178 697Q1190 717 1219 717Q1245 717 1260 697Q1272 681 1272 640Q1272 539 1241 436Q1211 332 1147
254L1274 102Q1303 67 1303 43Q1303 20 1282 4Q1267 -8 1249 -8Q1221 -8 1188 33ZM598 915L633 938Q735 1004 782 1055T829 1178Q829 1262 776 1317T641 1372Q561 1372 508 1319T455 1184Q455 1127 484 1071T598 915ZM1012 248L569 782Q521 750 494 731T428 681T368
624T324 564T293 492T283 410Q283 266 377 176T623 86Q721 86 815 121T1012 248Z" />
<glyph unicode="&apos;" glyph-name="quotesingle" horiz-adv-x="442" d="M168 1176V1399Q168 1434 179 1450Q192 1470 221 1470T263 1450Q274 1434 274 1399V1176Q274 1142 263 1124Q250 1104 221 1104T179 1124Q168 1142 168 1176Z" />
<glyph unicode="(" glyph-name="parenleft" horiz-adv-x="581" d="M205 162V1296Q205 1411 244 1487Q275 1549 336 1610Q366 1640 389 1640Q410 1640 424 1626T438 1591T408 1538Q360 1490 340 1446Q311 1387 311 1284V174Q311 71 340 12Q361 -33 408 -80Q438
-110 438 -133Q438 -154 424 -168T389 -182Q366 -182 336 -152Q275 -91 244 -29Q205 47 205 162Z" />
<glyph unicode=")" glyph-name="parenright" horiz-adv-x="581" d="M377 1296V162Q377 47 338 -29Q304 -94 246 -152Q214 -182 193 -182T158 -168Q143 -154 143 -133Q143 -111 174 -80Q218 -36 242 12Q270 72 270 174V1284Q270 1386 242 1446Q219 1493 174 1538Q143
1571 143 1591Q143 1612 158 1626Q172 1640 193 1640T246 1610Q304 1552 338 1487Q377 1411 377 1296Z" />
<glyph unicode="*" glyph-name="asterisk" horiz-adv-x="974" d="M203 992L406 1114L203 1236Q177 1251 172 1266Q165 1285 175 1302Q185 1318 205 1321Q220 1322 246 1308L446 1187V1421Q446 1450 456 1463Q467 1479 487 1479Q508 1479 519 1463Q528 1451 528
1421V1187L729 1308Q754 1322 770 1321Q790 1318 800 1302Q810 1285 803 1266Q798 1252 772 1236L568 1114L772 992Q798 976 803 963Q810 943 800 927Q790 910 770 907Q753 905 729 921L528 1040V807Q528 777 519 765Q508 750 487 750Q467 750 456 765Q446 778
446 807V1040L246 921Q221 906 205 907Q185 910 175 927Q165 943 172 963Q178 977 203 992Z" />
<glyph unicode="+" glyph-name="plus" horiz-adv-x="1052" d="M887 493H573V179Q573 146 563 132Q550 114 526 114Q504 114 489 132Q479 146 479 179V493H166Q133 493 119 503Q100 516 100 540Q100 562 119 577Q133 587 166 587H479V900Q479 933 489 947Q505 966
526 966Q549 966 563 947Q573 933 573 900V587H887Q920 587 934 577Q952 562 952 540Q952 516 934 503Q920 493 887 493Z" />
<glyph unicode="," glyph-name="comma" horiz-adv-x="459" d="M284 94L194 -176Q182 -209 169 -220Q156 -230 137 -230Q119 -230 105 -220T86 -195Q81 -176 92 -142L182 128Q192 160 207 172Q220 182 239 182Q257 182 271 172T290 146Q295 128 284 94Z" />
<glyph unicode="-" glyph-name="hyphen" horiz-adv-x="872" d="M647 493H225Q192 493 178 503Q160 516 160 540Q160 562 178 577Q192 587 225 587H647Q680 587 694 577Q713 562 713 540Q713 516 694 503Q680 493 647 493Z" />
<glyph unicode="." glyph-name="period" horiz-adv-x="540" d="M270 -6Q231 -6 204 21T176 88T203 154T270 182Q310 182 337 155T365 88T338 22T270 -6Z" />
<glyph unicode="/" glyph-name="slash" horiz-adv-x="692" d="M24 -74L570 1565Q589 1618 626 1618Q662 1618 674 1585Q681 1567 669 1532L122 -106Q105 -160 67 -160Q32 -160 18 -127Q11 -108 24 -74Z" />
<glyph unicode="0" glyph-name="zero" horiz-adv-x="1052" d="M909 1081V377Q909 206 802 97T526 -12Q358 -12 251 97T143 377V1081Q143 1252 250 1361T526 1470T802 1361T909 1081ZM803 376V1082Q803 1211 730 1293T526 1376T323 1294T250 1082V376Q250 247 322
165T526 82T730 164T803 376Z" />
<glyph unicode="1" glyph-name="one" horiz-adv-x="1052" d="M537 63V1313L351 1127Q326 1102 308 1099Q284 1096 266 1113Q250 1129 253 1154Q256 1172 282 1197L520 1436Q551 1466 583 1466Q607 1466 626 1449Q643 1432 643 1384V63Q643 30 632 12Q619 -8 590
-8T548 12Q537 30 537 63Z" />
<glyph unicode="2" glyph-name="two" horiz-adv-x="1052" d="M862 0H229Q203 0 192 0T168 4T147 16Q135 31 135 49Q135 71 171 119L720 843Q814 969 814 1108Q814 1230 742 1303T539 1376Q474 1376 420 1356T321 1286T262 1160Q253 1111 242 1096Q227 1075 201
1075Q174 1075 162 1094Q152 1109 152 1132Q152 1178 178 1245T256 1364Q362 1470 539 1470Q714 1470 817 1373T921 1108Q921 1018 893 945T805 793L274 94H862Q895 94 909 84Q928 71 928 47T909 10Q895 0 862 0Z" />
<glyph unicode="3" glyph-name="three" horiz-adv-x="1052" d="M680 754Q793 721 855 630T918 391Q918 213 795 101T495 -12Q384 -12 312 15T184 97Q93 190 93 311Q93 351 110 368Q124 382 145 382T178 370Q194 352 199 316Q230 82 495 82Q629 82 720 167T811
391Q811 540 734 620T504 700Q471 700 457 711Q438 724 438 748Q438 771 457 784Q471 795 504 795Q644 795 714 873T784 1089Q784 1222 706 1299T502 1376Q271 1376 229 1165Q221 1122 206 1107Q193 1094 171 1094Q148 1094 134 1111Q122 1126 122 1154Q122 1208
150 1267T221 1369Q322 1470 502 1470Q673 1470 782 1367T891 1089Q891 842 680 754Z" />
<glyph unicode="4" glyph-name="four" horiz-adv-x="1052" d="M71 285Q71 301 83 326L630 1419Q645 1451 662 1460Q672 1466 686 1466Q704 1466 718 1453T732 1420Q732 1404 718 1375L196 332H666V731Q666 766 677 782Q690 803 719 803T761 782Q772 766 772 731V332H907Q940
332 954 322Q973 307 973 285Q973 261 954 248Q940 238 907 238H772V63Q772 30 761 12Q748 -8 719 -8T677 12Q666 30 666 63V238H134Q105 238 92 246Q71 259 71 285Z" />
<glyph unicode="5" glyph-name="five" horiz-adv-x="1052" d="M834 1364H283V854Q336 911 400 936T559 962Q718 962 805 873Q926 752 926 479Q926 351 904 257T811 92Q705 -12 530 -12Q347 -12 248 88Q206 130 179 189T151 304Q151 332 163 347Q178 365 201 365Q220
365 236 351Q251 336 259 293Q301 82 530 82Q658 82 731 155Q762 186 781 224T807 311T817 392T819 479Q819 540 814 589T792 692T747 782T667 843T547 867Q460 867 399 840T295 745Q283 727 270 716Q259 706 238 706Q216 706 203 719Q188 733 188 767V1395Q188
1430 203 1444Q217 1458 252 1458H834Q865 1458 881 1448Q899 1434 899 1411T881 1374Q865 1364 834 1364Z" />
<glyph unicode="6" glyph-name="six" horiz-adv-x="1052" d="M226 702L584 1419Q599 1451 615 1460Q627 1466 640 1466Q658 1466 672 1453T686 1420Q686 1404 672 1375L379 788Q450 819 541 819Q717 819 818 704T920 412Q920 230 816 109T532 -12Q351 -12 247
101T143 397Q143 533 226 702ZM401 82T530 82T736 169T813 403Q813 541 739 633T530 725Q401 725 326 638T250 403Q250 257 325 170Z" />
<glyph unicode="7" glyph-name="seven" horiz-adv-x="1052" d="M933 1348L444 44Q432 9 417 -1Q406 -8 393 -8Q375 -8 361 1T343 27Q339 44 351 79L833 1364H281V1200Q281 1165 269 1149Q255 1128 227 1128Q201 1128 185 1149Q174 1166 174 1200V1395Q174 1430
188 1444Q203 1458 238 1458H866Q919 1458 935 1443Q949 1429 949 1408Q949 1391 933 1348Z" />
<glyph unicode="8" glyph-name="eight" horiz-adv-x="1052" d="M713 759Q822 701 883 609T944 395Q944 222 824 105T526 -12T229 105T109 395Q109 517 171 609T342 759Q139 868 139 1089Q139 1253 247 1361T526 1470Q697 1470 805 1362T913 1089Q913 866 713 759ZM526
801Q648 801 727 881T807 1089Q807 1213 729 1294T526 1376T324 1295T246 1089T324 883T526 801ZM838 395Q838 530 748 619T526 709T305 620T215 395T304 171T526 82Q659 82 748 171T838 395Z" />
<glyph unicode="9" glyph-name="nine" horiz-adv-x="1052" d="M826 756L469 39Q454 7 437 -2Q426 -8 413 -8Q395 -8 381 5T367 38Q367 54 381 83L674 670Q603 639 512 639Q336 639 235 754T133 1047Q133 1229 236 1349T520 1470Q702 1470 805 1357T909 1061Q909
923 826 756ZM651 1376T522 1376T317 1289T240 1055Q240 917 314 825T522 733Q651 733 727 820T803 1055Q803 1201 727 1288Z" />
<glyph unicode=":" glyph-name="colon" horiz-adv-x="598" d="M328 -6Q288 -6 261 21T233 88T260 154T328 182Q367 182 394 155T422 88T395 22T328 -6ZM328 608Q288 608 261 635T233 702Q233 742 260 769T328 797Q367 797 394 770T422 702Q422 663 395 636T328 608Z" />
<glyph unicode=";" glyph-name="semicolon" horiz-adv-x="598" d="M406 94L315 -176Q304 -209 291 -220Q278 -230 259 -230Q241 -230 227 -220T208 -195Q203 -176 214 -142L304 128Q315 161 329 172Q342 182 360 182Q379 182 393 172T412 146Q417 128 406 94ZM358
608Q319 608 292 635T264 702Q264 742 291 769T358 797Q398 797 425 770T453 702Q453 663 426 636T358 608Z" />
<glyph unicode="&lt;" glyph-name="less" horiz-adv-x="1052" d="M198 508T198 540T218 590T286 632L757 869Q784 884 802 884Q821 884 834 870T848 838Q848 824 842 813Q834 799 801 781L321 540L801 298Q834 282 842 266Q848 256 848 242Q848 224 835 210T802
196Q785 196 757 210L286 447Q239 470 219 489Z" />
<glyph unicode="=" glyph-name="equal" horiz-adv-x="1052" d="M887 649H166Q133 649 119 659Q100 674 100 696Q100 720 119 733Q133 743 166 743H887Q920 743 934 733Q952 720 952 696Q952 674 934 659Q920 649 887 649ZM887 334H166Q133 334 119 344Q100 357
100 381T119 418Q133 428 166 428H887Q920 428 934 418Q952 405 952 381Q952 358 934 344Q920 334 887 334Z" />
<glyph unicode="&gt;" glyph-name="greater" horiz-adv-x="1052" d="M855 557T855 540T849 510T829 486T803 467T767 447L296 210Q267 196 251 196Q231 196 218 210T205 242Q205 256 211 266Q220 283 252 298L732 540L252 781Q220 798 211 813Q205 823 205 838Q205
856 218 870T251 884Q267 884 296 869L767 632Q792 620 803 613T829 595T849 570Z" />
<glyph unicode="?" glyph-name="question" horiz-adv-x="999" d="M579 -6T545 -6T487 18T463 76T487 134T545 158T603 134T627 76T603 18ZM899 1110Q899 1045 877 989T809 866L637 612Q598 556 598 455Q598 421 587 403Q574 383 545 383T503 403Q492 421 492 455Q492
529 502 570T551 668L723 922Q759 976 776 1016T793 1110Q793 1224 718 1301T530 1378Q416 1378 346 1309Q285 1250 269 1145Q265 1111 256 1096Q243 1075 211 1075Q186 1075 174 1094Q164 1109 164 1133Q164 1193 191 1257T263 1366Q365 1470 530 1470Q687 1470
793 1367T899 1110Z" />
<glyph unicode="@" glyph-name="at" horiz-adv-x="1427" d="M1272 1038V63Q1272 30 1261 12Q1246 -8 1219 -8Q1190 -8 1177 12Q1165 29 1165 63V127Q1105 47 1035 18T872 -12Q797 -12 734 11T631 74Q502 202 502 494Q502 785 631 913Q670 953 733 976T872 999Q965
999 1035 970T1165 860V1034Q1165 1125 1147 1177T1081 1278Q995 1364 850 1364H578Q433 1364 346 1278Q299 1230 281 1177T262 1034V322Q262 226 278 187T344 98Q377 65 377 45Q377 21 361 6Q346 -9 323 -9T268 23Q208 83 182 145T156 322V1038Q156 1231 268 1348Q376
1458 557 1458H870Q1052 1458 1159 1348Q1272 1232 1272 1038ZM817 80T887 80T1008 104T1089 166T1136 260T1159 371T1165 494Q1165 550 1161 596T1147 691T1116 777T1067 844T991 891T887 907Q817 907 766 883T684 822T637 727T614 616T608 494Q608 425 613 371T636
261T684 166T765 104Z" />
<glyph unicode="A" glyph-name="A" horiz-adv-x="1232" d="M62 87L552 1398Q565 1432 573 1444Q590 1466 616 1466Q644 1466 659 1444Q668 1433 681 1398L1170 87Q1192 34 1166 8Q1150 -8 1124 -8Q1111 -8 1098 0Q1081 11 1067 48L951 354H282L166 48Q152 12 135
0Q122 -8 109 -8Q83 -8 67 8Q42 33 62 87ZM916 453L616 1279L316 453H916Z" />
<glyph unicode="B" glyph-name="B" horiz-adv-x="1374" d="M778 0H291Q256 0 241 15Q225 31 225 66V1392Q225 1427 241 1443Q256 1458 292 1458H762Q948 1458 1066 1356T1184 1077Q1184 963 1123 874T956 750Q1074 710 1140 617T1206 397Q1206 206 1091 103T778
0ZM336 795H750Q892 795 982 865T1073 1077Q1073 1220 983 1290T750 1360H336V795ZM336 98H766Q916 98 1006 178T1096 397Q1096 536 1007 616T766 696H336V98Z" />
<glyph unicode="C" glyph-name="C" horiz-adv-x="1318" d="M168 610T168 729T170 916T180 1053T204 1164T246 1248T313 1331Q452 1470 668 1470Q921 1470 1068 1280Q1104 1233 1127 1175T1151 1082Q1151 1057 1137 1042Q1122 1028 1101 1028Q1079 1028 1065 1042Q1051
1057 1038 1095Q998 1225 901 1298T668 1372Q504 1372 391 1260Q317 1186 298 1082T279 729T298 377T391 199Q504 86 668 86Q804 86 901 160T1038 364Q1052 401 1065 416Q1079 430 1101 430Q1122 430 1137 416Q1151 402 1151 376Q1151 342 1128 284T1068 178Q921
-12 668 -12Q452 -12 313 127Q272 168 246 209T204 293T181 405T171 542Z" />
<glyph unicode="D" glyph-name="D" horiz-adv-x="1388" d="M715 0H291Q256 0 241 15Q225 31 225 66V1393Q225 1427 241 1443Q256 1458 291 1458H715Q946 1458 1079 1325Q1113 1291 1138 1249T1178 1155T1202 1058T1215 948T1220 841T1221 729T1220 618T1216 511T1203
400T1178 303T1138 209T1079 133Q946 0 715 0ZM336 98H688Q894 98 1001 211Q1032 244 1054 293T1086 385T1102 499T1109 610T1110 729T1109 848T1103 959T1087 1073T1054 1165T1001 1247Q894 1360 688 1360H336V98Z" />
<glyph unicode="E" glyph-name="E" horiz-adv-x="1224" d="M1048 0H291Q256 0 241 15Q225 31 225 66V1393Q225 1427 241 1443Q256 1458 291 1458H1048Q1085 1458 1099 1448Q1118 1433 1118 1409T1099 1370Q1085 1360 1048 1360H336V784H933Q970 784 984 774Q1004
759 1004 735Q1004 713 984 696Q970 686 933 686H336V98H1048Q1085 98 1099 88Q1118 73 1118 49T1099 10Q1085 0 1048 0Z" />
<glyph unicode="F" glyph-name="F" horiz-adv-x="1179" d="M225 69V1393Q225 1427 241 1443Q256 1458 291 1458H1048Q1085 1458 1099 1448Q1118 1433 1118 1409T1099 1370Q1085 1360 1048 1360H336V760H933Q970 760 984 750Q1004 733 1004 711Q1004 687 984 672Q970
662 933 662H336V69Q336 32 324 12Q309 -8 281 -8Q252 -8 238 12Q225 32 225 69Z" />
<glyph unicode="G" glyph-name="G" horiz-adv-x="1337" d="M168 610T168 729T170 916T180 1053T204 1164T246 1248T313 1331Q452 1470 668 1470Q921 1470 1068 1280Q1104 1233 1127 1175T1151 1082Q1151 1057 1137 1042Q1122 1028 1101 1028Q1079 1028 1065 1042Q1051
1057 1038 1095Q998 1225 901 1298T668 1372Q504 1372 391 1260Q317 1186 298 1082T279 729T298 377T391 199Q504 86 668 86Q831 86 944 199Q1012 267 1034 361T1057 647H730Q693 647 679 657Q659 674 659 696Q659 720 679 735Q693 745 730 745H1104Q1139 745 1153
731T1167 682V647Q1165 420 1139 319T1022 127Q883 -12 668 -12Q452 -12 313 127Q272 168 246 209T204 293T181 405T171 542Z" />
<glyph unicode="H" glyph-name="H" horiz-adv-x="1431" d="M1206 69Q1206 32 1194 12Q1180 -8 1151 -8T1108 12Q1096 32 1096 69V686H336V69Q336 32 324 12Q309 -8 281 -8Q252 -8 238 12Q225 32 225 69V1390Q225 1428 238 1446Q252 1466 281 1466Q309 1466 324
1446Q336 1427 336 1390V784H1096V1390Q1096 1427 1108 1446Q1122 1466 1151 1466T1194 1446Q1206 1427 1206 1390V69Z" />
<glyph unicode="I" glyph-name="I" horiz-adv-x="561" d="M225 69V1390Q225 1428 238 1446Q252 1466 281 1466Q309 1466 324 1446Q336 1427 336 1390V69Q336 32 324 12Q309 -8 281 -8Q252 -8 238 12Q225 32 225 69Z" />
<glyph unicode="J" glyph-name="J" horiz-adv-x="1001" d="M686 453V1390Q686 1427 698 1446Q713 1466 741 1466Q770 1466 784 1446Q797 1428 797 1390V430Q797 230 679 109T362 -12Q206 -12 86 74Q53 97 53 126Q53 148 66 162Q81 180 103 180Q122 180 164 150Q248
86 362 86Q520 86 603 180T686 453Z" />
<glyph unicode="K" glyph-name="K" horiz-adv-x="1335" d="M1129 39L683 825L336 407V69Q336 32 324 12Q309 -8 281 -8Q252 -8 238 12Q225 32 225 69V1390Q225 1428 238 1446Q252 1466 281 1466Q309 1466 324 1446Q336 1427 336 1390V560L1053 1433Q1079 1466
1105 1466Q1124 1466 1140 1453Q1161 1436 1159 1411Q1158 1392 1135 1364L762 910L1226 94Q1243 64 1243 44Q1243 14 1217 0Q1201 -8 1189 -8Q1174 -8 1162 0T1144 16T1129 39Z" />
<glyph unicode="L" glyph-name="L" horiz-adv-x="1171" d="M1048 0H291Q256 0 241 15Q225 31 225 66V1390Q225 1428 238 1446Q252 1466 281 1466Q309 1466 324 1446Q336 1427 336 1390V98H1048Q1085 98 1099 88Q1118 73 1118 49T1099 10Q1085 0 1048 0Z" />
<glyph unicode="M" glyph-name="M" horiz-adv-x="1675" d="M225 69V1391Q225 1432 245 1450Q261 1466 285 1466Q306 1466 322 1456Q337 1447 354 1409L838 334L1321 1409Q1338 1447 1354 1456Q1369 1466 1391 1466T1431 1450Q1450 1431 1450 1391V69Q1450 32 1438
12Q1423 -8 1395 -8Q1366 -8 1352 12Q1339 32 1339 69V1192L918 266Q901 231 884 215T838 199Q808 199 791 215T758 266L336 1192V69Q336 32 324 12Q309 -8 281 -8Q252 -8 238 12Q225 32 225 69Z" />
<glyph unicode="N" glyph-name="N" horiz-adv-x="1513" d="M1288 69Q1288 30 1269 9Q1250 -8 1226 -8Q1191 -8 1164 31L336 1255V69Q336 32 324 12Q309 -8 281 -8Q252 -8 238 12Q225 32 225 69V1390Q225 1431 245 1449Q262 1466 288 1466Q324 1466 349 1427L1178
203V1390Q1178 1427 1190 1446Q1204 1466 1233 1466T1276 1446Q1288 1427 1288 1390V69Z" />
<glyph unicode="O" glyph-name="O" horiz-adv-x="1335" d="M1022 127Q883 -12 668 -12Q452 -12 313 127Q272 168 246 209T204 293T181 405T171 542T168 729T170 916T180 1053T204 1164T246 1248T313 1331Q452 1470 668 1470Q883 1470 1022 1331Q1063 1290 1089
1249T1131 1165T1154 1053T1164 916T1167 729T1165 542T1155 405T1131 294T1089 210T1022 127ZM944 199Q1018 273 1037 376T1057 729T1038 1082T944 1260Q831 1372 668 1372Q504 1372 391 1260Q317 1186 298 1082T279 729T298 377T391 199Q504 86 668 86Q831 86
944 199Z" />
<glyph unicode="P" glyph-name="P" horiz-adv-x="1292" d="M225 69V1393Q225 1427 241 1443Q256 1458 291 1458H760Q954 1458 1077 1346T1200 1038Q1200 843 1077 731T760 618H336V69Q336 32 324 12Q309 -8 281 -8Q252 -8 238 12Q225 32 225 69ZM336 717H748Q904
717 997 798T1090 1038T997 1278T748 1360H336V717Z" />
<glyph unicode="Q" glyph-name="Q" horiz-adv-x="1335" d="M313 127Q272 168 246 209T204 293T181 405T171 542T168 729T170 916T180 1053T204 1164T246 1248T313 1331Q452 1470 668 1470Q883 1470 1022 1331Q1063 1290 1089 1249T1131 1165T1154 1053T1164 916T1167
729Q1167 474 1149 365T1063 172L1190 45Q1213 22 1219 1Q1224 -22 1203 -43Q1183 -63 1159 -58Q1140 -54 1115 -30L988 96Q854 -12 668 -12Q452 -12 313 127ZM913 171L754 332Q729 356 725 376Q720 400 740 420Q761 440 784 435Q804 431 828 407L986 249Q1032
316 1044 415T1057 729Q1057 978 1038 1082T944 1260Q831 1372 668 1372Q504 1372 391 1260Q317 1186 298 1082T279 729T298 377T391 199Q504 86 668 86Q810 86 913 171Z" />
<glyph unicode="R" glyph-name="R" horiz-adv-x="1345" d="M1097 39L734 672H336V69Q336 32 324 12Q309 -8 281 -8Q252 -8 238 12Q225 32 225 69V1393Q225 1427 241 1443Q256 1458 291 1458H780Q965 1458 1081 1355T1198 1067Q1198 905 1108 803T862 674L1193
94Q1210 64 1210 44Q1210 14 1184 0Q1170 -8 1156 -8Q1141 -8 1129 0T1111 16T1097 39ZM336 770H766Q913 770 1000 844T1087 1065T1000 1286T766 1360H336V770Z" />
<glyph unicode="S" glyph-name="S" horiz-adv-x="1202" d="M680 670L510 696Q421 711 363 734T250 804Q135 900 135 1071Q135 1254 257 1362T588 1470Q703 1470 785 1445T954 1357Q995 1327 995 1299Q995 1280 984 1268Q970 1250 946 1250Q926 1250 888 1278Q808
1335 745 1355T582 1375Q424 1375 334 1295T244 1075Q244 946 319 883Q365 845 412 826T537 795L694 770Q796 754 853 733T956 674Q1081 571 1081 391Q1081 206 949 97T590 -12Q456 -12 355 19T158 130Q119 160 119 189Q119 213 134 228Q149 244 171 244Q190 244
229 213Q317 141 397 114T596 86Q769 86 870 166T971 387Q971 523 891 592Q852 626 811 640T680 670Z" />
<glyph unicode="T" glyph-name="T" horiz-adv-x="1103" d="M496 69V1360H124Q87 1360 73 1370Q53 1384 53 1409T73 1448Q87 1458 124 1458H980Q1017 1458 1031 1448Q1051 1433 1051 1409T1031 1370Q1017 1360 980 1360H606V69Q606 32 594 12Q580 -8 551 -8T508
12Q496 32 496 69Z" />
<glyph unicode="U" glyph-name="U" horiz-adv-x="1409" d="M1094 487V1390Q1094 1427 1106 1446Q1120 1466 1149 1466T1192 1446Q1204 1427 1204 1390V473Q1204 259 1064 124T705 -12Q485 -12 345 123T205 473V1390Q205 1427 217 1446Q231 1466 260 1466T303 1446Q315
1427 315 1390V487Q315 306 422 196T705 86Q880 86 987 196T1094 487Z" />
<glyph unicode="V" glyph-name="V" horiz-adv-x="1093" d="M484 57L45 1378Q34 1412 39 1431Q44 1446 58 1456T90 1466Q109 1466 122 1456Q135 1445 146 1412L547 189L947 1412Q957 1444 972 1456Q985 1466 1004 1466Q1022 1466 1036 1456T1055 1431Q1060 1412
1049 1378L609 57Q596 20 585 8Q568 -8 547 -8Q525 -8 509 8Q496 21 484 57Z" />
<glyph unicode="W" glyph-name="W" horiz-adv-x="1744" d="M1202 59L872 1274L543 59Q534 28 518 10Q500 -8 473 -8T428 10Q413 27 403 59L74 1380Q65 1415 72 1435Q83 1466 120 1466Q139 1466 153 1455Q167 1442 176 1406L478 188L803 1399Q812 1434 827 1448Q846
1464 872 1464Q899 1464 918 1448Q933 1434 942 1399L1267 188L1569 1406Q1578 1442 1592 1455Q1606 1466 1625 1466Q1662 1466 1673 1435Q1680 1415 1671 1380L1341 59Q1333 28 1317 10Q1299 -8 1272 -8T1227 10Q1211 26 1202 59Z" />
<glyph unicode="X" glyph-name="X" horiz-adv-x="1101" d="M110 94L483 748L131 1364Q114 1394 114 1414Q114 1444 140 1458Q156 1466 168 1466Q183 1466 195 1458T213 1442T227 1419L551 841L879 1425Q890 1446 901 1456T934 1466Q946 1466 962 1458Q988 1444
988 1414Q988 1394 971 1364L617 748L992 94Q1010 65 1010 44Q1010 15 983 0Q969 -8 955 -8Q922 -8 896 39L551 650L206 39Q180 -8 146 -8Q133 -8 119 0Q92 14 92 44Q92 65 110 94Z" />
<glyph unicode="Y" glyph-name="Y" horiz-adv-x="1011" d="M451 69V599L65 1371Q47 1405 50 1423Q53 1448 79 1460Q91 1466 103 1466Q116 1466 125 1461Q142 1450 159 1418L506 724L853 1418Q869 1450 887 1461Q896 1466 908 1466Q921 1466 933 1460Q957 1448
962 1423Q964 1407 947 1371L561 599V69Q561 32 549 12Q535 -8 506 -8T463 12Q451 32 451 69Z" />
<glyph unicode="Z" glyph-name="Z" horiz-adv-x="1114" d="M937 0H166Q131 0 117 14Q102 31 102 49T123 104L872 1360H206Q169 1360 155 1370Q135 1384 135 1409T155 1448Q169 1458 206 1458H944Q979 1458 993 1444Q1008 1429 1008 1409Q1008 1391 987 1354L238
98H937Q974 98 988 88Q1008 73 1008 49T988 10Q974 0 937 0Z" />
<glyph unicode="[" glyph-name="bracketleft" horiz-adv-x="600" d="M444 -152H262Q227 -152 213 -137Q199 -123 199 -88V1546Q199 1581 213 1595Q227 1610 262 1610H444Q477 1610 492 1599Q510 1586 510 1563Q510 1540 492 1526Q476 1516 444 1516H305V-57H444Q477
-57 492 -68Q510 -82 510 -104Q510 -128 492 -141Q475 -152 444 -152Z" />
<glyph unicode="\" glyph-name="backslash" horiz-adv-x="692" d="M568 -106L26 1532Q13 1566 20 1585Q33 1618 69 1618Q106 1618 124 1565L667 -74Q679 -109 672 -127Q660 -160 624 -160Q587 -160 568 -106Z" />
<glyph unicode="]" glyph-name="bracketright" horiz-adv-x="600" d="M338 -152H156Q125 -152 109 -141Q90 -128 90 -104Q90 -81 109 -68Q123 -57 156 -57H295V1516H156Q123 1516 109 1526Q90 1539 90 1563Q90 1586 109 1599Q123 1610 156 1610H338Q373 1610 387
1595Q401 1581 401 1546V-88Q401 -123 387 -137Q373 -152 338 -152Z" />
<glyph unicode="^" glyph-name="asciicircum" horiz-adv-x="1052" d="M871 862Q871 843 857 830T824 816Q812 816 802 822Q785 831 769 863L526 1347L284 863Q266 830 251 822Q241 816 228 816Q210 816 196 829T181 862Q181 880 196 907L434 1378Q450 1410 459
1425T486 1453T526 1466Q558 1466 577 1445T618 1378L857 907Q871 879 871 862Z" />
<glyph unicode="_" glyph-name="underscore" horiz-adv-x="1052" d="M940 -330H113Q83 -330 71 -321Q55 -309 55 -289Q55 -268 71 -257Q83 -248 113 -248H940Q970 -248 982 -257Q997 -268 997 -289Q997 -309 982 -321Q970 -330 940 -330Z" />
<glyph unicode="`" glyph-name="grave" horiz-adv-x="1024" d="M485 1242L375 1419Q356 1448 356 1465Q356 1492 382 1509Q394 1518 410 1518Q425 1518 439 1507Q452 1498 465 1476L575 1298Q594 1270 594 1252Q594 1225 568 1208Q556 1200 541 1200Q524 1200
511 1210Q502 1218 485 1242Z" />
<glyph unicode="a" glyph-name="a" horiz-adv-x="1073" d="M778 63V98Q716 36 649 12T477 -12Q367 -12 300 8T185 78Q113 153 113 272Q113 406 205 481T454 557H778V651Q778 779 715 843T510 907Q424 907 371 884T261 805Q235 778 207 778Q186 778 174 791Q160
805 160 825Q160 870 254 933Q352 999 510 999Q695 999 790 917T885 676V63Q885 29 873 12Q860 -8 831 -8Q803 -8 790 12Q778 29 778 63ZM778 344V470H461Q341 470 280 420T219 272T282 128T477 80Q558 80 616 95T723 156Q778 207 778 344Z" />
<glyph unicode="b" glyph-name="b" horiz-adv-x="1110" d="M199 63V1395Q199 1430 210 1446Q223 1466 252 1466T294 1446Q305 1430 305 1395V860Q365 940 435 969T598 999Q673 999 736 976T840 913Q969 784 969 494Q969 203 840 74Q800 35 737 12T598 -12Q505
-12 435 17T305 127V63Q305 30 294 12Q281 -8 252 -8T210 12Q199 30 199 63ZM514 82T584 82T705 106T786 167T833 261T856 372T862 494Q862 550 858 596T844 691T813 776T764 843T688 889T584 905Q514 905 463 881T381 820T334 727T311 616T305 494Q305 425 310
372T333 262T381 168T462 106Z" />
<glyph unicode="c" glyph-name="c" horiz-adv-x="1006" d="M833 81Q726 -12 574 -12Q371 -12 256 123T141 494T256 864T574 999Q726 999 833 906Q863 880 874 865T885 830T868 797Q855 784 836 784Q826 784 816 789T799 799T771 823Q719 869 675 887T574 905Q405
905 315 776Q278 723 263 659T248 494Q248 393 263 329T315 211Q405 82 574 82Q630 82 674 100T771 164Q788 178 792 182T807 193T823 201T836 203Q855 203 868 190Q885 176 885 157T874 123T833 81Z" />
<glyph unicode="d" glyph-name="d" horiz-adv-x="1110" d="M911 63Q911 30 900 12Q887 -8 858 -8T816 12Q805 30 805 63V127Q745 47 675 18T512 -12Q437 -12 374 11T270 74Q141 203 141 494Q141 784 270 913Q310 953 373 976T512 999Q605 999 675 970T805 860V1395Q805
1430 816 1446Q829 1466 858 1466T900 1446Q911 1430 911 1395V63ZM456 82T526 82T647 106T729 167T776 261T799 371T805 494Q805 562 800 616T777 726T729 820T648 881T526 905Q468 905 422 889T347 843T297 777T267 691T252 596T248 494Q248 426 253 372T276
262T323 168T404 106Z" />
<glyph unicode="e" glyph-name="e" horiz-adv-x="1071" d="M870 471H248Q248 283 330 183T569 82Q708 82 797 160Q836 195 856 195Q874 195 888 180T903 147Q903 100 799 41Q706 -12 563 -12Q358 -12 250 117T141 494Q141 735 247 867T539 999Q722 999 828 874T934
535Q934 500 920 485Q905 471 870 471ZM248 559H829Q824 667 795 740Q764 817 696 861T539 905T383 861T283 740Q253 668 248 559Z" />
<glyph unicode="f" glyph-name="f" horiz-adv-x="622" d="M227 63V901H144Q114 901 100 910Q84 923 84 944Q84 966 100 978Q114 987 144 987H227V1200Q227 1316 289 1387T465 1458H496Q533 1458 547 1448Q565 1434 565 1411T547 1374Q533 1364 500 1364H483Q334
1364 334 1200V987H505Q536 987 549 978Q565 966 565 944Q565 923 549 910Q536 901 505 901H334V63Q334 30 323 12Q308 -8 281 -8Q252 -8 239 12Q227 29 227 63Z" />
<glyph unicode="g" glyph-name="g" horiz-adv-x="1110" d="M805 -49V127Q745 47 675 18T512 -12Q437 -12 374 11T270 74Q141 203 141 494Q141 784 270 913Q310 953 373 976T512 999Q605 999 675 970T805 860V924Q805 958 816 975Q829 995 858 995T900 975Q911
958 911 924V-55Q911 -245 803 -364T506 -483Q380 -483 297 -438Q190 -381 190 -336Q190 -313 205 -299T238 -285Q244 -285 250 -286T263 -293T274 -301T288 -313T303 -326Q377 -391 506 -391Q655 -391 730 -297T805 -49ZM456 82T526 82T647 106T729 167T776 261T799
371T805 494Q805 562 800 616T777 726T729 820T648 881T526 905Q468 905 422 889T347 843T297 777T267 691T252 596T248 494Q248 426 253 372T276 262T323 168T404 106Z" />
<glyph unicode="h" glyph-name="h" horiz-adv-x="1148" d="M856 63V610Q856 754 787 829T584 905Q450 905 378 829T305 610V63Q305 30 294 12Q281 -8 252 -8T210 12Q199 30 199 63V1395Q199 1430 210 1446Q223 1466 252 1466T294 1446Q305 1430 305 1395V870Q416
999 596 999Q764 999 860 905Q963 808 963 631V63Q963 32 951 12Q938 -8 909 -8Q882 -8 867 12Q856 30 856 63Z" />
<glyph unicode="i" glyph-name="i" horiz-adv-x="503" d="M199 63V924Q199 958 210 975Q223 995 252 995T294 975Q305 958 305 924V63Q305 30 294 12Q281 -8 252 -8T210 12Q199 30 199 63ZM284 1319T252 1319T198 1341T176 1395T198 1448T252 1470T306 1448T328
1395T306 1342Z" />
<glyph unicode="j" glyph-name="j" horiz-adv-x="503" d="M68 -471H37Q0 -471 -14 -461Q-33 -448 -33 -424T-14 -387Q0 -377 33 -377H49Q124 -377 161 -335T199 -213V924Q199 958 210 975Q223 995 252 995T294 975Q305 958 305 924V-213Q305 -328 243 -399T68
-471ZM284 1319T252 1319T198 1341T176 1395T198 1448T252 1470T306 1448T328 1395T306 1342Z" />
<glyph unicode="k" glyph-name="k" horiz-adv-x="1043" d="M849 34L527 542L305 290V63Q305 30 294 12Q281 -8 252 -8T210 12Q199 30 199 63V1395Q199 1430 210 1446Q223 1466 252 1466T294 1446Q305 1430 305 1395V431L776 967Q806 999 829 999Q846 999 859 988Q876
973 876 954Q876 933 850 902L601 620L939 90Q957 61 957 44Q957 16 932 0Q920 -8 904 -8Q875 -8 849 34Z" />
<glyph unicode="l" glyph-name="l" horiz-adv-x="587" d="M463 0H432Q318 0 257 71T195 258V1395Q195 1430 206 1446Q219 1466 248 1466T290 1446Q301 1430 301 1395V258Q301 179 338 137T451 94H467Q500 94 514 84Q532 70 532 47T514 10Q500 0 463 0Z" />
<glyph unicode="m" glyph-name="m" horiz-adv-x="1804" d="M1511 63V610Q1511 753 1441 829T1238 905Q1111 905 1037 830T962 629V63Q962 32 950 12Q937 -8 908 -8T866 12Q855 30 855 63V610Q855 753 785 829T583 905T378 828T305 610V63Q305 30 294 12Q281 -8
252 -8T210 12Q199 30 199 63V924Q199 958 210 975Q223 995 252 995T294 975Q305 958 305 924V870Q416 999 597 999Q706 999 788 953T914 819Q1028 999 1250 999Q1417 999 1513 905Q1618 805 1618 631V63Q1618 30 1607 12Q1592 -8 1565 -8Q1536 -8 1523 12Q1511
29 1511 63Z" />
<glyph unicode="n" glyph-name="n" horiz-adv-x="1148" d="M856 63V610Q856 754 787 829T584 905Q450 905 378 829T305 610V63Q305 30 294 12Q281 -8 252 -8T210 12Q199 30 199 63V924Q199 958 210 975Q223 995 252 995T294 975Q305 958 305 924V870Q416 999 596
999Q764 999 860 905Q963 808 963 631V63Q963 32 951 12Q938 -8 909 -8Q882 -8 867 12Q856 30 856 63Z" />
<glyph unicode="o" glyph-name="o" horiz-adv-x="1081" d="M743 165Q834 256 834 494Q834 731 743 822Q661 905 541 905Q420 905 338 822Q248 732 248 494Q248 255 338 165Q421 82 541 82Q660 82 743 165ZM815 96Q705 -12 541 -12Q376 -12 266 96Q193 170 167
269T141 494T167 718T266 891Q374 999 541 999Q707 999 815 891Q889 817 914 719T940 494Q940 367 915 269T815 96Z" />
<glyph unicode="p" glyph-name="p" horiz-adv-x="1110" d="M199 -408V924Q199 958 210 975Q223 995 252 995T294 975Q305 958 305 924V860Q365 940 435 969T598 999Q673 999 736 976T840 913Q969 784 969 494Q969 203 840 74Q800 35 737 12T598 -12Q505 -12 435
17T305 127V-408Q305 -441 294 -459Q281 -479 252 -479T210 -459Q199 -441 199 -408ZM514 82T584 82T705 106T786 167T833 261T856 372T862 494Q862 550 858 596T844 691T813 776T764 843T688 889T584 905Q514 905 463 881T381 820T334 727T311 616T305 494Q305
425 310 372T333 262T381 168T462 106Z" />
<glyph unicode="q" glyph-name="q" horiz-adv-x="1110" d="M911 924V-408Q911 -441 900 -459Q887 -479 858 -479T816 -459Q805 -441 805 -408V127Q745 47 675 18T512 -12Q437 -12 374 11T270 74Q141 203 141 494Q141 784 270 913Q310 953 373 976T512 999Q605
999 675 970T805 860V924Q805 958 816 975Q829 995 858 995T900 975Q911 958 911 924ZM526 905Q468 905 422 889T347 843T297 777T267 691T252 596T248 494Q248 426 253 372T276 262T323 168T404 106T526 82T647 106T729 167T776 261T799 371T805 494Q805 562 800
616T777 726T729 820T648 881T526 905Z" />
<glyph unicode="r" glyph-name="r" horiz-adv-x="837" d="M199 63V924Q199 958 210 975Q223 995 252 995T294 975Q305 958 305 924V856Q347 923 425 961T592 999Q695 999 772 952Q823 922 823 889Q823 868 809 854Q793 838 772 838Q755 838 709 866Q647 905 573
905Q447 905 376 819T305 606V63Q305 30 294 12Q281 -8 252 -8T210 12Q199 30 199 63Z" />
<glyph unicode="s" glyph-name="s" horiz-adv-x="1011" d="M606 445L442 460Q145 486 145 719Q145 846 242 922T500 999T784 932Q811 918 821 901Q827 891 827 877Q827 865 817 852Q802 834 780 834Q764 834 731 852Q631 907 500 907Q378 907 313 859T248 719Q248
642 296 603T449 554L608 540Q675 534 723 520T813 478T876 400T897 281Q897 146 790 67T502 -12Q295 -12 156 84Q113 112 113 141Q113 162 129 178Q141 190 162 190Q184 190 221 162Q327 82 498 82Q795 82 795 281Q795 357 749 397T606 445Z" />
<glyph unicode="t" glyph-name="t" horiz-adv-x="665" d="M489 0H459Q345 0 283 71T221 258V901H138Q107 901 94 910Q78 923 78 944Q78 966 94 978Q107 987 138 987H221V1239Q221 1274 232 1290Q247 1311 274 1311Q303 1311 316 1290Q328 1274 328 1239V987H499Q529
987 543 978Q559 966 559 944Q559 923 543 910Q529 901 499 901H328V258Q328 180 365 137T477 94H494Q525 94 541 84Q559 70 559 47T541 10Q525 0 489 0Z" />
<glyph unicode="u" glyph-name="u" horiz-adv-x="1148" d="M844 63V117Q733 -12 553 -12Q385 -12 289 82Q186 179 186 356V924Q186 959 198 975Q211 995 240 995Q267 995 282 975Q293 958 293 924V377Q293 233 362 158T565 82Q699 82 771 158T844 377V924Q844
958 855 975Q868 995 897 995T939 975Q950 958 950 924V63Q950 30 939 12Q926 -8 897 -8T855 12Q844 30 844 63Z" />
<glyph unicode="v" glyph-name="v" horiz-adv-x="880" d="M366 63L72 909Q59 944 67 963Q79 995 115 995Q153 995 170 942L440 130L711 942Q728 995 766 995Q802 995 814 963Q820 944 809 909L515 63Q500 19 480 5Q464 -8 440 -8Q417 -8 400 5Q380 20 366 63Z" />
<glyph unicode="w" glyph-name="w" horiz-adv-x="1458" d="M333 89L85 910Q76 945 82 964Q87 977 101 986T131 995Q152 995 166 981Q176 971 185 939L418 130L644 898Q662 962 685 980Q703 995 729 995T773 980Q796 963 814 898L1040 130L1273 939Q1282 971 1292
981Q1307 995 1327 995Q1344 995 1357 986T1376 964Q1382 945 1373 910L1125 89Q1107 25 1084 7Q1066 -8 1040 -8Q1016 -8 996 7Q975 25 955 89L729 842L503 89Q485 27 462 7Q444 -8 418 -8T374 7Q351 25 333 89Z" />
<glyph unicode="x" glyph-name="x" horiz-adv-x="884" d="M117 90L372 494L118 897Q99 925 99 943Q99 970 125 987Q137 995 153 995Q182 995 208 953L442 567L677 953Q702 995 732 995Q748 995 760 987Q785 971 785 943Q785 926 767 897L513 494L768 90Q786 61
786 44Q786 16 761 0Q749 -8 733 -8Q703 -8 678 34L442 419L207 34Q181 -8 152 -8Q136 -8 124 0Q98 16 98 44Q98 62 117 90Z" />
<glyph unicode="y" glyph-name="y" horiz-adv-x="880" d="M317 -219L390 0L72 909Q59 944 67 963Q79 995 115 995Q153 995 170 942L440 130L711 942Q728 995 766 995Q802 995 814 963Q820 944 809 909L400 -268Q374 -345 333 -384Q266 -446 159 -446Q125 -446
110 -436Q91 -424 91 -399Q91 -375 110 -362Q123 -352 153 -352Q216 -352 254 -323T317 -219Z" />
<glyph unicode="z" glyph-name="z" horiz-adv-x="919" d="M752 0H174Q135 0 121 12Q102 29 102 51Q102 74 124 104L684 893H195Q163 893 147 903Q129 916 129 940T147 977Q163 987 195 987H741Q779 987 795 975Q813 960 813 936T792 883L231 94H752Q783 94 799
84Q817 70 817 47T799 10Q783 0 752 0Z" />
<glyph unicode="{" glyph-name="braceleft" horiz-adv-x="647" d="M485 -147H481Q370 -147 317 -94Q288 -64 276 -23T264 100V522Q264 609 227 645Q195 679 152 682Q123 684 111 696Q98 709 98 729Q98 750 111 762Q123 774 152 776Q193 779 227 813Q264 850 264
936V1360Q264 1441 276 1483T317 1554Q371 1608 481 1608H485Q518 1608 535 1599Q555 1589 555 1563Q555 1538 537 1526Q521 1516 485 1516Q448 1516 431 1511T399 1491Q371 1462 371 1358V934Q371 855 342 809T246 729Q312 696 341 650T371 524V102Q371 -2 399
-31Q414 -45 431 -50T485 -55T537 -66Q555 -78 555 -102Q555 -129 535 -139Q518 -147 485 -147Z" />
<glyph unicode="|" glyph-name="bar" horiz-adv-x="649" d="M272 -88V1546Q272 1581 284 1597Q297 1618 326 1618Q353 1618 368 1597Q379 1581 379 1546V-88Q379 -123 368 -139Q353 -160 326 -160Q297 -160 284 -139Q272 -123 272 -88Z" />
<glyph unicode="}" glyph-name="braceright" horiz-adv-x="647" d="M166 -147H162Q129 -147 113 -139Q92 -129 92 -102Q92 -78 111 -66Q125 -55 162 -55T216 -50T248 -31Q276 -2 276 102V524Q276 603 305 649T401 729Q335 762 306 808T276 934V1358Q276 1462 248
1491Q233 1505 216 1510T162 1516T111 1526Q92 1538 92 1563Q92 1589 113 1599Q128 1608 162 1608H166Q276 1608 330 1554Q360 1525 371 1483T383 1360V936Q383 850 420 813Q454 779 496 776Q523 774 537 762Q549 750 549 729Q549 710 537 696Q523 684 496 682Q452
679 420 645Q383 609 383 522V100Q383 19 372 -22T330 -94Q277 -147 166 -147Z" />
<glyph unicode="~" glyph-name="asciitilde" horiz-adv-x="1052" d="M905 530Q854 479 808 460T707 440Q693 440 679 441T648 447T620 455T589 466T561 477T528 491T498 504Q490 507 471 515T443 527T419 536T393 544T369 549T342 551Q301 551 273 538T205 487Q180
463 158 463Q141 463 129 475T117 504Q117 529 147 559Q199 611 245 630T346 649Q366 649 385 646T429 635T467 622T513 604T555 586Q559 584 571 579T588 572T603 565T619 559T634 554T649 549T664 545T680 542T695 540T711 539Q752 539 780 552T848 602Q872 627
895 627Q911 627 924 614Q936 602 936 586Q936 561 905 530Z" />
</font>
</defs>
</svg>
