<?xml version="1.0" standalone="no"?>
<!DOCTYPE svg PUBLIC "-//W3C//DTD SVG 1.1//EN" "http://www.w3.org/Graphics/SVG/1.1/DTD/svg11.dtd" >
<svg xmlns="http://www.w3.org/2000/svg">
<metadata>
This is a custom SVG webfont generated by Font Squirrel.
Copyright   : 2010 AlbertJan Pool published by FSI FontShop International GmbH
Designer    : AlbertJan Pool
Foundry     : FSI
Foundry URL : httpwwwfontfontcom
</metadata>
<defs>
<font id="DINRoundProBold" horiz-adv-x="1112" >
<font-face units-per-em="2048" ascent="1565" descent="-483" />
<missing-glyph horiz-adv-x="475" />
<glyph unicode=" "  horiz-adv-x="475" />
<glyph unicode="&#x09;" horiz-adv-x="475" />
<glyph unicode="&#xa0;" horiz-adv-x="475" />
<glyph unicode="!" horiz-adv-x="710" d="M232 154q0 67 47.5 114t112.5 47q67 0 114.5 -48t47.5 -113.5t-47.5 -112.5t-114 -47t-113.5 47t-47 113zM249 642v632q0 52 3.5 75.5t15.5 49.5q16 31 49.5 49t74.5 18t74.5 -18t49.5 -49q12 -26 16 -49.5t4 -75.5v-632q0 -52 -4 -75.5t-16 -49.5q-16 -31 -49.5 -49 t-74.5 -18t-74 18t-50 49q-12 26 -15.5 49.5t-3.5 75.5z" />
<glyph unicode="&#x22;" horiz-adv-x="935" d="M119 1082v206q0 84 17 119q32 63 116 63t116 -63q17 -35 17 -119v-206q0 -84 -17 -118q-32 -63 -116 -63.5t-116 63.5q-17 34 -17 118zM551 1082v206q0 84 17 119q32 63 116 63t116 -63q17 -35 17 -119v-206q0 -84 -17 -118q-32 -63 -116 -63.5t-116 63.5q-17 34 -17 118 z" />
<glyph unicode="#" horiz-adv-x="1503" d="M94 508q0 75 59 105q30 15 109 16h86l48 240h-61q-80 0 -110 16q-58 31 -58 105.5t58 105.5q30 15 110 15h109l45 223q9 48 19 72.5t32 44.5q29 28 78 28q55 0 94 -36q30 -29 33 -74t-10 -84l-35 -174h247l45 223q9 48 19 72.5t31 44.5q29 28 79 28q55 0 93 -36 q30 -29 33 -74t-9 -84l-35 -174h38q80 0 110 -15q58 -31 58 -106t-58 -105q-30 -15 -110 -16h-86l-48 -240h61q80 0 110 -16q58 -31 58 -105.5t-58 -105.5q-30 -15 -110 -15h-109l-50 -251q-9 -48 -19 -72t-32 -45q-29 -28 -78 -27q-55 0 -94 36q-30 29 -32.5 73.5t9.5 83.5 l40 202h-247l-50 -251q-9 -48 -19 -72t-31 -45q-29 -28 -79 -27q-55 0 -93 36q-30 29 -33 73.5t9 83.5l40 202h-38q-80 0 -109 15q-59 31 -59 106zM604 629h247l48 240h-247z" />
<glyph unicode="$" horiz-adv-x="1214" d="M67 229q0 54 38 94q32 32 80 31q42 0 116 -39q80 -42 139 -58.5t138 -16.5q125 0 192 48t67 135q0 79 -44 122q-38 36 -131 50l-175 26q-185 28 -282 121q-104 101 -105 286q0 167 100 282.5t277 148.5v48q0 70 16 100q29 52 96 52t96 -52q15 -30 15 -100v-41 q119 -12 238 -66q117 -54 117 -143q0 -47 -33 -88q-34 -39 -85 -39q-43 0 -107 33q-109 57 -230 58q-108 0 -166 -51t-58 -126q0 -73 42 -111q48 -43 135 -56l171 -25q189 -28 280 -114q113 -105 112 -308q0 -176 -114 -289t-302 -143v-87q0 -71 -15 -99 q-29 -52 -96.5 -52.5t-95.5 52.5q-15 29 -16 99v80q-141 11 -265 71q-76 36 -110.5 72.5t-34.5 94.5z" />
<glyph unicode="%" horiz-adv-x="1737" d="M106 987v202q0 133 86 207t212.5 74t211.5 -74t85 -207v-202q0 -134 -85 -207.5t-211.5 -73.5t-212.5 74t-86 207zM300 994q0 -117 104 -116q103 0 104 116v188q0 117 -104 116q-104 0 -104 -116v-188zM452 85q0 23 25 75l615 1222q16 32 25 45.5t24 23.5q23 15 49 15 q22 0 44 -11q51 -26 51 -82q0 -23 -25 -75l-615 -1222q-16 -32 -25.5 -45.5t-23.5 -23.5q-23 -15 -49 -15q-22 0 -44 11q-51 26 -51 82zM1036 269v202q0 133 85.5 207.5t212.5 74.5t212 -74.5t85 -207.5v-202q0 -134 -85 -207.5t-212 -73.5t-212.5 74t-85.5 207zM1230 276 q0 -117 104 -116q103 0 104 116v188q0 117 -104 117t-104 -117v-188z" />
<glyph unicode="&#x26;" horiz-adv-x="1454" d="M122 430q0 67 22 126.5t62.5 108.5t82 84.5t95.5 71.5q-41 46 -66.5 81t-52 99.5t-26.5 128.5q0 152 104 246t285 94q170 0 272 -96t102 -248q0 -145 -151 -254l-105 -75l246 -291q54 74 69 193q7 50 21 76q32 58 104 59q36 0 65 -17t43 -44q16 -30 17 -84 q0 -99 -48 -215q-37 -91 -99 -161l56 -65q37 -44 50 -69t13 -54q0 -59 -51 -101q-39 -33 -87 -33q-37 0 -63 18.5t-67 67.5l-39 46q-38 -30 -64 -47.5t-73 -41t-106 -35t-130 -11.5q-237 0 -359 116t-122 326zM380 434q0 -89 64 -147t157 -58q119 0 217 86l-291 342 q-75 -52 -111 -101t-36 -122zM507 1124q0 -25 15.5 -55t30.5 -49.5t50 -58.5l62 40q84 58 84 123q0 52 -33 85.5t-88 33.5q-58 0 -89.5 -33.5t-31.5 -85.5z" />
<glyph unicode="'" horiz-adv-x="503" d="M119 1082v206q0 84 17 119q32 63 116 63t116 -63q17 -35 17 -119v-206q0 -84 -17 -118q-32 -63 -116 -63.5t-116 63.5q-17 34 -17 118z" />
<glyph unicode="(" horiz-adv-x="687" d="M164 284v891q0 165 41 250q37 76 129 169q42 43 69.5 57.5t60.5 14.5q57 0 96 -39q26 -27 34 -61t-1 -61q-7 -25 -20.5 -44.5t-46.5 -51.5q-36 -36 -62 -83q-34 -62 -34 -165v-864q0 -102 34 -165q27 -47 62 -83q33 -32 46.5 -52t20.5 -44q9 -27 1 -61t-34 -61 q-39 -39 -96 -39q-33 0 -60.5 14.5t-69.5 57.5q-92 93 -129 169q-41 86 -41 251z" />
<glyph unicode=")" horiz-adv-x="687" d="M93 -108q-8 34 1 61q7 25 20.5 44.5t46.5 51.5q36 36 62 83q34 62 34 165v864q0 102 -34 165q-27 47 -62 83q-33 32 -46.5 52t-20.5 44q-9 27 -1 61.5t34 60.5q39 39 96 39q33 0 60.5 -14.5t69.5 -57.5q92 -93 129 -169q41 -86 41 -250v-891q0 -165 -41 -251 q-37 -76 -129 -169q-42 -43 -69.5 -57.5t-60.5 -14.5q-57 0 -96 39q-26 27 -34 61z" />
<glyph unicode="*" horiz-adv-x="978" d="M132 944q15 25 65 54l104 63l-104 62q-49 30 -65 55q-27 43 3 92t80 46q31 -3 78 -31l103 -62v118q0 58 13 83q24 46 81 46t80 -46q12 -25 13 -83v-118l103 62q47 28 78 31q50 3 79.5 -46t3.5 -92q-15 -25 -65 -55l-104 -62l104 -63q49 -30 65 -54q27 -43 -3 -92t-80 -46 q-31 3 -78 31l-103 62v-119q0 -58 -13 -83q-24 -46 -81 -46t-80 46q-12 25 -13 83v119l-103 -62q-47 -28 -78 -31q-50 -3 -80 46t-3 92z" />
<glyph unicode="+" d="M95 587q0 75 59 105q30 15 109 16h172v172q0 80 16 109q31 58 105.5 58.5t105.5 -58.5q15 -30 15 -109v-172h172q80 0 109 -16q58 -31 58.5 -105.5t-58.5 -105.5q-30 -15 -109 -15h-172v-172q0 -80 -15 -110q-31 -58 -106 -58t-105 58q-15 30 -16 110v172h-172 q-80 0 -109 15q-59 31 -59 106z" />
<glyph unicode="," horiz-adv-x="565" d="M61 -171q-6 40 20 117l89 269q25 76 54 104q33 33 84 33q44 0 86.5 -27.5t49.5 -77.5q6 -40 -19 -117l-89 -269q-25 -76 -54 -105q-33 -33 -84 -32q-44 0 -87 27.5t-50 77.5z" />
<glyph unicode="-" horiz-adv-x="872" d="M113 584.5q0 74.5 58 105.5q30 15 110 16h311q80 0 109 -16q58 -31 58.5 -105.5t-58.5 -105.5q-30 -15 -109 -15h-311q-80 0 -110 15q-58 31 -58 105.5z" />
<glyph unicode="." horiz-adv-x="583" d="M113 172q0 74 52 126t126 52t127 -52t53 -126t-53 -126t-127 -52t-126 52t-52 126z" />
<glyph unicode="/" horiz-adv-x="826" d="M38 -77q-13 38 15 124l484 1443q10 31 17.5 48t22.5 38.5t36.5 31.5t51.5 10q43 0 77 -23t46 -60q13 -38 -15 -124l-483 -1443q-10 -31 -18 -48t-23 -38.5t-36.5 -31.5t-50.5 -10q-43 0 -77.5 23t-46.5 60z" />
<glyph unicode="0" d="M112 423v612q0 101 35.5 185.5t97 138t141.5 82.5t170 29t170 -29t141.5 -82.5t97 -137.5t35.5 -186v-612q0 -101 -35.5 -185t-97 -138t-141.5 -83t-170 -29t-170 29t-141.5 83t-97 138t-35.5 185zM380 421q0 -89 48 -141t128 -52t128 52t48 141v616q0 89 -48 141 t-128 52t-128 -52t-48 -141v-616z" />
<glyph unicode="1" d="M146 1025q11 36 66 90l283 283q69 69 143 68q60 0 98 -38q39 -40 39 -135v-1119q0 -84 -17 -119q-32 -63 -116 -63t-116 63q-17 35 -17 119v884l-120 -120q-33 -33 -50 -45.5t-39 -20.5q-61 -20 -119 35q-54 55 -35 118z" />
<glyph unicode="2" d="M112 134q0 39 17 71.5t53 75.5l453 548q53 66 77.5 116.5t24.5 115.5q0 75 -46 121.5t-129 46.5q-70 0 -113 -32.5t-72 -105.5q-19 -48 -52 -76q-28 -23 -76 -23q-62 0 -95 40q-32 39 -32 95q0 61 33 127.5t90 113.5q125 102 312 102q205 0 326.5 -106t121.5 -297 q0 -61 -10 -108.5t-37 -96.5t-56.5 -88t-85.5 -106l-354 -426h387q80 0 109 -16q58 -31 58.5 -105.5t-58.5 -105.5q-30 -15 -109 -15h-560q-35 0 -54.5 1.5t-44.5 11t-42 26.5q-36 37 -36 95z" />
<glyph unicode="3" d="M109 315q0 62 34 100q37 40 98 40q52 0 82 -27q31 -28 50 -82q22 -61 62 -89t119 -28q83 0 138.5 53.5t55.5 147.5q0 92 -51 144t-146 56q-49 2 -76 16q-55 30 -55 100t55 100q30 14 76 16q85 3 134.5 51t49.5 134t-50 134t-129 48q-65 0 -102 -25.5t-61 -84.5 q-23 -57 -50 -81q-29 -26 -81 -25.5t-88 34.5t-36 92q0 50 20 100q30 78 86 128q118 103 314 103q126 0 226 -47t160 -141t60 -221q0 -213 -178 -307q189 -96 190 -338q0 -134 -61.5 -232.5t-164.5 -147t-234 -48.5q-116 0 -194.5 24t-144.5 80q-108 94 -108 223z" />
<glyph unicode="4" d="M36 352q0 40 36 112l445 893q34 69 64 90q27 19 63 19q50 0 90 -34t40 -82q0 -37 -34 -105l-392 -786h255v122q0 84 18 118q32 63 115.5 63.5t115.5 -63.5q17 -35 17 -118v-122h39q80 0 110 -16q58 -31 58 -105.5t-58 -105.5q-30 -15 -110 -15h-39v-43q0 -84 -17 -119 q-32 -63 -116 -63t-115 63q-17 35 -18 119v43h-379q-54 0 -86.5 7t-56.5 28q-45 39 -45 100z" />
<glyph unicode="5" d="M129 312q0 61 37 101q34 36 93 36q53 0 83 -27q29 -25 51 -82q25 -60 63 -85.5t102 -25.5q84 0 130 46q56 56 56 218q0 130 -42 195.5t-138 65.5q-102 0 -161 -65q-25 -28 -53 -45q-29 -16 -71 -16q-58 0 -94 35q-39 39 -39 113v520q0 27 1 43t10 40.5t26.5 42t42 26 t40.5 9.5t42 1h512q80 0 110 -15q58 -31 58 -105.5t-58 -105.5q-30 -15 -110 -15h-432v-310q80 72 221 72q174 0 272 -97q78 -78 104.5 -173t26.5 -216q0 -135 -27 -223t-102 -164q-119 -119 -325 -118q-200 0 -319 101q-49 42 -79.5 101t-30.5 122z" />
<glyph unicode="6" d="M99 438q0 62 19 133.5t41 122.5t63 133l264 530q34 69 64 90q27 19 63 19q50 0 90 -34t40 -82q0 -37 -33 -105l-195 -389q48 18 111 18q74 0 143 -30t122 -83.5t85.5 -136.5t32.5 -182q0 -210 -128 -332t-327 -122q-200 0 -327.5 119.5t-127.5 330.5zM366 440 q0 -98 52.5 -154.5t135.5 -56.5t135.5 56.5t52.5 154.5q0 96 -51.5 154.5t-136.5 58.5q-83 0 -135.5 -57t-52.5 -156z" />
<glyph unicode="7" d="M100 1163v133q0 27 1 43t10 40.5t26.5 42t42 26t40.5 9.5t42 1h594q57 0 88 -7t56 -31q41 -36 41 -97q0 -32 -28 -109l-413 -1099q-29 -74 -54 -98q-28 -26 -73 -25q-47 0 -86.5 29t-43.5 72q-4 41 23 110l379 1014h-378v-54q0 -84 -18 -119q-32 -63 -115.5 -63 t-115.5 63q-18 35 -18 119z" />
<glyph unicode="8" d="M88 424q0 205 184 329q-165 113 -164 301q0 125 61 221t162.5 145.5t224.5 49.5t224.5 -49.5t163 -145.5t61.5 -221q0 -188 -165 -301q184 -124 184 -329q0 -204 -132.5 -320t-335.5 -116t-335.5 116t-132.5 320zM354 430q0 -84 59 -143t143 -59t143 59t59 143t-59 142.5 t-143 58.5t-143 -58.5t-59 -142.5zM374 1047q0 -80 52 -132.5t130 -52.5t130 52.5t52 132.5q0 78 -52 130.5t-130 52.5t-130 -52.5t-52 -130.5z" />
<glyph unicode="9" d="M103 1016q0 210 128 332t327 122q200 0 327.5 -119.5t127.5 -330.5q0 -62 -19 -133.5t-41 -122.5t-63 -133l-264 -530q-34 -69 -64 -90q-27 -19 -63 -19q-50 0 -90 34t-40 83q0 37 33 104l195 389q-48 -18 -111 -18q-74 0 -143 30t-122 84t-85.5 137t-32.5 181zM370 1018 q0 -96 51.5 -154.5t136.5 -58.5q83 0 135.5 57t52.5 156q0 98 -52.5 154.5t-135.5 56.5t-135.5 -56.5t-52.5 -154.5z" />
<glyph unicode=":" horiz-adv-x="634" d="M163 172q0 74 52 126t126 52t127 -52t53 -126t-53 -126t-127 -52t-126 52t-52 126zM163 716q0 74 52 126t126 52t127 -52t53 -126t-53 -126t-127 -52t-126 52t-52 126z" />
<glyph unicode=";" horiz-adv-x="634" d="M119 -171q-6 40 19 117l89 269q25 76 55 104q33 33 84 33q44 0 86.5 -27.5t49.5 -77.5q6 -40 -20 -117l-89 -269q-25 -76 -54 -105q-33 -33 -84 -32q-44 0 -86.5 27.5t-49.5 77.5zM193 714.5q0 73.5 52 126t125.5 52.5t127 -52.5t53.5 -126t-53.5 -125.5t-127 -52 t-125.5 52t-52 125.5z" />
<glyph unicode="&#x3c;" d="M129 584.5q0 30.5 9.5 55t30 42t37 28t45.5 24.5l487 239q68 34 105 34q48 0 82 -40t34 -90q0 -37 -19 -64q-22 -30 -90 -63l-331 -165l331 -165q69 -34 90 -64q19 -27 19 -63q0 -50 -34 -90t-82 -40q-34 0 -105 34l-487 237q-29 14 -45.5 24.5t-37 28.5t-30 42.5 t-9.5 55z" />
<glyph unicode="=" d="M94 356.5q0 74.5 59 105.5q30 15 109 15h588q80 0 109 -15q58 -31 58.5 -105.5t-58.5 -105.5q-30 -15 -109 -15h-588q-80 0 -109 15q-59 31 -59 105.5zM94 813q0 75 59 106q30 15 109 15h588q80 0 109 -15q58 -31 58.5 -106t-58.5 -105q-30 -15 -109 -16h-588 q-80 0 -109 16q-59 30 -59 105z" />
<glyph unicode="&#x3e;" d="M153 293q0 37 19 63q22 30 90 64l331 165l-331 165q-69 34 -90 63q-19 27 -19 64q0 50 34 90t82 40q37 0 105 -34l487 -239q29 -14 45.5 -24.5t37 -28t30 -42t9.5 -55t-9.5 -55t-30 -42.5t-37 -28t-45.5 -25l-487 -237q-71 -34 -105 -34q-48 0 -82 40t-34 90z" />
<glyph unicode="?" horiz-adv-x="1071" d="M141 1114q0 55 30.5 122.5t87.5 120.5q124 114 307 113q120 0 217.5 -46.5t155.5 -138.5t58 -214q0 -79 -23.5 -134t-75.5 -124l-123 -161q-42 -54 -58 -118q-13 -47 -41 -77q-37 -39 -99 -39q-60 0 -100 41q-32 33 -32 91q0 49 16.5 91.5t57.5 94.5l153 193 q59 75 59 142q0 69 -44.5 114.5t-117.5 45.5q-80 0 -126 -49q-32 -33 -51 -98q-12 -39 -37 -67q-32 -33 -93 -33q-55 0 -89 36q-32 33 -32 94zM416 154.5q0 66.5 47 113.5t113.5 47t113.5 -47t47 -113.5t-47 -113.5t-113.5 -47t-113.5 47t-47 113.5z" />
<glyph unicode="@" horiz-adv-x="1551" d="M117 342v613q0 131 28 224.5t96.5 162t163 96.5t222.5 28h298q128 0 222 -28t162.5 -96.5t97 -162t28.5 -224.5v-794q0 -77 -17 -110q-14 -27 -43 -43t-66 -16q-40 0 -72 21q-31 20 -40 54q-5 15 -6 32q-50 -57 -109 -84.5t-143 -27.5q-159 0 -257 103q-60 63 -78 146 t-18 236q0 152 17.5 235.5t75.5 145.5q94 104 258 104q148 0 243 -101v89q0 138 -72 210t-206 72h-253q-134 0 -205.5 -72t-71.5 -210v-589q0 -63 11 -95.5t44 -71.5q26 -30 34.5 -49.5t8.5 -45.5q0 -55 -46 -95q-37 -33 -87 -33q-37 0 -62.5 18.5t-62.5 60.5 q-51 59 -73 123.5t-22 173.5zM841 472q0 -130 38.5 -196t131.5 -66t131 66t38 196t-38 196t-131 66t-131.5 -66t-38.5 -196z" />
<glyph unicode="A" horiz-adv-x="1302" d="M47 93q-3 15 -3 28q0 15 3 29q6 26 23 69l420 1116q27 69 59 97q39 35 102.5 34.5t102.5 -34.5q32 -28 58 -97l421 -1116q16 -44 22 -69q3 -13 4 -29q0 -14 -3 -28q-6 -31 -30 -57q-41 -44 -103 -44q-46 0 -79 26q-18 15 -30 36.5t-30 71.5l-48 132h-569l-49 -132 q-18 -50 -30 -71t-30 -37q-33 -27 -79 -26q-61 0 -102 44q-24 26 -30 57zM456 498h391l-196 529z" />
<glyph unicode="B" horiz-adv-x="1351" d="M169 174v1110q0 29 1.5 46.5t10.5 43.5t27.5 44.5t45 27.5t43.5 10.5t46 1.5h415q213 0 332.5 -110t119.5 -299q0 -110 -56.5 -190t-125.5 -111q38 -17 70 -42t64 -63.5t50.5 -96t18.5 -126.5q0 -200 -123.5 -310t-325.5 -110h-439q-29 0 -46 1.5t-43.5 11t-45 27.5 t-27.5 44.5t-10.5 43.5t-1.5 46zM456 254h298q92 0 141 51t49 129t-49 128t-141 50h-298v-358zM456 868h279q89 0 139 45.5t50 122.5t-50 122.5t-139 45.5h-279v-336z" />
<glyph unicode="C" horiz-adv-x="1262" d="M119 729q0 100 1.5 156t9 127.5t23.5 117.5t44 95t71 92q152 154 388 153q128 0 216.5 -31.5t157.5 -99.5q65 -62 95 -130.5t30 -121.5q0 -71 -38 -108q-39 -39 -99 -39q-50 0 -82 25q-37 30 -71 101q-68 151 -215 151q-103 0 -173 -78q-45 -51 -58 -131t-13 -279 t13 -278.5t58 -131.5q70 -78 173 -77q147 0 215 150q34 72 71 102q32 25 82 24q60 0 99 -39q38 -38 38 -108q0 -52 -30 -121t-95 -131q-70 -68 -158 -99.5t-216 -31.5q-237 0 -388 153q-43 43 -71 92.5t-44 95t-23.5 117t-9 127.5t-1.5 156z" />
<glyph unicode="D" horiz-adv-x="1352" d="M169 174v1110q0 29 1.5 46.5t10.5 43.5t27.5 44.5t45 27.5t43.5 10.5t46 1.5h354q150 0 254.5 -50.5t186.5 -162.5q63 -85 78.5 -193t15.5 -323t-15.5 -323t-78.5 -193q-82 -112 -186.5 -162.5t-254.5 -50.5h-354q-29 0 -46 1.5t-43.5 11t-45 27.5t-27.5 44.5t-10.5 43.5 t-1.5 46zM456 254h217q141 0 213 90q38 47 48.5 124.5t10.5 260.5t-10.5 260.5t-48.5 124.5q-72 90 -213 90h-217v-950z" />
<glyph unicode="E" horiz-adv-x="1235" d="M169 174v1110q0 29 1.5 46.5t10.5 43.5t27.5 44.5t45 27.5t43.5 10.5t46 1.5h625q80 0 111 -16q28 -14 44.5 -44t16.5 -67t-16.5 -66.5t-44.5 -43.5q-32 -16 -111 -17h-512v-342h413q80 0 112 -16q28 -14 44 -44t16 -67t-16 -66.5t-44 -43.5q-32 -16 -112 -17h-413v-354 h512q80 0 111 -16q28 -14 44.5 -44t16.5 -67t-16.5 -66.5t-44.5 -44.5q-32 -16 -111 -16h-625q-29 0 -46 1.5t-43.5 11t-45 27.5t-27.5 44.5t-10.5 43.5t-1.5 46z" />
<glyph unicode="F" horiz-adv-x="1206" d="M169 184v1100q0 29 1.5 46.5t10.5 43.5t27.5 44.5t45 27.5t43.5 10.5t46 1.5h626q80 0 111 -16q28 -14 44.5 -44t16.5 -67t-16.5 -66.5t-44.5 -43.5q-32 -16 -111 -17h-513v-358h413q80 0 112 -17q28 -14 44 -43.5t16 -66.5t-16 -66.5t-44 -44.5q-32 -16 -112 -16h-413 v-408q0 -52 -3.5 -75.5t-16.5 -49.5q-16 -31 -49.5 -49t-74.5 -18t-74 18.5t-50 48.5q-12 26 -15.5 49.5t-3.5 75.5z" />
<glyph unicode="G" horiz-adv-x="1300" d="M119 729q0 100 1.5 156t9 127.5t23.5 117.5t44 95t71 92q152 154 388 153q128 0 216.5 -31.5t157.5 -99.5q65 -62 95 -130.5t30 -121.5q0 -71 -38 -108q-39 -39 -99 -39q-50 0 -82 25q-37 30 -71 101q-68 151 -215 151q-103 0 -173 -78q-45 -51 -58 -131t-13 -279 q0 -204 14 -283t56 -127q68 -78 183 -77q111 0 182 73q38 39 51.5 88.5t13.5 127.5h-102q-77 0 -112 18q-27 13 -43.5 43t-16.5 66.5t16.5 66.5t43.5 44q33 16 112 16h200q29 0 46 -1.5t43 -10.5t44.5 -27.5t28 -44.5t11 -43.5t1.5 -46.5v-15q0 -165 -29 -269.5t-107 -182.5 q-83 -83 -173.5 -119.5t-209.5 -36.5q-240 0 -391 153q-43 43 -71 92.5t-44 95t-23.5 117t-9 127.5t-1.5 156z" />
<glyph unicode="H" horiz-adv-x="1404" d="M169 184v1090q0 52 3.5 75.5t15.5 49.5q16 31 49.5 49t74.5 18t74.5 -18t49.5 -49q12 -26 16 -49.5t4 -75.5v-410h493v410q0 52 3.5 75.5t16.5 49.5q16 31 49.5 49t74.5 18t74 -18t50 -49q12 -26 15.5 -49.5t3.5 -75.5v-1090q0 -52 -3.5 -75.5t-15.5 -49.5 q-16 -31 -49.5 -49t-74.5 -18t-74.5 18.5t-49.5 48.5q-12 26 -16 49.5t-4 75.5v426h-493v-426q0 -52 -3.5 -75.5t-16.5 -49.5q-16 -31 -49.5 -49t-74.5 -18t-74 18.5t-50 48.5q-12 26 -15.5 49.5t-3.5 75.5z" />
<glyph unicode="I" horiz-adv-x="624" d="M169 184v1090q0 52 3.5 75.5t15.5 49.5q16 31 49.5 49t74.5 18t74.5 -18t49.5 -49q12 -26 16 -49.5t4 -75.5v-1090q0 -52 -3.5 -75.5t-16.5 -49.5q-16 -31 -49.5 -49t-74.5 -18t-74 18.5t-50 48.5q-12 26 -15.5 49.5t-3.5 75.5z" />
<glyph unicode="J" horiz-adv-x="1059" d="M51 182q0 55 40 92q34 30 78 30q36 0 97 -31q65 -32 132 -31q108 0 169 63.5t61 186.5v782q0 52 3.5 75.5t15.5 49.5q16 31 49.5 49t74.5 18t74.5 -18t49.5 -49q12 -26 15.5 -49.5t3.5 -75.5v-795q0 -117 -42 -212t-114 -155t-164 -92t-196 -32q-171 0 -282 81 q-65 46 -65 113z" />
<glyph unicode="K" horiz-adv-x="1317" d="M169 184v1090q0 52 3.5 75.5t15.5 49.5q16 31 49.5 49t74.5 18t74.5 -18t49.5 -49q12 -26 16 -49.5t4 -75.5v-441l454 547q41 49 67.5 67.5t62.5 18.5q48 0 87 -32q51 -42 52 -102q0 -29 -13.5 -54t-50.5 -69l-272 -329l360 -632q44 -77 46 -115v-7q0 -31 -17 -60 q-19 -32 -53 -52q-39 -23 -76 -22q-36 0 -64 18t-42 37.5t-38 61.5l-317 555l-186 -226v-254q0 -52 -3.5 -75.5t-16.5 -49.5q-16 -31 -49.5 -49t-74.5 -18t-74 18.5t-50 48.5q-12 26 -15.5 49.5t-3.5 75.5z" />
<glyph unicode="L" horiz-adv-x="1175" d="M169 174v1100q0 52 3.5 75.5t15.5 49.5q16 31 49.5 49t74.5 18t74.5 -18t49.5 -49q12 -26 16 -49.5t4 -75.5v-1020h496q80 0 112 -16q28 -14 44 -44t16 -67t-16 -66.5t-44 -44.5q-32 -16 -112 -16h-609q-29 0 -46 1.5t-43.5 11t-45 27.5t-27.5 44.5t-10.5 43.5t-1.5 46z " />
<glyph unicode="M" horiz-adv-x="1660" d="M169 184v1105q0 95 43 138q39 39 96 39q50 0 85 -23q40 -26 73 -88l364 -695l365 695q33 62 73 88q35 24 85 23q57 0 96 -39q43 -43 43 -138v-1105q0 -52 -3.5 -75.5t-15.5 -49.5q-16 -31 -49.5 -49t-74.5 -18t-74.5 18.5t-49.5 48.5q-12 26 -16 49.5t-4 75.5v661 l-237 -468q-28 -54 -58 -77.5t-79.5 -23.5t-79.5 23.5t-58 77.5l-237 468v-661q0 -52 -3.5 -75.5t-16.5 -49.5q-16 -31 -49.5 -49t-74.5 -18t-74 18.5t-50 48.5q-12 26 -15.5 49.5t-3.5 75.5z" />
<glyph unicode="N" horiz-adv-x="1457" d="M169 184v1104q0 94 39 134q44 44 107 44q47 0 83 -29.5t85 -101.5l518 -766v705q0 52 4 75.5t16 49.5q16 31 49.5 49t74.5 18t74 -18t50 -49q12 -26 15.5 -49.5t3.5 -75.5v-1104q0 -95 -39 -134q-44 -44 -107 -44q-47 0 -83 29.5t-84 101.5l-519 766v-705 q0 -52 -3.5 -75.5t-16.5 -49.5q-16 -31 -49.5 -49t-74.5 -18t-74 18.5t-50 48.5q-12 26 -15.5 49.5t-3.5 75.5z" />
<glyph unicode="O" horiz-adv-x="1318" d="M119 729q0 100 1.5 156t9 127.5t23.5 117.5t44 95t71 92q152 154 391.5 153.5t391.5 -153.5q43 -43 71 -92t44 -95t23.5 -117.5t9 -127.5t1.5 -156t-1.5 -156t-9 -127.5t-23.5 -117t-44 -95t-71 -92.5q-152 -154 -391.5 -153.5t-391.5 153.5q-43 43 -71 92.5t-44 95 t-23.5 117t-9 127.5t-1.5 156zM406 729q0 -204 14 -282.5t56 -125.5q70 -79 183.5 -79t183.5 79q42 47 56 125.5t14 282.5t-14 283.5t-56 126.5q-68 78 -183.5 78t-183.5 -78q-42 -47 -56 -126.5t-14 -283.5z" />
<glyph unicode="P" horiz-adv-x="1288" d="M169 184v1100q0 29 1.5 46.5t10.5 43.5t27.5 44.5t45 27.5t43.5 10.5t46 1.5h393q220 0 351 -131t131 -323.5t-131 -323.5t-351 -131h-280v-365q0 -52 -3.5 -75.5t-16.5 -49.5q-16 -31 -49.5 -49t-74.5 -18t-74 18.5t-50 48.5q-12 26 -15.5 49.5t-3.5 75.5zM456 803h264 q96 0 153.5 55t57.5 145.5t-57.5 145.5t-153.5 55h-264v-401z" />
<glyph unicode="Q" horiz-adv-x="1318" d="M119 729q0 100 1.5 156t9 127.5t23.5 117.5t44 95t71 92q152 154 391.5 153.5t391.5 -153.5q43 -43 71 -92t44 -95t23.5 -117.5t9 -127.5t1.5 -156q0 -207 -15.5 -317.5t-74.5 -198.5l44 -44q44 -44 54 -75q5 -15 6 -30q0 -38 -34 -71.5t-72 -33.5q-15 0 -30 5 q-31 10 -74 54l-48 48q-125 -78 -297 -78q-240 0 -391 153q-43 43 -71 92.5t-44 95t-23.5 117t-9 127.5t-1.5 156zM406 729q0 -204 14 -282.5t56 -125.5q70 -79 183 -79q52 0 95 25l-65 66q-44 44 -54 75q-5 15 -5 30q0 38 33.5 71.5t71.5 33.5q15 0 30 -5q31 -10 75 -55 l46 -45q28 75 27 291q0 204 -14 283.5t-56 126.5q-68 78 -183.5 78t-183.5 -78q-42 -47 -56 -126.5t-14 -283.5z" />
<glyph unicode="R" horiz-adv-x="1339" d="M169 184v1100q0 29 1.5 46.5t10.5 43.5t27.5 44.5t45 27.5t43.5 10.5t46 1.5h398q109 0 199.5 -35t150 -96t92 -142t32.5 -172q0 -131 -69.5 -233t-194.5 -152l218 -380q44 -77 46 -115q0 -3 1 -7q0 -31 -17 -60q-19 -32 -54 -52q-39 -23 -76 -22q-36 0 -64 18t-42 37.5 t-37 61.5l-271 472h-199v-397q0 -52 -3.5 -75.5t-16.5 -49.5q-16 -31 -49.5 -49t-74.5 -18t-74 18.5t-50 48.5q-12 26 -15.5 49.5t-3.5 75.5zM456 820h270q93 0 149 53t56 139t-56 139t-149 53h-270v-384z" />
<glyph unicode="S" horiz-adv-x="1213" d="M67 229q0 54 38 94q32 32 80 31q42 0 116 -39q80 -42 139 -58.5t138 -16.5q125 0 192 48t67 135q0 79 -44 122q-38 36 -131 50l-175 26q-185 28 -282 121q-104 101 -105 286q0 198 137.5 320t370.5 122q177 0 330 -70q117 -54 117 -143q0 -47 -33 -88q-34 -39 -85 -39 q-43 0 -107 33q-109 57 -230 58q-108 0 -166 -51t-58 -126q0 -73 42 -111q48 -43 135 -56l171 -25q189 -28 280 -114q113 -105 112 -308q0 -137 -72 -238.5t-193.5 -152.5t-276.5 -51q-117 0 -196.5 17t-165.5 57q-76 36 -110.5 72.5t-34.5 94.5z" />
<glyph unicode="T" horiz-adv-x="1165" d="M51 1331q0 37 16.5 66.5t44.5 44.5q32 16 111 16h719q80 0 112 -16q28 -14 44 -44t16 -67t-16.5 -66.5t-43.5 -43.5q-32 -16 -112 -17h-216v-1020q0 -52 -3.5 -75.5t-15.5 -49.5q-16 -31 -49.5 -49t-74.5 -18t-74.5 18.5t-49.5 48.5q-12 26 -16 49.5t-4 75.5v1020h-216 q-80 0 -111 17q-28 14 -44.5 43.5t-16.5 66.5z" />
<glyph unicode="U" horiz-adv-x="1363" d="M145 500v774q0 52 4 75.5t16 49.5q16 31 49.5 49t74.5 18t74 -18t50 -49q12 -26 15.5 -49.5t3.5 -75.5v-764q0 -125 67 -196.5t183 -71.5t183 71.5t67 196.5v764q0 52 3.5 75.5t15.5 49.5q16 31 49.5 49t74.5 18t74.5 -18t49.5 -49q12 -26 16 -49.5t4 -75.5v-774 q0 -227 -154.5 -369.5t-382.5 -142.5t-382.5 142.5t-154.5 369.5z" />
<glyph unicode="V" horiz-adv-x="1171" d="M40 1361q7 50 49.5 77.5t86.5 27.5q51 0 84 -32q18 -18 28.5 -39t25.5 -66l272 -832l271 832q15 45 25.5 65.5t28.5 39.5q33 33 84 32q44 0 86.5 -27.5t50.5 -77.5q1 -8 1 -17q0 -38 -21 -100l-373 -1112q-26 -75 -57 -105q-39 -35 -96 -35q-58 0 -98 35q-32 31 -57 105 l-372 1112q-21 62 -20 100q0 9 1 17z" />
<glyph unicode="W" horiz-adv-x="1787" d="M55 1325q-1 6 0 13q0 17 3 35q9 39 48 66t87 27q57 0 90 -38q16 -18 24 -39t21 -71l193 -778l234 807q17 56 46 86q34 33 93 32.5t93 -32.5q29 -30 46 -86l234 -807l193 778q12 50 20.5 71t24.5 39q33 38 90 38q47 0 86 -27t49 -66q4 -18 3 -35v-13q-2 -23 -15 -72 l-276 -1106q-22 -88 -67 -122q-41 -33 -97 -33t-97 33q-40 32 -67 122l-220 758l-220 -758q-27 -91 -67 -122q-41 -33 -97 -33t-97 33q-45 35 -67 122l-276 1106q-13 49 -15 72z" />
<glyph unicode="X" horiz-adv-x="1162" d="M69 133q2 38 46 115l291 500l-270 462q-44 77 -46 115v7q0 31 17 60q19 32 54 52q39 23 76 22q28 0 49 -8t38.5 -27t28.5 -35t27 -46l201 -362l201 362q16 31 27 46.5t28.5 34.5t39 27t49.5 8q37 0 75 -22q35 -19 54 -52q17 -29 17 -60v-7q-2 -38 -46 -115l-270 -462 l292 -500q44 -77 46 -115v-7q0 -31 -17 -60q-19 -32 -54 -52q-39 -23 -76 -22q-36 0 -64 18t-42 37.5t-37 61.5l-223 398l-223 -398q-24 -42 -37.5 -61.5t-41.5 -37.5t-64 -18q-37 0 -76 22q-35 19 -53 52q-17 29 -18 60q1 4 1 7z" />
<glyph unicode="Y" horiz-adv-x="1105" d="M43 1341q1 33 20.5 62.5t54.5 46.5q33 16 66 16q37 0 67 -21q19 -14 32 -33t35 -64l235 -474l234 474q23 45 36 64t32 33q30 22 67 21q34 0 66 -16q35 -17 54.5 -46.5t20.5 -62.5v-5q0 -21 -7 -39q-8 -21 -30 -68l-330 -658v-387q0 -52 -3.5 -75.5t-15.5 -49.5 q-16 -31 -49.5 -49t-74.5 -18t-74.5 18.5t-49.5 48.5q-12 26 -15.5 49.5t-3.5 75.5v387l-330 658q-23 47 -30 68q-7 19 -7 39v5z" />
<glyph unicode="Z" horiz-adv-x="1158" d="M81 152q0 46 48 122l586 930h-434q-80 0 -112 17q-28 14 -44 43.5t-16 66.5t16 66.5t44 44.5q32 16 112 16h587q37 0 59 -2t50 -11.5t47 -29.5q44 -44 44 -108q0 -46 -48 -123l-586 -930h463q80 0 112 -16q28 -14 44 -44t16 -67t-16.5 -66.5t-43.5 -44.5 q-32 -16 -112 -16h-616q-37 0 -59 2t-50 12t-47 29q-44 44 -44 109z" />
<glyph unicode="[" horiz-adv-x="774" d="M163 10v1438q0 27 1 42.5t9.5 40t26 42t42 26.5t40.5 10t43 1h204q80 0 110 -16q58 -31 58 -105.5t-58 -105.5q-30 -15 -110 -15h-100v-1278h100q80 0 110 -15q58 -31 58 -105.5t-58 -105.5q-30 -15 -110 -16h-204q-27 0 -43 1t-40.5 10t-42 26.5t-26 42t-9.5 40t-1 42.5 z" />
<glyph unicode="\" horiz-adv-x="826" d="M38 1535q12 37 46.5 60t77.5 23q30 0 51 -10t36 -31.5t23 -38.5t18 -48l483 -1443q29 -86 15 -124q-12 -37 -46 -60t-77 -23q-30 0 -51.5 10t-36.5 31.5t-22.5 39t-17.5 47.5l-484 1443q-28 86 -15 124z" />
<glyph unicode="]" horiz-adv-x="774" d="M77 -30.5q0 74.5 58 105.5q30 15 110 15h100v1278h-100q-80 0 -110 15q-58 31 -58 106t58 105q30 15 110 16h205q27 0 42.5 -1t40 -10t42 -26.5t26 -42t9.5 -40t1 -42.5v-1438q0 -27 -1 -42.5t-9.5 -40t-26 -42t-42 -26.5t-40.5 -10t-42 -1h-205q-80 0 -110 16 q-58 31 -58 105.5z" />
<glyph unicode="^" d="M128 753q0 37 34 104l245 488q15 30 24.5 45.5t28 36.5t42 30t54.5 9t54.5 -9t42 -30t28 -37t25.5 -45l244 -488q34 -68 34 -104q0 -48 -40 -82.5t-90 -34.5q-37 0 -63 19q-30 22 -64 90l-171 344l-171 -344q-34 -69 -63 -90q-27 -19 -64 -19q-50 0 -90 34.5t-40 82.5z " />
<glyph unicode="_" horiz-adv-x="1232" d="M27 -288.5q0 62.5 49 87.5q28 14 90 15h901q62 0 90 -15q49 -26 49 -88t-49 -88q-28 -14 -90 -14h-901q-62 0 -90 14q-49 26 -49 88.5z" />
<glyph unicode="`" d="M289 1529q-5 59 55 98q29 18 63 19q32 0 58 -19q23 -16 56 -71l87 -139q38 -60 40 -92q5 -59 -55 -98q-30 -18 -62.5 -18.5t-58.5 18.5q-23 16 -56 70l-87 140q-38 60 -40 92z" />
<glyph unicode="a" horiz-adv-x="1090" d="M70 324q0 135 94 222t274 87h248v53q0 87 -46 127.5t-141 40.5q-85 0 -171 -51q-47 -28 -88 -28q-47 0 -76 36q-30 36 -30 80q0 75 99 127q117 61 270 61q223 0 336 -94.5t113 -282.5v-529q0 -52 -3.5 -74.5t-15.5 -45.5q-14 -28 -45.5 -44.5t-69.5 -16.5q-52 0 -85 31 q-27 25 -39 70q-59 -58 -117 -81.5t-147 -23.5q-178 0 -272 96q-88 88 -88 240zM326 328q0 -57 40.5 -89t120.5 -32q54 0 90 10t68 41q24 22 32.5 52t8.5 83v58h-203q-157 0 -157 -123z" />
<glyph unicode="b" horiz-adv-x="1145" d="M148 173v1111q0 84 18 119q32 63 116 63t115 -63q17 -35 18 -119v-311q92 106 258 106q165 0 258 -96q37 -38 60.5 -87t33.5 -112t13 -117t3 -132q0 -80 -3 -134.5t-13 -117.5t-33.5 -112t-60.5 -87q-93 -96 -259 -96q-87 0 -149.5 25.5t-115.5 84.5q-12 -51 -39 -75 q-33 -31 -85 -31q-38 0 -69.5 17t-45.5 44q-12 23 -16 45.5t-4 74.5zM415 535q0 -57 3 -98.5t14 -83t30.5 -67t53.5 -41.5t81 -16q46 0 79 16t51.5 41.5t30 67t14.5 82.5t3 99q0 73 -6 120.5t-24 93t-55.5 67.5t-94.5 22t-94.5 -22t-55.5 -67.5t-24 -93t-6 -120.5z" />
<glyph unicode="c" horiz-adv-x="985" d="M96 534.5q0 124.5 30 222t77 157t111.5 98t128 53t131.5 14.5q120 0 209 -52q129 -66 129 -150q0 -47 -38 -87q-33 -35 -81 -35q-42 0 -93 37q-65 46 -128 46q-94 -2 -150 -70q-59 -74 -60 -233q0 -162 60 -236q57 -70 150 -70q67 0 128 45q52 39 93 39q48 0 81 -35 q38 -38 38 -88q0 -81 -129 -151q-94 -51 -211 -51q-69 0 -131.5 14.5t-127 53.5t-111 99t-76.5 157.5t-30 222z" />
<glyph unicode="d" horiz-adv-x="1145" d="M104 535q0 79 3.5 132.5t13.5 116.5t33.5 112t60.5 87q93 96 258 96q166 0 258 -106v311q0 84 18 119q32 63 115.5 63t115.5 -63q17 -35 17 -119v-1111q0 -52 -3.5 -74.5t-15.5 -45.5q-14 -28 -45.5 -44.5t-69.5 -16.5q-52 0 -85 31q-27 25 -39 75q-53 -59 -115.5 -84.5 t-149.5 -25.5q-166 0 -259 96q-37 38 -60.5 87t-33.5 112t-13.5 117.5t-3.5 134.5zM371 535q0 -57 3 -98.5t14 -83t30 -67t52 -41.5t79 -16q47 0 81 16t53 41.5t30.5 67t14.5 82.5t3 99q0 73 -6 120.5t-24 93t-55.5 67.5t-94.5 22t-94.5 -22t-55.5 -67.5t-24 -93t-6 -120.5z " />
<glyph unicode="e" horiz-adv-x="1117" d="M96 534q0 257 126.5 401t337.5 144q210 0 333.5 -133.5t130.5 -342.5v-8q0 -75 -36 -111q-15 -15 -37 -23t-37.5 -9t-42.5 -1h-513q0 -106 61.5 -172t174.5 -66q108 0 184 57q56 40 100 40q40 0 73.5 -33t33.5 -78q0 -68 -104 -138q-109 -74 -291 -73q-80 0 -148.5 14.5 t-134 53t-110.5 99t-73 157.5t-28 222zM358 633h405q-3 70 -24 116q-23 50 -68.5 79.5t-110 29.5t-111 -29.5t-67.5 -79.5q-23 -49 -24 -116z" />
<glyph unicode="f" horiz-adv-x="719" d="M38 934.5q0 62.5 49 88.5q28 14 90 14h28v131q0 60 17.5 113.5t53 97t96.5 69.5t141 26h14q75 0 110 -19q53 -28 53 -95q0 -69 -53 -95q-27 -13 -80 -17q-86 -5 -86 -94v-117h80q62 0 90 -14q49 -26 49 -88.5t-49 -87.5q-28 -14 -90 -14h-80v-659q0 -84 -17 -119 q-32 -63 -116 -63t-116 63q-17 35 -17 119v659h-28q-62 0 -90 14q-49 25 -49 87.5z" />
<glyph unicode="g" horiz-adv-x="1135" d="M104 563q0 164 20 258.5t89 163.5q94 94 256 94q85 0 145.5 -26t113.5 -86q12 52 40 77q33 31 85 31q38 0 69 -17t46 -44q12 -23 15.5 -45.5t3.5 -74.5v-855q0 -195 -128.5 -318.5t-340.5 -123.5q-160 0 -268 59q-106 59 -107 135q0 48 34 81t73 33q43 0 99 -34 q82 -49 158 -49t126 33.5t69 81.5t19 106v109q-95 -106 -254 -107q-160 0 -254 94q-69 69 -89 164.5t-20 259.5zM371 563q0 -48 3 -83.5t13 -74t28 -63t51 -40t79 -15.5t78.5 15.5t51 40.5t29.5 63t14 73.5t3 83.5t-3 83.5t-14 73.5t-29.5 62t-51 40t-78.5 16t-79 -16 t-51 -40t-28 -62.5t-13 -73.5t-3 -83z" />
<glyph unicode="h" horiz-adv-x="1173" d="M148 174v1110q0 84 18 119q32 63 116 63t115 -63q17 -35 18 -119v-315q108 111 260 110q158 0 252 -94q60 -60 84 -134t24 -169v-508q0 -84 -17 -119q-32 -63 -116 -63t-116 63q-17 35 -17 119v471q0 99 -51.5 146t-124.5 47t-125.5 -47t-52.5 -146v-471q0 -84 -18 -119 q-32 -63 -115.5 -63t-115.5 63q-18 35 -18 119z" />
<glyph unicode="i" horiz-adv-x="563" d="M128 1367.5q0 63.5 45 108.5t108.5 45t108.5 -45t45 -108.5t-45 -109t-108.5 -45.5t-108.5 45.5t-45 109zM148 174v688q0 84 18 119q32 63 116 63t115 -63q17 -35 18 -119v-688q0 -84 -18 -119q-32 -63 -115.5 -63t-115.5 63q-18 35 -18 119z" />
<glyph unicode="j" horiz-adv-x="565" d="M-71 -286q0 69 54 96q27 13 79 16q86 5 86 94v942q0 84 18 119q32 63 116 63t115 -63q17 -35 18 -119v-956q0 -60 -17.5 -113.5t-53.5 -97t-97 -69t-141 -25.5h-14q-74 0 -109 18q-54 27 -54 95zM128 1367.5q0 63.5 45 108.5t108.5 45t108.5 -45t45 -108.5t-45 -109 t-108.5 -45.5t-108.5 45.5t-45 109z" />
<glyph unicode="k" horiz-adv-x="1078" d="M148 174v1110q0 84 18 119q32 63 116 63t115 -63q17 -35 18 -119v-655l323 369q38 43 62.5 60t56.5 17q47 0 83 -32q42 -36 42 -90q0 -26 -13.5 -50.5t-47.5 -63.5l-198 -225l246 -388q45 -73 45 -110q0 -62 -63 -102q-36 -23 -71 -22q-40 0 -67 22.5t-60 76.5l-215 341 l-123 -141v-117q0 -84 -18 -119q-32 -63 -115.5 -63t-115.5 63q-18 35 -18 119z" />
<glyph unicode="l" horiz-adv-x="652" d="M140 305v979q0 84 18 119q32 63 115.5 63t115.5 -63q17 -35 18 -119v-965q0 -89 86 -94q53 -3 79 -16q53 -27 54 -95q0 -68 -54 -96q-36 -18 -109 -18h-14q-80 0 -141 25.5t-97 69t-53.5 97t-17.5 113.5z" />
<glyph unicode="m" horiz-adv-x="1794" d="M148 174v720q0 52 4 74.5t16 45.5q14 28 45.5 44.5t69.5 16.5q52 0 85 -31q28 -26 40 -77q50 54 120.5 83t146.5 29q183 0 282 -135q68 71 144.5 103t175.5 32q80 0 148.5 -24.5t113.5 -69.5q117 -117 117 -303v-508q0 -84 -18 -119q-32 -63 -115.5 -63t-115.5 63 q-17 35 -17 119v471q0 99 -52 146t-125 47q-72 0 -125 -46t-53 -141v-477q0 -84 -17 -119q-32 -63 -116 -63t-116 63q-17 35 -17 119v471q0 99 -51.5 146t-124.5 47t-125.5 -47t-52.5 -146v-471q0 -84 -18 -119q-32 -63 -115.5 -63t-115.5 63q-18 35 -18 119z" />
<glyph unicode="n" horiz-adv-x="1173" d="M148 174v720q0 52 4 74.5t16 45.5q14 28 45.5 44.5t69.5 16.5q52 0 85 -31q28 -26 40 -77q49 54 120 83t147 29q158 0 252 -94q60 -60 84 -134t24 -169v-508q0 -84 -17 -119q-32 -63 -116 -63t-116 63q-17 35 -17 119v471q0 99 -51.5 146t-124.5 47t-125.5 -47 t-52.5 -146v-471q0 -84 -18 -119q-32 -63 -115.5 -63t-115.5 63q-18 35 -18 119z" />
<glyph unicode="o" horiz-adv-x="1114" d="M104 533.5q0 152.5 26.5 246.5t95.5 168q125 131 331 131t331 -131q70 -74 96 -168t26 -246.5t-26.5 -246.5t-95.5 -168q-125 -131 -331 -131t-331 131q-70 74 -96 168t-26 246.5zM371 533.5q0 -97.5 12 -159.5t50 -99q46 -46 124 -46t124 46q38 37 50 99t12 159.5 t-12 159.5t-50 99q-46 46 -124 46t-124 -46q-38 -37 -50 -99t-12 -159.5z" />
<glyph unicode="p" horiz-adv-x="1145" d="M148 -217v1111q0 52 4 74.5t16 45.5q14 28 45.5 44.5t69.5 16.5q52 0 85 -31q27 -25 39 -75q53 59 115.5 84.5t149.5 25.5q166 0 259 -96q37 -38 60.5 -87t33.5 -112t13 -117.5t3 -134.5q0 -79 -3 -132.5t-13 -116.5t-33.5 -112t-60.5 -87q-93 -96 -258 -96 q-166 0 -258 106v-311q0 -84 -18 -119q-32 -63 -115.5 -63t-115.5 63q-18 35 -18 119zM415 532q0 -73 6 -120.5t24 -93t55.5 -67.5t94.5 -22t94.5 22t55.5 67.5t24 93.5t6 120q0 57 -3 98.5t-14.5 83t-30 67t-51.5 41.5t-79 16q-47 0 -81 -16t-53.5 -41.5t-30.5 -67t-14 -83 t-3 -98.5z" />
<glyph unicode="q" horiz-adv-x="1145" d="M104 532q0 80 3.5 134.5t13.5 117.5t33.5 112t60.5 87q93 96 259 96q87 0 149.5 -25.5t115.5 -84.5q12 51 39 75q33 31 85 31q38 0 69.5 -17t45.5 -44q12 -23 15.5 -45.5t3.5 -74.5v-1111q0 -84 -17 -119q-32 -63 -116 -63t-115 63q-17 35 -18 119v311 q-92 -106 -258 -106q-165 0 -258 96q-37 38 -60.5 87t-33.5 112t-13.5 116.5t-3.5 132.5zM371 532q0 -73 6 -120.5t24 -93t55.5 -67.5t94.5 -22t94.5 22t55.5 67.5t24 93.5t6 120q0 57 -3 98.5t-14.5 83t-30.5 67t-53 41.5t-81 16q-46 0 -79 -16t-52 -41.5t-30 -67t-14 -83 t-3 -98.5z" />
<glyph unicode="r" horiz-adv-x="934" d="M148 174v720q0 52 4 74.5t16 45.5q14 28 45.5 44.5t69.5 16.5q52 0 85 -31q32 -29 40 -80q41 49 109.5 82t144.5 33q110 0 184 -49q68 -45 67 -111q0 -57 -40 -98q-37 -37 -89 -37q-37 0 -91 28q-53 28 -101 28q-73 0 -125 -51t-52 -146v-469q0 -84 -18 -119 q-32 -63 -115.5 -63t-115.5 63q-18 35 -18 119z" />
<glyph unicode="s" horiz-adv-x="1025" d="M63 185q0 56 43 91q33 27 71 27q36 0 88 -31q105 -62 237 -62q80 0 134 29t54 86q0 88 -112 99l-168 15q-313 30 -314 301q0 81 34 146t92 106.5t131.5 64t156.5 22.5q152 0 275 -51q57 -23 85 -52q28 -31 28 -75q0 -47 -35 -82q-32 -32 -75 -32q-30 0 -77 23 q-116 53 -207 53q-74 0 -112.5 -30t-38.5 -75t28 -66.5t83 -26.5l167 -17q157 -14 237.5 -94.5t80.5 -217.5q0 -169 -126.5 -258.5t-324.5 -89.5q-124 0 -210.5 23t-159.5 72q-65 43 -65 102z" />
<glyph unicode="t" horiz-adv-x="749" d="M36 933.5q0 62.5 49 88.5q28 14 90 14h27v143q0 84 17 118q32 63 116 63.5t116 -63.5q17 -35 17 -118v-143h80q62 0 90 -14q49 -26 49 -88.5t-49 -87.5q-28 -14 -90 -15h-80v-512q0 -89 86 -94q53 -3 80 -16q53 -27 53 -95t-53 -96q-36 -18 -110 -18h-14q-80 0 -141 25.5 t-96.5 69t-53 97t-17.5 113.5v526h-27q-62 0 -90 15q-49 25 -49 87.5z" />
<glyph unicode="u" horiz-adv-x="1173" d="M138 385v508q0 84 18 119q32 63 115.5 63t115.5 -63q17 -35 17 -119v-471q0 -99 52 -146t124.5 -47t125.5 47t53 146v471q0 84 17 119q32 63 116 63t116 -63q17 -35 17 -119v-720q0 -52 -3.5 -74.5t-15.5 -45.5q-14 -28 -45.5 -44.5t-69.5 -16.5q-52 0 -85 31 q-28 26 -40 77q-49 -54 -120.5 -83t-146.5 -29q-158 0 -252 94q-60 60 -84.5 134t-24.5 169z" />
<glyph unicode="v" horiz-adv-x="940" d="M47 992q12 37 46.5 60t77.5 23q30 0 51.5 -9.5t36 -31t22.5 -39t18 -48.5l171 -519l171 519q10 31 18 48.5t22.5 39t36 31t51.5 9.5q43 0 77.5 -23t46.5 -60q4 -12 4 -29q0 -36 -19 -95l-250 -734q-27 -79 -61 -108q-38 -34 -97 -34t-97 34q-34 30 -61 108l-250 734 q-20 59 -19 95q0 17 4 29z" />
<glyph unicode="w" horiz-adv-x="1525" d="M50 984q9 39 44.5 65t78.5 26q51 0 85 -34q15 -16 24.5 -35.5t21.5 -64.5l151 -531l166 529q26 80 56 107q33 30 86 29.5t86 -29.5q31 -27 56 -107l166 -529l151 531q12 45 21 64.5t25 35.5q34 34 85 34q43 0 78 -26t45 -65q3 -11 2 -25q0 -34 -16 -87l-217 -734 q-25 -84 -59 -112q-42 -34 -96.5 -34t-96.5 34q-34 28 -59 112l-171 538l-171 -538q-26 -85 -60 -112q-42 -34 -96 -34t-96 34q-35 29 -59 112l-218 734q-15 52 -15 87q0 14 2 25z" />
<glyph unicode="x" horiz-adv-x="946" d="M69 116q0 42 45 110l204 313l-196 302q-45 69 -45 110q0 62 62 102q36 23 72 22q40 0 66.5 -22.5t60.5 -76.5l136 -221l135 221q33 53 59.5 76t67.5 23q36 0 72 -22q62 -39 62 -102q0 -40 -45 -110l-194 -304l202 -311q45 -69 45 -110q0 -62 -63 -102q-36 -23 -72 -22 q-40 0 -66.5 22.5t-60.5 76.5l-142 234l-144 -234q-34 -54 -60.5 -76.5t-66.5 -22.5q-36 0 -72 22q-62 40 -62 102z" />
<glyph unicode="y" horiz-adv-x="940" d="M47 992q12 37 46.5 60t77.5 23q30 0 51.5 -9.5t36 -31t22.5 -39t18 -48.5l170 -528l172 528q10 31 18 48.5t22.5 39t36 31t51.5 9.5q43 0 77.5 -23t46.5 -60q4 -12 4 -29q0 -36 -19 -95l-360 -1043q-27 -81 -81 -136q-83 -84 -218 -84q-71 0 -102 16q-58 31 -58.5 105.5 t58.5 105.5q25 12 65 12q42 0 71 21.5t47 77.5l38 113l-276 812q-20 59 -19 95q0 17 4 29z" />
<glyph unicode="z" horiz-adv-x="963" d="M60 113q0 34 11 59t44 69l428 584h-289q-80 0 -110 16q-58 31 -58 105.5t58 105.5q30 15 110 15h483q77 0 111 -19q27 -14 40.5 -40t13.5 -54q0 -34 -10.5 -59t-43.5 -69l-432 -584h319q80 0 110 -16q58 -31 58 -105.5t-58 -105.5q-30 -15 -110 -15h-510q-77 0 -110 19 q-27 14 -41 40t-14 54z" />
<glyph unicode="{" horiz-adv-x="935" d="M81 729q0 53 33 86q15 15 36.5 22t71.5 16q41 6 67 34q36 36 36 123v297q0 141 84 226q76 76 220 76h64q76 0 107 -16q26 -12 42 -40t16 -63q0 -36 -16 -63.5t-41 -41.5q-33 -16 -81 -16q-70 0 -97 -27q-32 -31 -32 -132v-276q0 -52 -13.5 -90.5t-39 -61t-43.5 -32.5 t-45 -21q28 -11 45.5 -21t43 -32.5t39 -60.5t13.5 -91v-276q0 -101 32 -132q28 -27 97 -27q48 0 81 -16q26 -13 41.5 -41t15.5 -64q0 -35 -16.5 -63t-41.5 -40q-31 -15 -107 -16h-64q-144 0 -220 76q-84 85 -84 227v297q0 87 -36 122q-26 28 -67 34q-50 9 -71.5 16t-36.5 22 q-33 33 -33 86z" />
<glyph unicode="|" horiz-adv-x="716" d="M225 23v1413q0 84 18 118q32 63 115.5 63.5t115.5 -63.5q17 -35 18 -118v-1413q0 -84 -18 -119q-32 -63 -116 -63.5t-115 63.5q-18 35 -18 119z" />
<glyph unicode="}" horiz-adv-x="935" d="M78 -32q0 36 16 63.5t41 41.5q33 16 81 16q70 0 97 27q32 31 32 132v276q0 52 13.5 90.5t39 61t43.5 32.5t45 21q-28 11 -45.5 21t-43 32.5t-39 61t-13.5 90.5v276q0 101 -32 132q-28 27 -97 27q-48 0 -81 16q-26 13 -41.5 41t-15.5 64q0 35 16.5 63t41.5 40 q31 15 107 16h64q144 0 220 -76q84 -85 84 -226v-297q0 -87 36 -123q26 -28 67 -34q50 -9 71.5 -16t36.5 -22q33 -33 33 -86t-33 -86q-15 -15 -36.5 -22t-71.5 -16q-41 -6 -67 -34q-36 -36 -36 -122v-297q0 -141 -84 -227q-76 -76 -220 -76h-64q-76 0 -107 16q-26 12 -42 40 t-16 63z" />
<glyph unicode="~" horiz-adv-x="1242" d="M88 557q0 60 68 120q63 54 122 76t136 22q111 0 238 -67q95 -50 167 -51q70 0 134 54q41 32 81 31q51 0 88 -44q32 -36 32 -80q0 -61 -69 -119q-62 -55 -121 -77t-136 -22q-110 0 -239 68q-95 50 -167 50q-67 0 -134 -53q-39 -32 -80 -32q-52 0 -89 43q-31 37 -31 81z " />
<glyph unicode="&#xa1;" horiz-adv-x="710" d="M157 913.5q0 65.5 47.5 112.5t114 47t113 -47t46.5 -113q0 -67 -47 -114t-113 -47q-67 0 -114 48t-47 113.5zM175 -207v632q0 52 3.5 75.5t16.5 49.5q16 31 49.5 49t74 18t74 -18t49.5 -49q12 -26 16 -49.5t4 -75.5v-632q0 -52 -3.5 -75.5t-16.5 -49.5q-16 -31 -49.5 -49 t-74 -18t-74 18.5t-49.5 48.5q-12 26 -16 49.5t-4 75.5z" />
<glyph unicode="&#xa2;" horiz-adv-x="985" d="M96 750q0 102 20.5 187t54 143t81 100.5t97.5 66t108 35.5v16q0 80 15 110q31 58 105.5 58t105.5 -58q15 -30 15 -110v-19q42 -13 85 -37q129 -69 129 -150q0 -47 -38 -87q-33 -35 -81 -35q-42 0 -93 37q-65 46 -128 46q-94 -2 -150 -70q-59 -74 -60 -233q0 -162 60 -236 q57 -70 150 -70q67 0 128 45q52 39 93 39q48 0 81 -35q38 -38 38 -87q0 -81 -129 -152q-39 -22 -85 -36v-58q0 -80 -15 -110q-31 -58 -105.5 -58t-105.5 58q-15 30 -15 110v54q-73 15 -134 50.5t-114 97t-83 161t-30 227.5z" />
<glyph unicode="&#xa3;" horiz-adv-x="1241" d="M91 711q0 65 49 88q28 14 90 14h29v166q0 117 42.5 212t114.5 155t164.5 92t195.5 32q168 0 288 -76q85 -54 85 -136q0 -44 -25 -78q-34 -47 -82 -47q-39 0 -96 32q-85 51 -169 52q-108 0 -169.5 -63.5t-61.5 -186.5v-154h139q61 0 89 -14q49 -24 49 -88q0 -62 -49 -88 q-28 -14 -89 -15h-139v-354h440q80 0 112 -16q28 -14 44 -44t16 -67t-16.5 -66.5t-43.5 -44.5q-32 -16 -112 -16h-553q-29 0 -46 1.5t-43.5 11t-44.5 27.5t-27.5 44.5t-11 43.5t-1.5 46v434h-29q-62 0 -90 15q-49 26 -49 88z" />
<glyph unicode="&#xa4;" horiz-adv-x="1370" d="M132 184q11 36 66 90l71 72q-67 113 -66 240q0 125 66 237l-71 72q-54 54 -66 90q-19 63 35 118q57 55 119 35q22 -7 39 -20t50 -46l71 -71q112 66 238 66q129 0 240 -67l71 72q33 33 50.5 45.5t38.5 20.5q61 20 119 -35q54 -54 35 -118q-11 -36 -66 -90l-71 -72 q65 -113 64 -237q0 -128 -65 -240l72 -72q54 -54 66 -90q19 -63 -35 -117q-57 -55 -119 -35q-22 7 -39 20t-50 45l-72 72q-110 -65 -239 -65q-128 0 -238 65l-71 -72q-33 -33 -50.5 -45.5t-38.5 -19.5q-61 -20 -119 35q-54 54 -35 117zM444 585.5q0 -100.5 70 -170 t170 -69.5t171 70t71 169.5t-71 169.5t-171 70t-170 -69.5t-70 -170z" />
<glyph unicode="&#xa5;" horiz-adv-x="1146" d="M80 1341q1 33 20.5 62.5t54.5 46.5q33 16 66 16q37 0 67 -21q19 -14 32 -33t35 -64l218 -443l219 443q23 45 35.5 64t31.5 33q30 22 67 21q34 0 66 -16q35 -17 54.5 -46.5t20.5 -62.5q1 -24 -6.5 -44.5t-30.5 -67.5l-172 -350h51q62 0 90 -15q49 -26 49.5 -88t-49.5 -88 q-28 -14 -90 -14h-154l-38 -74v-88h192q62 0 90 -14q49 -26 49.5 -88.5t-49.5 -87.5q-28 -14 -90 -15h-192v-123q0 -52 -3.5 -75.5t-16.5 -49.5q-16 -31 -49.5 -49t-74.5 -18t-74 18.5t-49 48.5q-12 26 -16 49.5t-4 75.5v123h-192q-62 0 -91 15q-49 26 -49 88t49 88 q28 14 91 14h192v88l-38 74h-154q-62 0 -91 14q-49 26 -49 88.5t49 87.5q28 14 91 15h51l-172 350q-23 47 -30.5 67.5t-6.5 44.5z" />
<glyph unicode="&#xa6;" horiz-adv-x="716" d="M225 23v368q0 84 18 119q32 63 115.5 63t115.5 -63q17 -35 18 -119v-368q0 -84 -18 -119q-32 -63 -116 -63.5t-115 63.5q-18 35 -18 119zM225 1067v369q0 84 18 118q32 63 115.5 63.5t115.5 -63.5q17 -35 18 -118v-369q0 -84 -18 -119q-32 -63 -116 -63t-115 63 q-18 35 -18 119z" />
<glyph unicode="&#xa7;" horiz-adv-x="1092" d="M125 531q0 108 57.5 191t128.5 123q-156 82 -155 270q0 148 101.5 251.5t290.5 103.5q221 0 323 -128q63 -79 64 -161q0 -42 -17 -74q-32 -58 -104 -58q-58 0 -93 34q-23 23 -33 67q-19 97 -140 97q-68 0 -105 -32t-37 -89q0 -52 32.5 -85.5t103.5 -56.5l122 -40 q157 -51 231 -139t74 -241q0 -108 -57 -190.5t-127 -121.5q165 -82 165 -281q0 -91 -34 -164t-92 -118t-129.5 -68.5t-149.5 -23.5q-180 0 -293 100q-97 86 -97 195q0 44 17 76q14 27 43 43t65 16q55 0 88 -33q24 -24 32 -69q22 -99 145 -99q72 0 110.5 35t38.5 98 q0 104 -142 153l-123 41q-158 52 -231 138t-73 240zM381 548q0 -85 47 -135q45 -47 119 -47t119 47q47 50 47 135q0 87 -47 135q-44 47 -119 47t-119 -47q-47 -48 -47 -135z" />
<glyph unicode="&#xa8;" d="M187 1366q0 57 40.5 97t97 40t97 -40t40.5 -97t-40.5 -97t-97 -40t-97 40t-40.5 97zM650 1366q0 57 40.5 97t97 40t97 -40t40.5 -97t-40.5 -97t-97 -40t-97 40t-40.5 97z" />
<glyph unicode="&#xa9;" horiz-adv-x="1728" d="M123 729q0 202 99.5 372.5t270 269.5t372 99t372 -99t270 -269.5t99.5 -372.5t-99.5 -372.5t-270 -269.5t-372 -99t-372 99t-270 269.5t-99.5 372.5zM295 729q0 -163 75 -296t206 -208t288.5 -75t288 75t206 208t75.5 296t-75.5 296t-206 208.5t-288 75.5t-288.5 -75.5 t-206 -208.5t-75 -296zM527 729q0 183 100 284t254 101q130 0 203 -71q37 -37 37 -69q0 -34 -21 -54q-23 -23 -54 -23q-29 0 -66 29q-48 35 -99 35q-89 0 -136 -61t-47 -170.5t47 -170.5t136 -61q51 0 99 34q37 29 66 29q32 0 54 -22q22 -20 21 -55q0 -33 -37 -69 q-74 -71 -203 -71q-154 0 -254 101t-100 284z" />
<glyph unicode="&#xaa;" horiz-adv-x="928" d="M100 864q0 108 75 176t218 68h202v54q0 70 -39 102.5t-122 32.5q-45 0 -76 -10.5t-67 -35.5q-38 -25 -70 -24q-34 0 -53 22q-22 25 -22 62q0 61 91 109q81 44 205 44q173 0 262 -74.5t89 -220.5v-426q0 -60 -15 -86q-25 -48 -85 -48q-74 0 -94 72q-50 -47 -95 -65.5 t-116 -18.5q-140 0 -217 77q-71 70 -71 190zM292 869q0 -102 137 -102q91 0 132 41q34 34 34 112v53h-176q-63 0 -95 -27.5t-32 -76.5z" />
<glyph unicode="&#xab;" horiz-adv-x="1316" d="M69 554l318 318q33 33 50.5 46t38.5 20q61 20 119 -35q54 -54 35 -118q-11 -36 -66 -90l-141 -141l141 -141q54 -54 66 -90q19 -63 -35 -118q-57 -55 -119 -35q-22 7 -39 20t-50 46zM638 554l318 318q33 33 50.5 46t39.5 20q61 20 118 -35q54 -54 35 -118 q-11 -36 -65 -90l-142 -141l142 -141q54 -54 65 -90q19 -63 -35 -118q-57 -55 -118 -35q-22 7 -39.5 20t-50.5 46z" />
<glyph unicode="&#xac;" d="M86 609.5q0 74.5 58 105.5q30 15 110 15h601q27 0 42.5 -1t40.5 -9.5t42 -26t26 -42t10 -40.5t1 -43v-213q0 -80 -16 -109q-31 -58 -105.5 -58.5t-104.5 58.5q-15 30 -16 109v133h-521q-80 0 -110 16q-58 31 -58 105.5z" />
<glyph unicode="&#xad;" horiz-adv-x="872" d="M113 584.5q0 74.5 58 105.5q30 15 110 16h311q80 0 109 -16q58 -31 58.5 -105.5t-58.5 -105.5q-30 -15 -109 -15h-311q-80 0 -110 15q-58 31 -58 105.5z" />
<glyph unicode="&#xae;" horiz-adv-x="1728" d="M123 729q0 202 99.5 372.5t270 269.5t372 99t372 -99t270 -269.5t99.5 -372.5t-99.5 -372.5t-270 -269.5t-372 -99t-372 99t-270 269.5t-99.5 372.5zM295 729q0 -163 75 -296t206 -208t288.5 -75t288 75t206 208t75.5 296t-75.5 296t-206 208.5t-288 75.5t-288.5 -75.5 t-206 -208.5t-75 -296zM605 460v542q0 56 24.5 81t82.5 25h201q113 0 182.5 -69.5t69.5 -168.5q0 -75 -37.5 -126t-97.5 -74l103 -175q24 -43 26 -70q3 -41 -43 -69q-23 -13 -44 -13q-27 0 -44 16.5t-39 53.5l-133 230h-80v-183q0 -53 -12 -77q-20 -40 -74 -40q-52 0 -73 40 q-12 24 -12 77zM776 775h116q45 0 73.5 25.5t28.5 69.5t-28 69.5t-74 25.5h-116v-190z" />
<glyph unicode="&#xaf;" d="M227 1382.5q0 62.5 49 87.5q28 14 91 15h378q62 0 91 -15q49 -26 49 -88t-49 -88q-28 -14 -91 -14h-378q-62 0 -91 14q-49 26 -49 88.5z" />
<glyph unicode="&#xb0;" horiz-adv-x="977" d="M111 1111q0 157 110.5 267.5t267 110.5t267 -110.5t110.5 -267.5t-110.5 -267.5t-267 -110.5t-267 110.5t-110.5 267.5zM327 1111q0 -70 47 -118t114.5 -48t114.5 48t47 118t-47 118t-114.5 48t-114.5 -48t-47 -118z" />
<glyph unicode="&#xb1;" d="M93 119q0 75 59 105q30 15 109 16h588q80 0 109 -16q58 -31 58.5 -105.5t-58.5 -105.5q-30 -15 -109 -15h-588q-80 0 -109 15q-59 31 -59 106zM95 824.5q0 74.5 59 105.5q30 15 109 15h172v172q0 80 16 110q31 58 105.5 58t105.5 -58q15 -30 15 -110v-172h172 q80 0 109 -15q58 -31 58.5 -105.5t-58.5 -105.5q-30 -15 -109 -16h-172v-172q0 -80 -15 -109q-31 -58 -106 -58t-105 58q-15 30 -16 109v172h-172q-80 0 -109 16q-59 31 -59 105.5z" />
<glyph unicode="&#xb2;" horiz-adv-x="679" d="M62 679q0 26 11.5 45.5t35.5 48.5l271 322q53 62 53 112q0 39 -24 62.5t-65 23.5q-68 0 -93 -70q-14 -36 -36 -52q-20 -16 -53 -16q-51 0 -76 37q-15 26 -15 56q0 72 69 140q82 79 204 78q131 0 206.5 -67.5t75.5 -191.5q0 -59 -22.5 -104t-65.5 -94l-219 -251h199 q52 0 76 -14q41 -23 41 -73q0 -52 -41 -74q-24 -13 -76 -13h-336q-69 0 -94 26q-26 28 -26 69z" />
<glyph unicode="&#xb3;" horiz-adv-x="679" d="M66 796q0 45 22 68q29 31 70 31q33 0 55 -17q23 -19 31 -52q20 -78 99 -77q43 0 69.5 26.5t26.5 74.5q0 43 -27 70.5t-70 28.5q-40 2 -58 21q-23 23 -23 60q0 40 23 63q22 22 58 21q41 0 64.5 26.5t23.5 61.5q0 43 -25 67t-61 24q-63 0 -86 -59q-14 -37 -27 -52 q-18 -27 -61 -27q-40 0 -65.5 27.5t-25.5 69.5q0 77 59 133q84 81 206 81q121 0 199 -72t78 -185q0 -118 -93 -173q103 -67 104 -192q0 -129 -83 -199t-206 -70q-136 0 -218 82q-59 58 -59 139z" />
<glyph unicode="&#xb4;" d="M466 1325q2 32 40 92l87 139q34 54 56 71q27 18 59 19q34 0 62 -19q60 -39 55 -98q-2 -32 -40 -92l-87 -140q-34 -54 -56 -70q-26 -18 -58.5 -18.5t-62.5 18.5q-60 39 -55 98z" />
<glyph unicode="&#xb5;" horiz-adv-x="1183" d="M148 -217v1110q0 84 18 119q32 63 116 63t115 -63q17 -35 18 -119v-482q0 -93 52 -137.5t124 -44.5q73 0 125.5 47t52.5 146v471q0 84 17 119q32 63 116 63t116 -63q17 -35 17 -119v-720q0 -52 -3.5 -74.5t-15.5 -45.5q-14 -28 -45.5 -44.5t-69.5 -16.5q-52 0 -85 31 q-28 26 -40 76q-50 -54 -120.5 -82.5t-146.5 -28.5q-57 0 -94 28v-233q0 -84 -18 -119q-32 -63 -115.5 -63t-115.5 63q-18 35 -18 119z" />
<glyph unicode="&#xb6;" horiz-adv-x="1369" d="M71 1042q0 198 128.5 307t344.5 109h493q27 0 43 -1t40.5 -9.5t42 -26t26 -42t9.5 -40.5t1 -43v-1513q0 -84 -17 -119q-32 -63 -116 -63t-116 63q-17 35 -17 119v1421h-206v-1421q0 -84 -17 -119q-32 -63 -116 -63t-116 63q-17 35 -17 119v848q-101 0 -191 54.5 t-144.5 150t-54.5 206.5z" />
<glyph unicode="&#xb7;" horiz-adv-x="669" d="M156 584.5q0 74.5 52 127t127 52.5t127 -52.5t52 -127t-52 -126.5t-127 -52t-127 52t-52 126.5z" />
<glyph unicode="&#xb8;" horiz-adv-x="1114" d="M299 -417q2 32 40 92l87 140q34 54 56 70q26 18 58.5 18.5t62.5 -18.5q60 -39 55 -98q-2 -32 -40 -92l-87 -139q-34 -54 -56 -71q-27 -18 -58 -19q-34 0 -63 19q-60 39 -55 98z" />
<glyph unicode="&#xb9;" horiz-adv-x="679" d="M75 1191q8 26 49 67l157 157q51 51 107 51q45 0 75 -27q31 -30 31 -99v-630q0 -59 -14 -86q-24 -48 -85 -48.5t-85 48.5q-13 27 -13 86v455l-40 -40q-42 -41 -68 -49q-48 -15 -88.5 26t-25.5 89z" />
<glyph unicode="&#xba;" horiz-adv-x="944" d="M118 1033q0 123 23.5 200.5t79.5 133.5q97 97 251 97t251 -97q56 -56 79.5 -133.5t23.5 -200.5t-23.5 -200t-79.5 -134q-97 -97 -251 -97t-251 97q-56 56 -79.5 133.5t-23.5 200.5zM315 1033q0 -81 9 -130.5t40 -80.5q42 -44 108.5 -44t108.5 44q31 31 39.5 80.5 t8.5 130.5t-9 130.5t-39 80.5q-42 44 -108.5 44t-108.5 -44q-31 -31 -40 -80.5t-9 -130.5z" />
<glyph unicode="&#xbb;" horiz-adv-x="1316" d="M118 323q11 36 65 90l142 141l-142 141q-54 54 -65 90q-19 63 35 118q57 55 118 35q22 -7 39.5 -20t49.5 -46l319 -318l-319 -318q-33 -33 -50 -46t-39 -20q-61 -20 -118 35q-54 55 -35 118zM687 323q11 36 66 90l141 141l-141 141q-54 54 -66 90q-19 63 35 118 q57 55 119 35q22 -7 39 -20t50 -46l318 -318l-318 -318q-33 -33 -50.5 -46t-38.5 -20q-61 -20 -119 35q-54 55 -35 118z" />
<glyph unicode="&#xbc;" horiz-adv-x="1723" d="M75 1191q8 26 49 67l157 157q51 51 107 51q45 0 75 -27q31 -30 31 -99v-630q0 -59 -14 -86q-24 -48 -85 -48.5t-85 48.5q-13 27 -13 86v455l-40 -40q-42 -41 -68 -49q-48 -15 -88.5 26t-25.5 89zM445 85q0 23 26 75l614 1222q16 32 25.5 45.5t24.5 23.5q23 15 49 15 q22 0 44 -11q51 -26 51 -82q0 -23 -26 -75l-614 -1222q-16 -32 -25.5 -45.5t-23.5 -23.5q-23 -15 -49 -15q-22 0 -44 11q-52 26 -52 82zM1072 205q0 26 24 73l262 524q18 37 40 59t55 22q36 0 64.5 -25t28.5 -61q0 -30 -23 -77l-213 -426h90q0 59 13 86q25 48 85.5 48 t84.5 -48q13 -27 13 -86q43 -1 66 -13q41 -23 41 -74q0 -52 -41 -74q-23 -12 -66 -13q0 -53 -13 -80q-25 -48 -85 -48t-85 48q-13 27 -13 80h-209q-53 0 -76 13q-43 26 -43 72z" />
<glyph unicode="&#xbd;" horiz-adv-x="1723" d="M75 1191q8 26 49 67l157 157q51 51 107 51q45 0 75 -27q31 -30 31 -99v-630q0 -59 -14 -86q-24 -48 -85 -48.5t-85 48.5q-13 27 -13 86v455l-40 -40q-42 -41 -68 -49q-48 -15 -88.5 26t-25.5 89zM445 85q0 23 26 75l614 1222q16 32 25.5 45.5t24.5 23.5q23 15 49 15 q22 0 44 -11q51 -26 51 -82q0 -23 -26 -75l-614 -1222q-16 -32 -25.5 -45.5t-23.5 -23.5q-23 -15 -49 -15q-22 0 -44 11q-52 26 -52 82zM1106 95q0 26 11 46t35 48l271 322q53 62 54 113q0 39 -24.5 62.5t-64.5 23.5q-67 0 -94 -71q-14 -36 -36 -51q-20 -16 -53 -17 q-51 0 -76 37q-15 26 -15 57q0 72 70 139q82 79 204 79q131 0 206 -67.5t75 -191.5q0 -59 -22.5 -104.5t-65.5 -94.5l-218 -251h199q52 0 75 -13q41 -23 41 -74q0 -52 -41 -74q-24 -13 -75 -13h-336q-69 0 -94 27q-26 27 -26 68z" />
<glyph unicode="&#xbe;" horiz-adv-x="1723" d="M67 796q0 45 22 68q29 31 70 31q33 0 55 -17q23 -19 31 -52q20 -78 99 -77q43 0 69.5 26.5t26.5 74.5q0 43 -27 70.5t-70 28.5q-40 2 -58 21q-23 23 -23 60q0 40 23 63q22 22 58 21q41 0 64.5 26.5t23.5 61.5q0 43 -25 67t-61 24q-63 0 -86 -59q-14 -37 -27 -52 q-18 -27 -61 -27q-40 0 -65.5 27.5t-25.5 69.5q0 77 59 133q84 81 206 81q121 0 199 -72t78 -185q0 -118 -93 -173q103 -67 104 -192q0 -129 -83 -199t-206 -70q-136 0 -218 82q-59 58 -59 139zM445 85q0 23 26 75l614 1222q16 32 25.5 45.5t24.5 23.5q23 15 49 15 q22 0 44 -11q51 -26 51 -82q0 -23 -26 -75l-614 -1222q-16 -32 -25.5 -45.5t-23.5 -23.5q-23 -15 -49 -15q-22 0 -44 11q-52 26 -52 82zM1072 205q0 26 24 73l262 524q18 37 40 59t55 22q36 0 64.5 -25t28.5 -61q0 -30 -23 -77l-213 -426h90q0 59 13 86q25 48 85.5 48 t84.5 -48q13 -27 13 -86q43 -1 66 -13q41 -23 41 -74q0 -52 -41 -74q-23 -12 -66 -13q0 -53 -13 -80q-25 -48 -85 -48t-85 48q-13 27 -13 80h-209q-53 0 -76 13q-43 26 -43 72z" />
<glyph unicode="&#xbf;" horiz-adv-x="1071" d="M74 -4q0 79 23.5 134t75.5 124l123 161q42 54 58 119q13 47 41 76q37 39 100 39q60 0 99 -41q32 -33 32 -91q0 -49 -16.5 -91.5t-57.5 -94.5l-153 -193q-59 -75 -59 -142q0 -69 44.5 -114.5t117.5 -45.5q80 0 126 49q32 33 51 98q12 39 37 67q32 33 93 33q55 0 89 -36 q32 -33 32 -94q0 -55 -30.5 -122.5t-87.5 -120.5q-124 -114 -307 -113q-120 0 -217.5 46.5t-155.5 138.5t-58 214zM334 912.5q0 66.5 47 113.5t113.5 47t113.5 -47t47 -113.5t-47 -113.5t-113.5 -47t-113.5 47t-47 113.5z" />
<glyph unicode="&#xc0;" horiz-adv-x="1302" d="M46.5 93q-5.5 31 0.5 56.5t23 69.5l420 1116q27 69 59 97q39 35 102.5 34.5t102.5 -34.5q32 -28 58 -97l421 -1116q16 -44 22.5 -69.5t0.5 -56.5t-30 -57q-41 -44 -103 -44q-46 0 -79 26q-18 15 -30 36.5t-30 71.5l-48 132h-569l-49 -132q-18 -50 -30 -71t-30 -37 q-33 -27 -79 -26q-61 0 -102 44q-25 26 -30.5 57zM381 1892q-5 59 55 99q29 18 63 18q32 0 58 -18q23 -16 56 -71l87 -139q38 -60 40 -92q5 -59 -55 -99q-30 -18 -62.5 -18t-58.5 18q-23 16 -56 71l-87 139q-38 60 -40 92zM456 498h391l-196 529z" />
<glyph unicode="&#xc1;" horiz-adv-x="1302" d="M46.5 93q-5.5 31 0.5 56.5t23 69.5l420 1116q27 69 59 97q39 35 102.5 34.5t102.5 -34.5q32 -28 58 -97l421 -1116q16 -44 22.5 -69.5t0.5 -56.5t-30 -57q-41 -44 -103 -44q-46 0 -79 26q-18 15 -30 36.5t-30 71.5l-48 132h-569l-49 -132q-18 -50 -30 -71t-30 -37 q-33 -27 -79 -26q-61 0 -102 44q-25 26 -30.5 57zM456 498h391l-196 529zM558 1690q2 32 40 92l87 139q34 54 56 71q27 18 59 18q34 0 62 -18q60 -39 56 -99q-2 -32 -40 -92l-87 -139q-34 -54 -57 -71q-26 -18 -58.5 -18t-62.5 18q-60 40 -55 99z" />
<glyph unicode="&#xc2;" horiz-adv-x="1302" d="M46.5 93q-5.5 31 0.5 56.5t23 69.5l420 1116q27 69 59 97q39 35 102.5 34.5t102.5 -34.5q32 -28 58 -97l421 -1116q16 -44 22.5 -69.5t0.5 -56.5t-30 -57q-41 -44 -103 -44q-46 0 -79 26q-18 15 -30 36.5t-30 71.5l-48 132h-569l-49 -132q-18 -50 -30 -71t-30 -37 q-33 -27 -79 -26q-61 0 -102 44q-25 26 -30.5 57zM322 1698q11 32 54 75l158 157q18 18 31 29t36.5 22t48 11t48 -11t36 -21.5t31.5 -29.5l158 -157q43 -43 54 -75q16 -54 -29 -100q-46 -46 -99 -28q-32 11 -75 54l-125 124l-125 -124q-43 -43 -74 -54q-53 -17 -100 28 q-44 46 -28 100zM456 498h391l-196 529z" />
<glyph unicode="&#xc3;" horiz-adv-x="1302" d="M46.5 93q-5.5 31 0.5 56.5t23 69.5l420 1116q27 69 59 97q39 35 102.5 34.5t102.5 -34.5q32 -28 58 -97l421 -1116q16 -44 22.5 -69.5t0.5 -56.5t-30 -57q-41 -44 -103 -44q-46 0 -79 26q-18 15 -30 36.5t-30 71.5l-48 132h-569l-49 -132q-18 -50 -30 -71t-30 -37 q-33 -27 -79 -26q-61 0 -102 44q-25 26 -30.5 57zM271 1724q0 50 58 96q46 37 86.5 50t93.5 13q46 0 81 -9.5t82 -35.5q61 -35 108 -35t89 33q37 27 67 27q44 0 70 -31q22 -26 21 -65q0 -50 -57 -95q-46 -37 -86.5 -50t-93.5 -13q-46 0 -81 9.5t-82 35.5q-61 35 -108.5 35 t-89.5 -33q-37 -27 -67 -27q-44 0 -69 31q-22 25 -22 64zM456 498h391l-196 529z" />
<glyph unicode="&#xc4;" horiz-adv-x="1302" d="M46.5 93q-5.5 31 0.5 56.5t23 69.5l420 1116q27 69 59 97q39 35 102.5 34.5t102.5 -34.5q32 -28 58 -97l421 -1116q16 -44 22.5 -69.5t0.5 -56.5t-30 -57q-41 -44 -103 -44q-46 0 -79 26q-18 15 -30 36.5t-30 71.5l-48 132h-569l-49 -132q-18 -50 -30 -71t-30 -37 q-33 -27 -79 -26q-61 0 -102 44q-25 26 -30.5 57zM281 1731.5q0 56.5 39.5 97t97 40.5t97.5 -40.5t40 -97t-40 -97t-97.5 -40.5t-97 40.5t-39.5 97zM456 498h391l-196 529zM743 1731.5q0 56.5 40 97t97.5 40.5t97.5 -40.5t40 -97t-40 -97t-97.5 -40.5t-97.5 40.5t-40 97z " />
<glyph unicode="&#xc5;" horiz-adv-x="1302" d="M46.5 93q-5.5 31 0.5 56.5t23 69.5l420 1116q27 69 59 97q39 35 102.5 34.5t102.5 -34.5q32 -28 58 -97l421 -1116q16 -44 22.5 -69.5t0.5 -56.5t-30 -57q-41 -44 -103 -44q-46 0 -79 26q-18 15 -30 36.5t-30 71.5l-48 132h-569l-49 -132q-18 -50 -30 -71t-30 -37 q-33 -27 -79 -26q-61 0 -102 44q-25 26 -30.5 57zM381 1810.5q0 110.5 79 189.5t189.5 79t189.5 -78.5t79 -190.5q0 -111 -79 -189.5t-189.5 -78.5t-189.5 79t-79 189.5zM456 498h391l-196 529zM530 1810.5q0 -49.5 35 -85t84 -35.5t84 35.5t35 85t-35 84t-84 34.5 t-84 -34.5t-35 -84z" />
<glyph unicode="&#xc6;" horiz-adv-x="1942" d="M44 117q-1 24 6.5 44.5t30.5 67.5l527 1057q49 97 94 133q50 39 121 39h851q80 0 112 -16q28 -14 44 -44t16 -67t-16 -66.5t-44 -43.5q-32 -16 -112 -17h-512v-342h414q80 0 112 -16q28 -14 44 -44t16 -67t-16.5 -66.5t-43.5 -43.5q-32 -16 -112 -17h-414v-354h512 q80 0 112 -16q28 -14 44 -44t16 -67t-16 -66.5t-44 -44.5q-32 -16 -112 -16h-624q-29 0 -46.5 1.5t-43.5 11t-44.5 27.5t-27.5 44.5t-10.5 43.5t-1.5 46v145h-452l-105 -208q-23 -45 -35.5 -64t-31.5 -34q-30 -22 -67 -21q-34 0 -66 16q-35 17 -54.5 46.5t-20.5 62.5z M544 559h332v665z" />
<glyph unicode="&#xc7;" horiz-adv-x="1262" d="M119 729q0 100 1.5 156t9 127.5t23.5 117.5t44 95t71 92q152 154 388 153q128 0 216.5 -31.5t157.5 -99.5q65 -62 95 -130.5t30 -121.5q0 -71 -38 -108q-39 -39 -99 -39q-50 0 -82 25q-37 30 -71 101q-68 151 -215 151q-103 0 -173 -78q-45 -51 -58 -131t-13 -279 t13 -278.5t58 -131.5q70 -78 173 -77q147 0 215 150q34 72 71 102q32 25 82 24q60 0 99 -39q38 -38 38 -108q0 -52 -30 -121t-95 -131q-70 -68 -158 -99.5t-216 -31.5q-237 0 -388 153q-43 43 -71 92.5t-44 95t-23.5 117t-9 127.5t-1.5 156zM430 -417q2 32 40 92l87 140 q34 54 56 70q26 18 59 18.5t62 -18.5q60 -39 56 -98q-2 -32 -40 -92l-87 -139q-34 -54 -57 -71q-27 -18 -58 -19q-34 0 -63 19q-60 39 -55 98z" />
<glyph unicode="&#xc8;" horiz-adv-x="1235" d="M169 174v1110q0 29 1.5 46.5t10.5 43.5t27.5 44.5t45 27.5t43.5 10.5t46 1.5h625q80 0 111 -16q28 -14 44.5 -44t16.5 -67t-16.5 -66.5t-44.5 -43.5q-32 -16 -111 -17h-512v-342h413q80 0 112 -16q28 -14 44 -44t16 -67t-16 -66.5t-44 -43.5q-32 -16 -112 -17h-413v-354 h512q80 0 111 -16q28 -14 44.5 -44t16.5 -67t-16.5 -66.5t-44.5 -44.5q-32 -16 -111 -16h-625q-29 0 -46 1.5t-43.5 11t-45 27.5t-27.5 44.5t-10.5 43.5t-1.5 46zM377 1892q-5 59 55 99q29 18 63 18q32 0 58 -18q23 -16 56 -71l87 -139q38 -60 40 -92q5 -59 -55 -99 q-30 -18 -62.5 -18t-58.5 18q-23 16 -56 71l-87 139q-38 60 -40 92z" />
<glyph unicode="&#xc9;" horiz-adv-x="1235" d="M169 174v1110q0 29 1.5 46.5t10.5 43.5t27.5 44.5t45 27.5t43.5 10.5t46 1.5h625q80 0 111 -16q28 -14 44.5 -44t16.5 -67t-16.5 -66.5t-44.5 -43.5q-32 -16 -111 -17h-512v-342h413q80 0 112 -16q28 -14 44 -44t16 -67t-16 -66.5t-44 -43.5q-32 -16 -112 -17h-413v-354 h512q80 0 111 -16q28 -14 44.5 -44t16.5 -67t-16.5 -66.5t-44.5 -44.5q-32 -16 -111 -16h-625q-29 0 -46 1.5t-43.5 11t-45 27.5t-27.5 44.5t-10.5 43.5t-1.5 46zM554 1690q2 32 40 92l87 139q34 54 56 71q27 18 59 18q34 0 62 -18q60 -39 55 -99q-2 -32 -40 -92l-87 -139 q-34 -54 -56 -71q-26 -18 -58.5 -18t-62.5 18q-60 40 -55 99z" />
<glyph unicode="&#xca;" horiz-adv-x="1235" d="M169 174v1110q0 29 1.5 46.5t10.5 43.5t27.5 44.5t45 27.5t43.5 10.5t46 1.5h625q80 0 111 -16q28 -14 44.5 -44t16.5 -67t-16.5 -66.5t-44.5 -43.5q-32 -16 -111 -17h-512v-342h413q80 0 112 -16q28 -14 44 -44t16 -67t-16 -66.5t-44 -43.5q-32 -16 -112 -17h-413v-354 h512q80 0 111 -16q28 -14 44.5 -44t16.5 -67t-16.5 -66.5t-44.5 -44.5q-32 -16 -111 -16h-625q-29 0 -46 1.5t-43.5 11t-45 27.5t-27.5 44.5t-10.5 43.5t-1.5 46zM317 1698q11 32 55 75l157 157q18 18 31 29t37 22t48.5 11t48 -11t36 -21.5t31.5 -29.5l158 -157 q43 -43 54 -75q16 -54 -29 -100q-46 -46 -99 -28q-32 11 -75 54l-125 124l-125 -124q-43 -43 -75 -54q-53 -17 -99 28q-45 46 -29 100z" />
<glyph unicode="&#xcb;" horiz-adv-x="1235" d="M169 174v1110q0 29 1.5 46.5t10.5 43.5t27.5 44.5t45 27.5t43.5 10.5t46 1.5h625q80 0 111 -16q28 -14 44.5 -44t16.5 -67t-16.5 -66.5t-44.5 -43.5q-32 -16 -111 -17h-512v-342h413q80 0 112 -16q28 -14 44 -44t16 -67t-16 -66.5t-44 -43.5q-32 -16 -112 -17h-413v-354 h512q80 0 111 -16q28 -14 44.5 -44t16.5 -67t-16.5 -66.5t-44.5 -44.5q-32 -16 -111 -16h-625q-29 0 -46 1.5t-43.5 11t-45 27.5t-27.5 44.5t-10.5 43.5t-1.5 46zM276 1731.5q0 56.5 40 97t97.5 40.5t97.5 -40.5t40 -97t-40 -97t-97.5 -40.5t-97.5 40.5t-40 97zM739 1731.5 q0 56.5 40 97t97.5 40.5t97.5 -40.5t40 -97t-40 -97t-97.5 -40.5t-97.5 40.5t-40 97z" />
<glyph unicode="&#xcc;" horiz-adv-x="624" d="M44 1892q-5 59 55 99q30 18 63 18t58 -18q23 -16 56 -71l88 -139q38 -60 39 -92q5 -59 -55 -99q-29 -18 -62 -18q-32 0 -59 18q-23 16 -56 71l-87 139q-38 60 -40 92zM169 184v1090q0 52 3.5 75.5t15.5 49.5q16 31 49.5 49t74.5 18t74.5 -18t49.5 -49q12 -26 16 -49.5 t4 -75.5v-1090q0 -52 -3.5 -75.5t-16.5 -49.5q-16 -31 -49.5 -49t-74.5 -18t-74 18.5t-50 48.5q-12 26 -15.5 49.5t-3.5 75.5z" />
<glyph unicode="&#xcd;" horiz-adv-x="624" d="M169 184v1090q0 52 3.5 75.5t15.5 49.5q16 31 49.5 49t74.5 18t74.5 -18t49.5 -49q12 -26 16 -49.5t4 -75.5v-1090q0 -52 -3.5 -75.5t-16.5 -49.5q-16 -31 -49.5 -49t-74.5 -18t-74 18.5t-50 48.5q-12 26 -15.5 49.5t-3.5 75.5zM221 1690q2 32 40 92l87 139q34 54 56 71 q26 18 59 18t62 -18q60 -39 56 -99q-2 -32 -40 -92l-87 -139q-34 -54 -57 -71q-27 -18 -58 -18q-34 0 -63 18q-60 40 -55 99z" />
<glyph unicode="&#xce;" horiz-adv-x="624" d="M-15 1698q11 32 54 75l158 157q18 18 31 29t36.5 22t48 11t48 -11t36.5 -21.5t31 -29.5l158 -157q43 -43 54 -75q16 -54 -29 -100q-46 -46 -99 -28q-32 11 -75 54l-125 124l-125 -124q-43 -43 -74 -54q-53 -17 -100 28q-44 46 -28 100zM169 184v1090q0 52 3.5 75.5 t15.5 49.5q16 31 49.5 49t74.5 18t74.5 -18t49.5 -49q12 -26 16 -49.5t4 -75.5v-1090q0 -52 -3.5 -75.5t-16.5 -49.5q-16 -31 -49.5 -49t-74.5 -18t-74 18.5t-50 48.5q-12 26 -15.5 49.5t-3.5 75.5z" />
<glyph unicode="&#xcf;" horiz-adv-x="624" d="M-38 1731.5q0 56.5 40.5 97t97 40.5t97 -40.5t40.5 -97t-40.5 -97t-97 -40.5t-97 40.5t-40.5 97zM169 184v1090q0 52 3.5 75.5t15.5 49.5q16 31 49.5 49t74.5 18t74.5 -18t49.5 -49q12 -26 16 -49.5t4 -75.5v-1090q0 -52 -3.5 -75.5t-16.5 -49.5q-16 -31 -49.5 -49 t-74.5 -18t-74 18.5t-50 48.5q-12 26 -15.5 49.5t-3.5 75.5zM388 1731.5q0 56.5 40.5 97t97 40.5t97 -40.5t40.5 -97t-40.5 -97t-97 -40.5t-97 40.5t-40.5 97z" />
<glyph unicode="&#xd0;" horiz-adv-x="1402" d="M35 735.5q0 67.5 52 95.5q30 15 99 16h33v437q0 29 1.5 46.5t11 43.5t28 44.5t44.5 27.5t43.5 10.5t45.5 1.5h355q150 0 254 -50.5t186 -162.5q63 -85 78.5 -193t15.5 -323t-15.5 -323t-78.5 -193q-82 -112 -186.5 -162.5t-253.5 -50.5h-355q-29 0 -46 1.5t-43 11 t-44.5 27.5t-28 44.5t-11 43.5t-1.5 46v450h-33q-70 0 -99 15q-52 29 -52 96.5zM506 254h217q141 0 213 90q38 47 48.5 124.5t10.5 260.5t-10.5 260.5t-48.5 124.5q-72 90 -213 90h-217v-357h112q71 0 100 -16q52 -29 52 -96t-52 -96q-29 -15 -100 -15h-112v-370z" />
<glyph unicode="&#xd1;" horiz-adv-x="1457" d="M169 184v1104q0 94 39 134q44 44 107 44q47 0 83 -29.5t85 -101.5l518 -766v705q0 52 4 75.5t16 49.5q16 31 49.5 49t74.5 18t74 -18t50 -49q12 -26 15.5 -49.5t3.5 -75.5v-1104q0 -95 -39 -134q-44 -44 -107 -44q-47 0 -83 29.5t-84 101.5l-519 766v-705 q0 -52 -3.5 -75.5t-16.5 -49.5q-16 -31 -49.5 -49t-74.5 -18t-74 18.5t-50 48.5q-12 26 -15.5 49.5t-3.5 75.5zM350 1724q0 50 58 96q46 37 86.5 50t93.5 13q46 0 80.5 -9.5t82.5 -35.5q61 -35 108 -35t89 33q37 27 67 27q44 0 69 -31q22 -26 22 -65q0 -50 -57 -95 q-46 -37 -86.5 -50t-94.5 -13q-46 0 -80.5 9.5t-81.5 35.5q-61 35 -108.5 35t-89.5 -33q-37 -27 -67 -27q-44 0 -69 31q-22 25 -22 64z" />
<glyph unicode="&#xd2;" horiz-adv-x="1318" d="M119 729q0 100 1.5 156t9 127.5t23.5 117.5t44 95t71 92q152 154 391.5 153.5t391.5 -153.5q43 -43 71 -92t44 -95t23.5 -117.5t9 -127.5t1.5 -156t-1.5 -156t-9 -127.5t-23.5 -117t-44 -95t-71 -92.5q-152 -154 -391.5 -153.5t-391.5 153.5q-43 43 -71 92.5t-44 95 t-23.5 117t-9 127.5t-1.5 156zM390 1892q-5 59 55 99q30 18 63 18t58 -18q23 -16 57 -71l87 -139q38 -60 40 -92q5 -59 -56 -99q-29 -18 -62 -18q-32 0 -59 18q-23 16 -56 71l-87 139q-38 60 -40 92zM406 729q0 -204 14 -282.5t56 -125.5q70 -79 183.5 -79t183.5 79 q42 47 56 125.5t14 282.5t-14 283.5t-56 126.5q-68 78 -183.5 78t-183.5 -78q-42 -47 -56 -126.5t-14 -283.5z" />
<glyph unicode="&#xd3;" horiz-adv-x="1318" d="M119 729q0 100 1.5 156t9 127.5t23.5 117.5t44 95t71 92q152 154 391.5 153.5t391.5 -153.5q43 -43 71 -92t44 -95t23.5 -117.5t9 -127.5t1.5 -156t-1.5 -156t-9 -127.5t-23.5 -117t-44 -95t-71 -92.5q-152 -154 -391.5 -153.5t-391.5 153.5q-43 43 -71 92.5t-44 95 t-23.5 117t-9 127.5t-1.5 156zM406 729q0 -204 14 -282.5t56 -125.5q70 -79 183.5 -79t183.5 79q42 47 56 125.5t14 282.5t-14 283.5t-56 126.5q-68 78 -183.5 78t-183.5 -78q-42 -47 -56 -126.5t-14 -283.5zM567 1690q2 32 40 92l87 139q34 54 57 71q26 18 58.5 18 t61.5 -18q60 -39 56 -99q-2 -32 -40 -92l-87 -139q-34 -54 -57 -71q-27 -18 -58 -18q-34 0 -62 18q-61 40 -56 99z" />
<glyph unicode="&#xd4;" horiz-adv-x="1318" d="M119 729q0 100 1.5 156t9 127.5t23.5 117.5t44 95t71 92q152 154 391.5 153.5t391.5 -153.5q43 -43 71 -92t44 -95t23.5 -117.5t9 -127.5t1.5 -156t-1.5 -156t-9 -127.5t-23.5 -117t-44 -95t-71 -92.5q-152 -154 -391.5 -153.5t-391.5 153.5q-43 43 -71 92.5t-44 95 t-23.5 117t-9 127.5t-1.5 156zM331 1698q11 32 54 75l158 157q18 18 31 29t36.5 22t48 11t48 -11t36.5 -21.5t31 -29.5l158 -157q43 -43 54 -75q16 -54 -29 -100q-46 -46 -99 -28q-32 11 -75 54l-125 124l-124 -124q-43 -43 -75 -54q-53 -17 -100 28q-44 46 -28 100z M406 729q0 -204 14 -282.5t56 -125.5q70 -79 183.5 -79t183.5 79q42 47 56 125.5t14 282.5t-14 283.5t-56 126.5q-68 78 -183.5 78t-183.5 -78q-42 -47 -56 -126.5t-14 -283.5z" />
<glyph unicode="&#xd5;" horiz-adv-x="1318" d="M119 729q0 100 1.5 156t9 127.5t23.5 117.5t44 95t71 92q152 154 391.5 153.5t391.5 -153.5q43 -43 71 -92t44 -95t23.5 -117.5t9 -127.5t1.5 -156t-1.5 -156t-9 -127.5t-23.5 -117t-44 -95t-71 -92.5q-152 -154 -391.5 -153.5t-391.5 153.5q-43 43 -71 92.5t-44 95 t-23.5 117t-9 127.5t-1.5 156zM281 1724q0 50 57 96q46 37 86.5 50t93.5 13q46 0 81 -9.5t82 -35.5q61 -35 108.5 -35t89.5 33q37 27 66 27q44 0 70 -31q22 -26 21 -65q0 -50 -57 -95q-46 -37 -86.5 -50t-93.5 -13q-46 0 -81 9.5t-82 35.5q-61 35 -108.5 35t-89.5 -33 q-37 -27 -66 -27q-44 0 -70 31q-21 25 -21 64zM406 729q0 -204 14 -282.5t56 -125.5q70 -79 183.5 -79t183.5 79q42 47 56 125.5t14 282.5t-14 283.5t-56 126.5q-68 78 -183.5 78t-183.5 -78q-42 -47 -56 -126.5t-14 -283.5z" />
<glyph unicode="&#xd6;" horiz-adv-x="1318" d="M119 729q0 100 1.5 156t9 127.5t23.5 117.5t44 95t71 92q152 154 391.5 153.5t391.5 -153.5q43 -43 71 -92t44 -95t23.5 -117.5t9 -127.5t1.5 -156t-1.5 -156t-9 -127.5t-23.5 -117t-44 -95t-71 -92.5q-152 -154 -391.5 -153.5t-391.5 153.5q-43 43 -71 92.5t-44 95 t-23.5 117t-9 127.5t-1.5 156zM290 1731.5q0 56.5 40.5 97t96.5 40.5t96.5 -40.5t40.5 -97t-40.5 -97t-96.5 -40.5t-96.5 40.5t-40.5 97zM406 729q0 -204 14 -282.5t56 -125.5q70 -79 183.5 -79t183.5 79q42 47 56 125.5t14 282.5t-14 283.5t-56 126.5q-68 78 -183.5 78 t-183.5 -78q-42 -47 -56 -126.5t-14 -283.5zM753 1731.5q0 56.5 40.5 97t96.5 40.5t96.5 -40.5t40.5 -97t-40.5 -97t-96.5 -40.5t-96.5 40.5t-40.5 97z" />
<glyph unicode="&#xd7;" d="M148 329q11 36 66 90l166 166l-166 166q-54 54 -66 90q-19 63 35 117q57 55 119 35q22 -7 39 -19.5t50 -45.5l165 -165l165 165q33 33 50 45.5t39 19.5q61 20 119 -35q54 -54 35 -117q-11 -36 -66 -90l-166 -166l166 -166q54 -54 66 -90q19 -63 -35 -118 q-57 -55 -119 -35q-22 7 -39 20t-50 46l-165 165l-165 -165q-33 -33 -50 -46t-39 -20q-61 -20 -119 35q-54 55 -35 118z" />
<glyph unicode="&#xd8;" horiz-adv-x="1318" d="M119 729q0 100 1.5 156t9 127.5t23.5 117.5t44 95t71 92q152 154 391 153q122 0 215 -40l19 36q29 57 54 77q43 32 100 6q66 -31 65 -89q0 -32 -29 -89l-29 -58q42 -42 69.5 -91.5t43 -95t23 -116.5t9 -126.5t1.5 -154.5q0 -100 -1.5 -156t-9 -127.5t-23.5 -117t-44 -95 t-71 -92.5q-152 -154 -392 -153q-123 0 -217 41l-17 -37q-29 -57 -54 -77q-43 -32 -100 -6q-66 31 -65 89q0 32 28 89l29 58q-41 42 -68.5 91.5t-42.5 95t-22.5 116.5t-9 126.5t-1.5 154.5zM406 729q0 -119 5.5 -180.5t24.5 -105.5l352 739q-57 35 -129 35q-116 0 -183 -78 q-42 -47 -56 -126.5t-14 -283.5zM529 276q57 -35 129 -34q116 0 184 77q42 48 56.5 127.5t14.5 282.5q0 117 -6 179t-25 107z" />
<glyph unicode="&#xd9;" horiz-adv-x="1363" d="M145 500v774q0 52 4 75.5t16 49.5q16 31 49.5 49t74.5 18t74 -18t50 -49q12 -26 15.5 -49.5t3.5 -75.5v-764q0 -125 67 -196.5t183 -71.5t183 71.5t67 196.5v764q0 52 3.5 75.5t15.5 49.5q16 31 49.5 49t74.5 18t74.5 -18t49.5 -49q12 -26 16 -49.5t4 -75.5v-774 q0 -227 -154.5 -369.5t-382.5 -142.5t-382.5 142.5t-154.5 369.5zM415 1892q-5 59 55 99q30 18 62.5 18t58.5 -18q23 -16 56 -71l87 -139q38 -60 40 -92q5 -59 -55 -99q-29 -18 -63 -18q-32 0 -58 18q-23 16 -56 71l-87 139q-38 60 -40 92z" />
<glyph unicode="&#xda;" horiz-adv-x="1363" d="M145 500v774q0 52 4 75.5t16 49.5q16 31 49.5 49t74.5 18t74 -18t50 -49q12 -26 15.5 -49.5t3.5 -75.5v-764q0 -125 67 -196.5t183 -71.5t183 71.5t67 196.5v764q0 52 3.5 75.5t15.5 49.5q16 31 49.5 49t74.5 18t74.5 -18t49.5 -49q12 -26 16 -49.5t4 -75.5v-774 q0 -227 -154.5 -369.5t-382.5 -142.5t-382.5 142.5t-154.5 369.5zM592 1690q2 32 40 92l87 139q34 54 56 71q26 18 58.5 18t62.5 -18q60 -39 55 -99q-2 -32 -40 -92l-87 -139q-34 -54 -56 -71q-27 -18 -58 -18q-34 0 -63 18q-60 40 -55 99z" />
<glyph unicode="&#xdb;" horiz-adv-x="1363" d="M145 500v774q0 52 4 75.5t16 49.5q16 31 49.5 49t74.5 18t74 -18t50 -49q12 -26 15.5 -49.5t3.5 -75.5v-764q0 -125 67 -196.5t183 -71.5t183 71.5t67 196.5v764q0 52 3.5 75.5t15.5 49.5q16 31 49.5 49t74.5 18t74.5 -18t49.5 -49q12 -26 16 -49.5t4 -75.5v-774 q0 -227 -154.5 -369.5t-382.5 -142.5t-382.5 142.5t-154.5 369.5zM355 1698q11 32 55 75l157 157q18 18 31 29t36.5 22t48.5 11t48.5 -11t36 -21.5t31.5 -29.5l157 -157q43 -43 55 -75q16 -54 -29 -100q-46 -46 -99 -28q-32 11 -75 54l-125 124l-125 -124q-43 -43 -75 -54 q-53 -17 -99 28q-45 46 -29 100z" />
<glyph unicode="&#xdc;" horiz-adv-x="1363" d="M145 500v774q0 52 4 75.5t16 49.5q16 31 49.5 49t74.5 18t74 -18t50 -49q12 -26 15.5 -49.5t3.5 -75.5v-764q0 -125 67 -196.5t183 -71.5t183 71.5t67 196.5v764q0 52 3.5 75.5t15.5 49.5q16 31 49.5 49t74.5 18t74.5 -18t49.5 -49q12 -26 16 -49.5t4 -75.5v-774 q0 -227 -154.5 -369.5t-382.5 -142.5t-382.5 142.5t-154.5 369.5zM314 1731.5q0 56.5 40.5 97t97 40.5t97 -40.5t40.5 -97t-40.5 -97t-97 -40.5t-97 40.5t-40.5 97zM777 1731.5q0 56.5 40.5 97t97 40.5t97 -40.5t40.5 -97t-40.5 -97t-97 -40.5t-97 40.5t-40.5 97z" />
<glyph unicode="&#xdd;" horiz-adv-x="1105" d="M43 1341q1 33 20.5 62.5t54.5 46.5q33 16 66 16q37 0 67 -21q19 -14 32 -33t35 -64l235 -474l234 474q23 45 36 64t32 33q30 22 67 21q34 0 66 -16q35 -17 54.5 -46.5t20.5 -62.5q1 -24 -6.5 -44.5t-30.5 -67.5l-330 -658v-387q0 -52 -3.5 -75.5t-15.5 -49.5 q-16 -31 -49.5 -49t-74.5 -18t-74.5 18.5t-49.5 48.5q-12 26 -15.5 49.5t-3.5 75.5v387l-330 658q-23 47 -30.5 67.5t-6.5 44.5zM463 1690q2 32 40 92l87 139q34 54 56 71q26 18 58.5 18t62.5 -18q60 -39 55 -99q-2 -32 -40 -92l-87 -139q-34 -54 -56 -71q-27 -18 -58 -18 q-34 0 -63 18q-60 40 -55 99z" />
<glyph unicode="&#xde;" horiz-adv-x="1295" d="M169 184v1090q0 52 3.5 75.5t15.5 49.5q16 31 49.5 49t74.5 18t74.5 -18t49.5 -49q12 -26 16 -49.5t4 -75.5v-84h280q220 0 351 -131t131 -323.5t-131 -323.5t-351 -131h-280v-97q0 -52 -3.5 -75.5t-16.5 -49.5q-16 -31 -49.5 -49t-74.5 -18t-74 18.5t-50 48.5 q-12 26 -15.5 49.5t-3.5 75.5zM456 535h264q96 0 153.5 55t57.5 145t-57.5 145.5t-153.5 55.5h-264v-401z" />
<glyph unicode="&#xdf;" horiz-adv-x="1172" d="M148 174v892q0 104 34.5 182.5t97 126.5t145 71.5t183.5 23.5q203 0 324.5 -90t121.5 -269q0 -156 -126 -230q63 -32 95.5 -82.5t32.5 -142.5v-349q0 -139 -86 -223q-90 -87 -227 -87h-19q-51 0 -83 11q-73 29 -73 108q0 41 26 70.5t70 35.5q3 0 11 1.5t11.5 2t11.5 2 t12 2.5t11 3.5t11.5 4.5t10.5 5t11 7t9 8q27 27 27 107v257q0 81 -25.5 114.5t-81.5 35.5q-59 2 -86 29q-29 29 -29 74t29 73q27 27 86 29q104 3 104 118q0 60 -38 99q-46 44 -144 44q-103 0 -146.5 -49.5t-43.5 -148.5v-866q0 -84 -18 -119q-32 -63 -115.5 -63t-115.5 63 q-18 35 -18 119z" />
<glyph unicode="&#xe0;" horiz-adv-x="1090" d="M70 324q0 135 94 222t274 87h248v53q0 87 -46 127.5t-141 40.5q-85 0 -171 -51q-47 -28 -88 -28q-47 0 -76 36q-30 36 -30 80q0 75 99 127q117 61 270 61q223 0 336 -94.5t113 -282.5v-529q0 -52 -3.5 -74.5t-15.5 -45.5q-14 -28 -45.5 -44.5t-69.5 -16.5q-52 0 -85 31 q-27 25 -39 70q-59 -58 -117 -81.5t-147 -23.5q-178 0 -272 96q-88 88 -88 240zM264 1529q-5 59 55 98q29 18 63 19q32 0 58 -19q23 -16 57 -71l87 -139q38 -60 40 -92q5 -59 -56 -98q-30 -18 -62.5 -18.5t-58.5 18.5q-23 16 -56 70l-87 140q-38 60 -40 92zM326 328 q0 -57 40.5 -89t120.5 -32q54 0 90 10t68 41q24 22 32.5 52t8.5 83v58h-203q-157 0 -157 -123z" />
<glyph unicode="&#xe1;" horiz-adv-x="1090" d="M70 324q0 135 94 222t274 87h248v53q0 87 -46 127.5t-141 40.5q-85 0 -171 -51q-47 -28 -88 -28q-47 0 -76 36q-30 36 -30 80q0 75 99 127q117 61 270 61q223 0 336 -94.5t113 -282.5v-529q0 -52 -3.5 -74.5t-15.5 -45.5q-14 -28 -45.5 -44.5t-69.5 -16.5q-52 0 -85 31 q-27 25 -39 70q-59 -58 -117 -81.5t-147 -23.5q-178 0 -272 96q-88 88 -88 240zM326 328q0 -57 40.5 -89t120.5 -32q54 0 90 10t68 41q24 22 32.5 52t8.5 83v58h-203q-157 0 -157 -123zM441 1325q2 32 40 92l87 139q34 54 57 71q27 18 58 19q34 0 62 -19q60 -39 56 -98 q-2 -32 -40 -92l-87 -140q-34 -54 -57 -70q-26 -18 -58.5 -18.5t-61.5 18.5q-61 39 -56 98z" />
<glyph unicode="&#xe2;" horiz-adv-x="1090" d="M70 324q0 135 94 222t274 87h248v53q0 87 -46 127.5t-141 40.5q-85 0 -171 -51q-47 -28 -88 -28q-47 0 -76 36q-30 36 -30 80q0 75 99 127q117 61 270 61q223 0 336 -94.5t113 -282.5v-529q0 -52 -3.5 -74.5t-15.5 -45.5q-14 -28 -45.5 -44.5t-69.5 -16.5q-52 0 -85 31 q-27 25 -39 70q-59 -58 -117 -81.5t-147 -23.5q-178 0 -272 96q-88 88 -88 240zM204 1332q11 32 54 75l158 158q18 18 31 29t36.5 21.5t48 10.5t48 -10.5t36.5 -21.5t31 -29l158 -158q43 -43 54 -75q16 -54 -29 -99q-46 -46 -99 -29q-32 11 -75 54l-125 124l-124 -124 q-43 -43 -75 -54q-53 -17 -100 29q-44 45 -28 99zM326 328q0 -57 40.5 -89t120.5 -32q54 0 90 10t68 41q24 22 32.5 52t8.5 83v58h-203q-157 0 -157 -123z" />
<glyph unicode="&#xe3;" horiz-adv-x="1090" d="M70 324q0 135 94 222t274 87h248v53q0 87 -46 127.5t-141 40.5q-85 0 -171 -51q-47 -28 -88 -28q-47 0 -76 36q-30 36 -30 80q0 75 99 127q117 61 270 61q223 0 336 -94.5t113 -282.5v-529q0 -52 -3.5 -74.5t-15.5 -45.5q-14 -28 -45.5 -44.5t-69.5 -16.5q-52 0 -85 31 q-27 25 -39 70q-59 -58 -117 -81.5t-147 -23.5q-178 0 -272 96q-88 88 -88 240zM154 1365q0 50 57 95q46 37 86.5 50.5t93.5 13.5q46 0 81 -10t82 -35q61 -35 108.5 -35t89.5 33q37 27 66 26q44 0 70 -30q22 -26 21 -65q0 -50 -57 -95q-46 -37 -86.5 -50.5t-93.5 -13.5 q-46 0 -81 10t-82 35q-61 35 -108.5 35t-89.5 -33q-37 -27 -66 -26q-44 0 -70 30q-21 26 -21 65zM326 328q0 -57 40.5 -89t120.5 -32q54 0 90 10t68 41q24 22 32.5 52t8.5 83v58h-203q-157 0 -157 -123z" />
<glyph unicode="&#xe4;" horiz-adv-x="1090" d="M70 324q0 135 94 222t274 87h248v53q0 87 -46 127.5t-141 40.5q-85 0 -171 -51q-47 -28 -88 -28q-47 0 -76 36q-30 36 -30 80q0 75 99 127q117 61 270 61q223 0 336 -94.5t113 -282.5v-529q0 -52 -3.5 -74.5t-15.5 -45.5q-14 -28 -45.5 -44.5t-69.5 -16.5q-52 0 -85 31 q-27 25 -39 70q-59 -58 -117 -81.5t-147 -23.5q-178 0 -272 96q-88 88 -88 240zM163 1366q0 57 40.5 97t96.5 40t96.5 -40t40.5 -97t-40.5 -97t-96.5 -40t-96.5 40t-40.5 97zM326 328q0 -57 40.5 -89t120.5 -32q54 0 90 10t68 41q24 22 32.5 52t8.5 83v58h-203 q-157 0 -157 -123zM626 1366q0 57 40.5 97t96.5 40t96.5 -40t40.5 -97t-40.5 -97t-96.5 -40t-96.5 40t-40.5 97z" />
<glyph unicode="&#xe5;" horiz-adv-x="1090" d="M70 324q0 135 94 222t274 87h248v53q0 87 -46 127.5t-141 40.5q-85 0 -171 -51q-47 -28 -88 -28q-47 0 -76 36q-30 36 -30 80q0 75 99 127q117 61 270 61q223 0 336 -94.5t113 -282.5v-529q0 -52 -3.5 -74.5t-15.5 -45.5q-14 -28 -45.5 -44.5t-69.5 -16.5q-52 0 -85 31 q-27 25 -39 70q-59 -58 -117 -81.5t-147 -23.5q-178 0 -272 96q-88 88 -88 240zM263 1464.5q0 110.5 79 189.5t189.5 79t189.5 -79t79 -189.5t-79 -189.5t-189.5 -79t-189.5 79t-79 189.5zM326 328q0 -57 40.5 -89t120.5 -32q54 0 90 10t68 41q24 22 32.5 52t8.5 83v58h-203 q-157 0 -157 -123zM413 1464q0 -49 34.5 -85t84 -36t84 36t34.5 85t-34.5 84t-84 35t-84 -35t-34.5 -84z" />
<glyph unicode="&#xe6;" horiz-adv-x="1709" d="M70 324q0 135 94 222t274 87h248v53q0 87 -46 127.5t-141 40.5q-85 0 -171 -51q-47 -28 -88 -28q-47 0 -76 36q-30 36 -30 80q0 75 99 127q117 61 270 61q240 0 347 -115q114 116 302 115q210 0 333.5 -133.5t130.5 -342.5q2 -81 -36 -119q-15 -15 -37 -23t-37.5 -9 t-42.5 -1h-513q0 -106 61.5 -172t174.5 -66q108 0 184 57q56 40 99 40q40 0 74 -33t34 -78q0 -68 -104 -138q-109 -74 -292 -73q-248 0 -376 148q-83 -89 -167 -118.5t-208 -29.5q-178 0 -272 96q-88 88 -88 240zM326 328q0 -57 40.5 -89t120.5 -32q54 0 90 10t68 41 q24 22 32.5 52t8.5 83v58h-203q-157 0 -157 -123zM950 633h405q-3 70 -24 116q-23 50 -68.5 79.5t-110.5 29.5t-111 -29.5t-67 -79.5q-23 -49 -24 -116z" />
<glyph unicode="&#xe7;" horiz-adv-x="985" d="M96 534.5q0 124.5 30 222t77 157t111.5 98t128 53t131.5 14.5q120 0 209 -52q129 -66 129 -150q0 -47 -38 -87q-33 -35 -81 -35q-42 0 -93 37q-65 46 -128 46q-94 -2 -150 -70q-59 -74 -60 -233q0 -162 60 -236q57 -70 150 -70q67 0 128 45q52 39 93 39q48 0 81 -35 q38 -38 38 -88q0 -81 -129 -151q-94 -51 -211 -51q-69 0 -131.5 14.5t-127 53.5t-111 99t-76.5 157.5t-30 222zM308 -417q2 32 40 92l87 140q34 54 57 70q27 18 58 19q34 0 62 -19q60 -39 56 -98q-2 -32 -40 -92l-87 -139q-34 -54 -57 -71q-26 -18 -58.5 -18.5t-61.5 18.5 q-61 39 -56 98z" />
<glyph unicode="&#xe8;" horiz-adv-x="1117" d="M96 534q0 257 126.5 401t337.5 144q210 0 333.5 -133.5t130.5 -342.5q2 -81 -36 -119q-15 -15 -37 -23t-37.5 -9t-42.5 -1h-513q0 -106 61.5 -172t174.5 -66q108 0 184 57q56 40 100 40q40 0 73.5 -33t33.5 -78q0 -68 -104 -138q-109 -74 -291 -73q-80 0 -148.5 14.5 t-134 53t-110.5 99t-73 157.5t-28 222zM299 1529q-5 59 55 98q29 18 63 19q32 0 58 -19q23 -16 56 -71l87 -139q38 -60 40 -92q5 -59 -55 -98q-30 -18 -62.5 -18.5t-58.5 18.5q-23 16 -56 70l-87 140q-38 60 -40 92zM358 633h405q-3 70 -24 116q-23 50 -68.5 79.5t-110 29.5 t-111 -29.5t-67.5 -79.5q-23 -49 -24 -116z" />
<glyph unicode="&#xe9;" horiz-adv-x="1117" d="M96 534q0 257 126.5 401t337.5 144q210 0 333.5 -133.5t130.5 -342.5q2 -81 -36 -119q-15 -15 -37 -23t-37.5 -9t-42.5 -1h-513q0 -106 61.5 -172t174.5 -66q108 0 184 57q56 40 100 40q40 0 73.5 -33t33.5 -78q0 -68 -104 -138q-109 -74 -291 -73q-80 0 -148.5 14.5 t-134 53t-110.5 99t-73 157.5t-28 222zM358 633h405q-3 70 -24 116q-23 50 -68.5 79.5t-110 29.5t-111 -29.5t-67.5 -79.5q-23 -49 -24 -116zM476 1325q2 32 40 92l87 139q34 54 56 71q27 18 59 19q34 0 62 -19q60 -39 56 -98q-2 -32 -40 -92l-87 -140q-34 -54 -57 -70 q-26 -18 -58.5 -18.5t-62.5 18.5q-60 39 -55 98z" />
<glyph unicode="&#xea;" horiz-adv-x="1117" d="M96 534q0 257 126.5 401t337.5 144q210 0 333.5 -133.5t130.5 -342.5q2 -81 -36 -119q-15 -15 -37 -23t-37.5 -9t-42.5 -1h-513q0 -106 61.5 -172t174.5 -66q108 0 184 57q56 40 100 40q40 0 73.5 -33t33.5 -78q0 -68 -104 -138q-109 -74 -291 -73q-80 0 -148.5 14.5 t-134 53t-110.5 99t-73 157.5t-28 222zM239 1332q11 32 54 75l158 158q18 18 31 29t36.5 21.5t48 10.5t48 -10.5t36.5 -21.5t31 -29l158 -158q43 -43 54 -75q16 -54 -29 -99q-46 -46 -99 -29q-32 11 -75 54l-125 124l-125 -124q-43 -43 -74 -54q-53 -17 -100 29 q-44 45 -28 99zM358 633h405q-3 70 -24 116q-23 50 -68.5 79.5t-110 29.5t-111 -29.5t-67.5 -79.5q-23 -49 -24 -116z" />
<glyph unicode="&#xeb;" horiz-adv-x="1117" d="M96 534q0 257 126.5 401t337.5 144q210 0 333.5 -133.5t130.5 -342.5q2 -81 -36 -119q-15 -15 -37 -23t-37.5 -9t-42.5 -1h-513q0 -106 61.5 -172t174.5 -66q108 0 184 57q56 40 100 40q40 0 73.5 -33t33.5 -78q0 -68 -104 -138q-109 -74 -291 -73q-80 0 -148.5 14.5 t-134 53t-110.5 99t-73 157.5t-28 222zM198 1366q0 57 40.5 97t96.5 40t96.5 -40t40.5 -97t-40.5 -97t-96.5 -40t-96.5 40t-40.5 97zM358 633h405q-3 70 -24 116q-23 50 -68.5 79.5t-110 29.5t-111 -29.5t-67.5 -79.5q-23 -49 -24 -116zM660 1366q0 57 40.5 97t97 40t97 -40 t40.5 -97t-40.5 -97t-97 -40t-97 40t-40.5 97z" />
<glyph unicode="&#xec;" horiz-adv-x="563" d="M14 1529q-5 59 56 98q29 18 62 19q32 0 58 -19q23 -16 57 -71l87 -139q38 -60 40 -92q5 -59 -56 -98q-30 -18 -62.5 -18.5t-57.5 18.5q-23 16 -57 70l-87 140q-38 60 -40 92zM148 174v688q0 84 18 119q32 63 116 63t115 -63q17 -35 18 -119v-688q0 -84 -18 -119 q-32 -63 -115.5 -63t-115.5 63q-18 35 -18 119z" />
<glyph unicode="&#xed;" horiz-adv-x="563" d="M148 174v688q0 84 18 119q32 63 116 63t115 -63q17 -35 18 -119v-688q0 -84 -18 -119q-32 -63 -115.5 -63t-115.5 63q-18 35 -18 119zM191 1325q2 32 40 92l87 139q34 54 57 71q27 18 58 19q34 0 63 -19q60 -39 55 -98q-2 -32 -40 -92l-87 -140q-34 -54 -56 -70 q-26 -18 -59 -18.5t-62 18.5q-61 39 -56 98z" />
<glyph unicode="&#xee;" horiz-adv-x="563" d="M-46 1332q11 32 54 75l158 158q18 18 31 29t36.5 21.5t48 10.5t48 -10.5t36.5 -21.5t31 -29l158 -158q43 -43 54 -75q16 -54 -28 -99q-46 -46 -100 -29q-32 11 -74 54l-125 124l-125 -124q-43 -43 -75 -54q-53 -17 -99 29q-45 45 -29 99zM148 174v688q0 84 18 119 q32 63 116 63t115 -63q17 -35 18 -119v-688q0 -84 -18 -119q-32 -63 -115.5 -63t-115.5 63q-18 35 -18 119z" />
<glyph unicode="&#xef;" horiz-adv-x="563" d="M-69 1366q0 57 40.5 97t97 40t97 -40t40.5 -97t-40.5 -97t-97 -40t-97 40t-40.5 97zM148 174v688q0 84 18 119q32 63 116 63t115 -63q17 -35 18 -119v-688q0 -84 -18 -119q-32 -63 -115.5 -63t-115.5 63q-18 35 -18 119zM357 1366q0 57 40.5 97t97 40t97 -40t40.5 -97 t-40.5 -97t-97 -40t-97 40t-40.5 97z" />
<glyph unicode="&#xf0;" horiz-adv-x="1110" d="M115 520q0 147 25.5 240t92.5 164q66 69 183 100q59 16 119 16q25 0 36 -2l-52 105h-148q-62 0 -90 14q-49 26 -50 88q0 65 50 88q28 14 90 15h56q-1 6 -1 18q0 48 40 82.5t90 34.5q37 0 64 -20q30 -22 63 -90l12 -25h104q61 0 89 -15q49 -24 49 -88q0 -62 -49 -88 q-28 -14 -88 -14l68 -135q76 -148 101.5 -244.5t25.5 -243.5q0 -148 -25.5 -241.5t-92.5 -163.5q-123 -127 -322 -127t-322 127q-68 71 -93 164t-25 241zM381 520q0 -93 11 -152t46 -96q45 -45 117 -45q74 0 119 45q35 36 45 94.5t10 153.5q0 94 -10 152t-45 94 q-45 45 -119 45q-72 0 -117 -45q-35 -37 -46 -95.5t-11 -150.5z" />
<glyph unicode="&#xf1;" horiz-adv-x="1173" d="M148 174v720q0 52 4 74.5t16 45.5q14 28 45.5 44.5t69.5 16.5q52 0 85 -31q28 -26 40 -77q49 54 120 83t147 29q158 0 252 -94q60 -60 84 -134t24 -169v-508q0 -84 -17 -119q-32 -63 -116 -63t-116 63q-17 35 -17 119v471q0 99 -51.5 146t-124.5 47t-125.5 -47 t-52.5 -146v-471q0 -84 -18 -119q-32 -63 -115.5 -63t-115.5 63q-18 35 -18 119zM217 1365q0 50 57 95q46 37 86.5 50.5t94.5 13.5q46 0 80.5 -10t81.5 -35q61 -35 108.5 -35t89.5 33q37 27 67 26q44 0 69 -30q22 -26 22 -65q0 -50 -58 -95q-46 -37 -86.5 -50.5t-93.5 -13.5 q-46 0 -80.5 10t-82.5 35q-61 35 -108 35t-89 -33q-37 -27 -67 -26q-44 0 -69 30q-22 26 -22 65z" />
<glyph unicode="&#xf2;" horiz-adv-x="1114" d="M104 533.5q0 152.5 26.5 246.5t95.5 168q125 131 331 131t331 -131q70 -74 96 -168t26 -246.5t-26.5 -246.5t-95.5 -168q-125 -131 -331 -131t-331 131q-70 74 -96 168t-26 246.5zM290 1529q-5 59 55 98q30 18 62.5 18.5t58.5 -18.5q23 -16 56 -71l87 -139q38 -60 40 -92 q5 -59 -55 -98q-29 -18 -63 -19q-32 0 -58 19q-23 16 -56 70l-87 140q-38 60 -40 92zM371 533.5q0 -97.5 12 -159.5t50 -99q46 -46 124 -46t124 46q38 37 50 99t12 159.5t-12 159.5t-50 99q-46 46 -124 46t-124 -46q-38 -37 -50 -99t-12 -159.5z" />
<glyph unicode="&#xf3;" horiz-adv-x="1114" d="M104 533.5q0 152.5 26.5 246.5t95.5 168q125 131 331 131t331 -131q70 -74 96 -168t26 -246.5t-26.5 -246.5t-95.5 -168q-125 -131 -331 -131t-331 131q-70 74 -96 168t-26 246.5zM371 533.5q0 -97.5 12 -159.5t50 -99q46 -46 124 -46t124 46q38 37 50 99t12 159.5 t-12 159.5t-50 99q-46 46 -124 46t-124 -46q-38 -37 -50 -99t-12 -159.5zM467 1325q2 32 40 92l87 139q34 54 56 71q26 18 58.5 18.5t62.5 -18.5q60 -39 55 -98q-2 -32 -40 -92l-87 -140q-34 -54 -56 -70q-27 -18 -58 -19q-34 0 -63 19q-60 39 -55 98z" />
<glyph unicode="&#xf4;" horiz-adv-x="1114" d="M104 533.5q0 152.5 26.5 246.5t95.5 168q125 131 331 131t331 -131q70 -74 96 -168t26 -246.5t-26.5 -246.5t-95.5 -168q-125 -131 -331 -131t-331 131q-70 74 -96 168t-26 246.5zM229 1332q11 32 55 75l157 158q18 18 31 29t36.5 21.5t48.5 10.5t48.5 -10.5t36 -21.5 t31.5 -29l157 -158q43 -43 55 -75q16 -54 -29 -99q-46 -46 -99 -29q-32 11 -75 54l-125 124l-125 -124q-43 -43 -75 -54q-53 -17 -99 29q-45 45 -29 99zM371 533.5q0 -97.5 12 -159.5t50 -99q46 -46 124 -46t124 46q38 37 50 99t12 159.5t-12 159.5t-50 99q-46 46 -124 46 t-124 -46q-38 -37 -50 -99t-12 -159.5z" />
<glyph unicode="&#xf5;" horiz-adv-x="1114" d="M104 533.5q0 152.5 26.5 246.5t95.5 168q125 131 331 131t331 -131q70 -74 96 -168t26 -246.5t-26.5 -246.5t-95.5 -168q-125 -131 -331 -131t-331 131q-70 74 -96 168t-26 246.5zM179 1365q0 50 58 95q46 37 86.5 50.5t93.5 13.5q46 0 80.5 -10t82.5 -35q61 -35 108 -35 t89 33q37 27 67 26q44 0 69 -30q22 -26 22 -65q0 -50 -57 -95q-46 -37 -86.5 -50.5t-94.5 -13.5q-46 0 -80.5 10t-81.5 35q-61 35 -108.5 35t-89.5 -33q-37 -27 -67 -26q-44 0 -69 30q-22 26 -22 65zM371 533.5q0 -97.5 12 -159.5t50 -99q46 -46 124 -46t124 46q38 37 50 99 t12 159.5t-12 159.5t-50 99q-46 46 -124 46t-124 -46q-38 -37 -50 -99t-12 -159.5z" />
<glyph unicode="&#xf6;" horiz-adv-x="1114" d="M104 533.5q0 152.5 26.5 246.5t95.5 168q125 131 331 131t331 -131q70 -74 96 -168t26 -246.5t-26.5 -246.5t-95.5 -168q-125 -131 -331 -131t-331 131q-70 74 -96 168t-26 246.5zM188 1366q0 57 40 97t97.5 40t97.5 -40t40 -97t-40 -97t-97.5 -40t-97.5 40t-40 97z M371 533.5q0 -97.5 12 -159.5t50 -99q46 -46 124 -46t124 46q38 37 50 99t12 159.5t-12 159.5t-50 99q-46 46 -124 46t-124 -46q-38 -37 -50 -99t-12 -159.5zM651 1366q0 57 40 97t97.5 40t97.5 -40t40 -97t-40 -97t-97.5 -40t-97.5 40t-40 97z" />
<glyph unicode="&#xf7;" d="M94 584.5q0 74.5 59 105.5q30 15 109 16h588q80 0 109 -16q58 -31 58.5 -105.5t-58.5 -105.5q-30 -15 -109 -15h-588q-80 0 -109 15q-59 31 -59 105.5zM378 159.5q0 73.5 52 126t126 52.5t127 -52.5t53 -126t-53 -125.5t-127 -52t-126 52t-52 125.5zM378 1009.5 q0 73.5 52 126t126 52.5t127 -52.5t53 -126t-53 -126t-127 -52.5t-126 52.5t-52 126z" />
<glyph unicode="&#xf8;" horiz-adv-x="1113" d="M104 534q0 152 26.5 246t95.5 168q125 131 330 131q105 0 197 -38l27 46q30 49 55 65q43 27 92 -3t46 -80q-3 -31 -31 -78l-38 -62q59 -71 82 -162.5t23 -232.5q0 -153 -26.5 -247t-95.5 -168q-125 -131 -331 -131q-110 0 -196 38l-28 -49q-30 -49 -54 -64 q-43 -27 -92.5 3t-46.5 80q3 31 31 78l39 64q-59 70 -82 161.5t-23 234.5zM371 534q0 -112 21 -163l260 442q-38 25 -96 25q-78 0 -124 -46q-38 -38 -49.5 -99.5t-11.5 -158.5zM457 255q41 -26 99 -26q78 0 125 47q38 37 49.5 98.5t11.5 159.5q0 111 -23 163z" />
<glyph unicode="&#xf9;" horiz-adv-x="1173" d="M139 385v508q0 84 18 119q32 63 115.5 63t115.5 -63q17 -35 18 -119v-471q0 -99 51.5 -146t124 -47t125.5 47t53 146v471q0 84 17 119q32 63 116 63t116 -63q17 -35 17 -119v-720q0 -52 -3.5 -74.5t-15.5 -45.5q-14 -28 -45.5 -44.5t-69.5 -16.5q-52 0 -85 31 q-28 26 -40 77q-49 -54 -120.5 -83t-146.5 -29q-158 0 -252 94q-60 60 -84.5 134t-24.5 169zM313 1529q-5 59 56 98q29 18 62 19q32 0 58 -19q23 -16 57 -71l87 -139q38 -60 40 -92q5 -59 -56 -98q-30 -18 -62.5 -18.5t-57.5 18.5q-23 16 -57 70l-87 140q-38 60 -40 92z" />
<glyph unicode="&#xfa;" horiz-adv-x="1173" d="M139 385v508q0 84 18 119q32 63 115.5 63t115.5 -63q17 -35 18 -119v-471q0 -99 51.5 -146t124 -47t125.5 47t53 146v471q0 84 17 119q32 63 116 63t116 -63q17 -35 17 -119v-720q0 -52 -3.5 -74.5t-15.5 -45.5q-14 -28 -45.5 -44.5t-69.5 -16.5q-52 0 -85 31 q-28 26 -40 77q-49 -54 -120.5 -83t-146.5 -29q-158 0 -252 94q-60 60 -84.5 134t-24.5 169zM490 1325q2 32 40 92l87 139q34 54 57 71q27 18 58 19q34 0 63 -19q60 -39 55 -98q-2 -32 -40 -92l-87 -140q-34 -54 -56 -70q-26 -18 -59 -18.5t-62 18.5q-61 39 -56 98z" />
<glyph unicode="&#xfb;" horiz-adv-x="1173" d="M139 385v508q0 84 18 119q32 63 115.5 63t115.5 -63q17 -35 18 -119v-471q0 -99 51.5 -146t124 -47t125.5 47t53 146v471q0 84 17 119q32 63 116 63t116 -63q17 -35 17 -119v-720q0 -52 -3.5 -74.5t-15.5 -45.5q-14 -28 -45.5 -44.5t-69.5 -16.5q-52 0 -85 31 q-28 26 -40 77q-49 -54 -120.5 -83t-146.5 -29q-158 0 -252 94q-60 60 -84.5 134t-24.5 169zM253 1332q11 32 54 75l158 158q18 18 31 29t36.5 21.5t48 10.5t48 -10.5t36.5 -21.5t31 -29l158 -158q43 -43 54 -75q16 -54 -28 -99q-46 -46 -100 -29q-32 11 -74 54l-125 124 l-125 -124q-43 -43 -75 -54q-53 -17 -99 29q-45 45 -29 99z" />
<glyph unicode="&#xfc;" horiz-adv-x="1173" d="M139 385v508q0 84 18 119q32 63 115.5 63t115.5 -63q17 -35 18 -119v-471q0 -99 51.5 -146t124 -47t125.5 47t53 146v471q0 84 17 119q32 63 116 63t116 -63q17 -35 17 -119v-720q0 -52 -3.5 -74.5t-15.5 -45.5q-14 -28 -45.5 -44.5t-69.5 -16.5q-52 0 -85 31 q-28 26 -40 77q-49 -54 -120.5 -83t-146.5 -29q-158 0 -252 94q-60 60 -84.5 134t-24.5 169zM212 1366q0 57 40.5 97t97 40t96.5 -40t40 -97t-40 -97t-96.5 -40t-97 40t-40.5 97zM675 1366q0 57 40.5 97t96.5 40t96.5 -40t40.5 -97t-40.5 -97t-96.5 -40t-96.5 40t-40.5 97z " />
<glyph unicode="&#xfd;" horiz-adv-x="940" d="M47 992q12 37 46.5 60t77.5 23q30 0 51.5 -9.5t36 -31t22.5 -39t18 -48.5l170 -528l172 528q10 31 18 48.5t22.5 39t36 31t51.5 9.5q43 0 77.5 -23t46.5 -60q13 -38 -15 -124l-360 -1043q-27 -81 -81 -136q-83 -84 -218 -84q-71 0 -102 16q-58 31 -58.5 105.5t58.5 105.5 q25 12 65 12q42 0 71 21.5t47 77.5l38 113l-276 812q-28 86 -15 124zM382 1325q2 32 40 92l87 139q34 54 56 71q27 18 59 19q34 0 62 -19q60 -39 55 -98q-2 -32 -40 -92l-87 -140q-34 -54 -56 -70q-26 -18 -58.5 -18.5t-62.5 18.5q-60 39 -55 98z" />
<glyph unicode="&#xfe;" horiz-adv-x="1145" d="M148 -217v1501q0 84 18 119q32 63 116 63t115 -63q17 -35 18 -119v-311q92 106 258 106q165 0 258 -96q37 -38 60.5 -87t33.5 -112t13 -117t3 -132q0 -80 -3 -134.5t-13 -117.5t-33.5 -112t-60.5 -87q-93 -96 -259 -96q-84 0 -145 23t-112 78v-306q0 -84 -18 -119 q-32 -63 -115.5 -63t-115.5 63q-18 35 -18 119zM415 535q0 -57 3 -98.5t14 -83t30.5 -67t53.5 -41.5t81 -16q46 0 79 16t51.5 41.5t30 67t14.5 82.5t3 99q0 73 -6 120.5t-24 93t-55.5 67.5t-94.5 22t-94.5 -22t-55.5 -67.5t-24 -93t-6 -120.5z" />
<glyph unicode="&#xff;" horiz-adv-x="940" d="M47 992q12 37 46.5 60t77.5 23q30 0 51.5 -9.5t36 -31t22.5 -39t18 -48.5l170 -528l172 528q10 31 18 48.5t22.5 39t36 31t51.5 9.5q43 0 77.5 -23t46.5 -60q13 -38 -15 -124l-360 -1043q-27 -81 -81 -136q-83 -84 -218 -84q-71 0 -102 16q-58 31 -58.5 105.5t58.5 105.5 q25 12 65 12q42 0 71 21.5t47 77.5l38 113l-276 812q-28 86 -15 124zM103 1366q0 57 40.5 97t97 40t97 -40t40.5 -97t-40.5 -97t-97 -40t-97 40t-40.5 97zM566 1366q0 57 40.5 97t97 40t97 -40t40.5 -97t-40.5 -97t-97 -40t-97 40t-40.5 97z" />
<glyph unicode="&#x152;" horiz-adv-x="1977" d="M119 729q0 100 1.5 156t9 127.5t23.5 117.5t44 95t71 92q152 154 391 153q170 0 287 -98q11 28 29.5 46.5t45 27.5t43.5 10.5t46 1.5h599q80 0 112 -16q28 -14 44 -44t16 -67t-16.5 -66.5t-43.5 -43.5q-32 -16 -112 -17h-512v-342h414q80 0 111 -16q28 -14 44.5 -44 t16.5 -67t-16.5 -66.5t-44.5 -43.5q-32 -16 -111 -17h-414v-354h512q80 0 112 -16q28 -14 44 -44t16 -67t-16.5 -66.5t-43.5 -44.5q-32 -16 -112 -16h-599q-29 0 -46 1.5t-43.5 11t-44.5 27.5q-19 19 -30 45q-116 -97 -287 -97q-240 0 -391 153q-43 43 -71 92.5t-44 95 t-23.5 117t-9 127.5t-1.5 156zM406 729q0 -204 14 -282.5t56 -125.5q70 -79 183.5 -79t183.5 79q42 47 56 125.5t14 282.5t-14 283.5t-56 126.5q-68 78 -183.5 78t-183.5 -78q-42 -47 -56 -126.5t-14 -283.5z" />
<glyph unicode="&#x153;" horiz-adv-x="1763" d="M104 533.5q0 152.5 26.5 246.5t95.5 168q125 131 331 131q213 0 329 -140q120 140 321 140q209 0 332.5 -133.5t130.5 -342.5q2 -81 -36 -119q-15 -15 -37 -23t-37.5 -9t-41.5 -1h-513q0 -106 61 -172t174 -66q108 0 184 57q56 40 100 40q40 0 73.5 -33t33.5 -78 q0 -68 -104 -138q-110 -74 -291 -73q-232 0 -356 136q-114 -136 -323 -136q-206 0 -331 131q-70 74 -96 168t-26 246.5zM371 533.5q0 -97.5 12 -159.5t50 -99q46 -46 124 -46t124 46q38 37 50 99t12 159.5t-12 159.5t-50 99q-46 46 -124 46t-124 -46q-38 -37 -50 -99 t-12 -159.5zM1005 633h404q-3 70 -24 116q-23 50 -68.5 79.5t-110 29.5t-110.5 -29.5t-68 -79.5q-22 -49 -23 -116z" />
<glyph unicode="&#x178;" horiz-adv-x="1105" d="M43 1341q1 33 20.5 62.5t54.5 46.5q33 16 66 16q37 0 67 -21q19 -14 32 -33t35 -64l235 -474l234 474q23 45 36 64t32 33q30 22 67 21q34 0 66 -16q35 -17 54.5 -46.5t20.5 -62.5q1 -24 -6.5 -44.5t-30.5 -67.5l-330 -658v-387q0 -52 -3.5 -75.5t-15.5 -49.5 q-16 -31 -49.5 -49t-74.5 -18t-74.5 18.5t-49.5 48.5q-12 26 -15.5 49.5t-3.5 75.5v387l-330 658q-23 47 -30.5 67.5t-6.5 44.5zM185 1731.5q0 56.5 40.5 97t97 40.5t97 -40.5t40.5 -97t-40.5 -97t-97 -40.5t-97 40.5t-40.5 97zM648 1731.5q0 56.5 40.5 97t97 40.5t97 -40.5 t40.5 -97t-40.5 -97t-97 -40.5t-97 40.5t-40.5 97z" />
<glyph unicode="&#x2c6;" d="M228 1332q11 32 55 75l157 158q18 18 31 29t36.5 21.5t48.5 10.5t48.5 -10.5t36 -21.5t31.5 -29l157 -158q43 -43 55 -75q16 -54 -29 -99q-46 -46 -99 -29q-32 11 -75 54l-125 124l-125 -124q-43 -43 -75 -54q-53 -17 -99 29q-45 45 -29 99z" />
<glyph unicode="&#x2dc;" d="M178 1365q0 50 58 95q46 37 86 50.5t94 13.5q46 0 80.5 -10t82.5 -35q61 -35 108 -35t89 33q37 27 67 26q44 0 69 -30q22 -26 22 -65q0 -50 -57 -95q-46 -37 -86.5 -50.5t-94.5 -13.5q-46 0 -80.5 10t-81.5 35q-61 35 -108.5 35t-89.5 -33q-37 -27 -67 -26q-44 0 -69 30 q-22 26 -22 65z" />
<glyph unicode="&#x2000;" horiz-adv-x="1039" />
<glyph unicode="&#x2001;" horiz-adv-x="2078" />
<glyph unicode="&#x2002;" horiz-adv-x="1039" />
<glyph unicode="&#x2003;" horiz-adv-x="2078" />
<glyph unicode="&#x2004;" horiz-adv-x="692" />
<glyph unicode="&#x2005;" horiz-adv-x="519" />
<glyph unicode="&#x2006;" horiz-adv-x="346" />
<glyph unicode="&#x2007;" horiz-adv-x="346" />
<glyph unicode="&#x2008;" horiz-adv-x="259" />
<glyph unicode="&#x2009;" horiz-adv-x="415" />
<glyph unicode="&#x200a;" horiz-adv-x="114" />
<glyph unicode="&#x2010;" horiz-adv-x="872" d="M113 584.5q0 74.5 58 105.5q30 15 110 16h311q80 0 109 -16q58 -31 58.5 -105.5t-58.5 -105.5q-30 -15 -109 -15h-311q-80 0 -110 15q-58 31 -58 105.5z" />
<glyph unicode="&#x2011;" horiz-adv-x="872" d="M113 584.5q0 74.5 58 105.5q30 15 110 16h311q80 0 109 -16q58 -31 58.5 -105.5t-58.5 -105.5q-30 -15 -109 -15h-311q-80 0 -110 15q-58 31 -58 105.5z" />
<glyph unicode="&#x2012;" horiz-adv-x="872" d="M113 584.5q0 74.5 58 105.5q30 15 110 16h311q80 0 109 -16q58 -31 58.5 -105.5t-58.5 -105.5q-30 -15 -109 -15h-311q-80 0 -110 15q-58 31 -58 105.5z" />
<glyph unicode="&#x2013;" d="M94 584.5q0 74.5 59 105.5q30 15 109 16h588q80 0 109 -16q58 -31 58.5 -105.5t-58.5 -105.5q-30 -15 -109 -15h-588q-80 0 -109 15q-59 31 -59 105.5z" />
<glyph unicode="&#x2014;" horiz-adv-x="2104" d="M94 583.5q0 74.5 59 105.5q30 15 109 16h1580q80 0 110 -16q58 -31 58 -105.5t-58 -105.5q-30 -15 -110 -15h-1580q-80 0 -109 15q-59 31 -59 105.5z" />
<glyph unicode="&#x2018;" horiz-adv-x="577" d="M106 1005q-6 40 20 116l71 212q25 76 54 105q33 33 84 32q44 0 86.5 -27.5t49.5 -77.5q6 -40 -19 -117l-71 -212q-25 -76 -54 -104q-33 -33 -84 -33q-44 0 -87 28t-50 78z" />
<glyph unicode="&#x2019;" horiz-adv-x="577" d="M106 1005q-6 40 20 116l71 212q25 76 54 105q33 33 84 32q44 0 86.5 -27.5t49.5 -77.5q6 -40 -19 -117l-71 -212q-25 -76 -54 -104q-33 -33 -84 -33q-44 0 -87 28t-50 78z" />
<glyph unicode="&#x201a;" horiz-adv-x="577" d="M106 -171q-6 40 20 117l71 212q25 76 54 104q33 33 84 33q44 0 86.5 -27.5t49.5 -78.5q6 -40 -19 -116l-71 -212q-25 -76 -54 -105q-33 -33 -84 -32q-44 0 -87 27.5t-50 77.5z" />
<glyph unicode="&#x201c;" horiz-adv-x="1027" d="M106 1005q-6 40 20 116l71 212q25 76 54 105q33 33 84 32q44 0 86.5 -27.5t49.5 -77.5q6 -40 -19 -117l-71 -212q-25 -76 -54 -104q-33 -33 -84 -33q-44 0 -87 28t-50 78zM556 1006q-6 40 19 116l71 212q15 45 25.5 65.5t28.5 39.5q33 33 84 32q44 0 86.5 -27.5 t50.5 -77.5q6 -40 -20 -117l-71 -212q-15 -45 -25 -65.5t-29 -38.5q-33 -33 -84 -33q-44 0 -86.5 28t-49.5 78z" />
<glyph unicode="&#x201d;" horiz-adv-x="1027" d="M106 1005q-6 40 20 116l71 212q25 76 54 105q33 33 84 32q44 0 86.5 -27.5t49.5 -77.5q6 -40 -19 -117l-71 -212q-25 -76 -54 -104q-33 -33 -84 -33q-44 0 -87 28t-50 78zM556 1006q-6 40 19 116l71 212q15 45 25.5 65.5t28.5 39.5q33 33 84 32q44 0 86.5 -27.5 t50.5 -77.5q6 -40 -20 -117l-71 -212q-15 -45 -25 -65.5t-29 -38.5q-33 -33 -84 -33q-44 0 -86.5 28t-49.5 78z" />
<glyph unicode="&#x201e;" horiz-adv-x="1027" d="M106 -159q-6 40 20 117l71 212q25 76 54 104q33 33 84 33q44 0 86.5 -27.5t49.5 -77.5q6 -40 -19 -117l-71 -212q-25 -76 -54 -104q-33 -33 -84 -33q-44 0 -87 27.5t-50 77.5zM556 -158q-6 40 19 117l71 212q15 45 25.5 65.5t28.5 38.5q33 33 84 33q44 0 86.5 -27.5 t50.5 -77.5q6 -40 -20 -117l-71 -212q-15 -45 -25 -65.5t-29 -38.5q-33 -33 -84 -33q-44 0 -86.5 27.5t-49.5 77.5z" />
<glyph unicode="&#x2022;" horiz-adv-x="1114" d="M223 584.5q0 138.5 98 236.5t236 98t236 -98t98 -236.5t-98 -236t-236 -97.5t-236 97.5t-98 236z" />
<glyph unicode="&#x2026;" horiz-adv-x="1710" d="M113 172q0 74 52 126t126 52t127 -52t53 -126t-53 -126t-127 -52t-126 52t-52 126zM678 172q0 74 52 126t126 52t126 -52t52 -126t-52 -126t-126 -52t-126 52t-52 126zM1241 172q0 74 52.5 126t126 52t125.5 -52t52 -126t-52 -126t-125.5 -52t-126 52t-52.5 126z" />
<glyph unicode="&#x202f;" horiz-adv-x="415" />
<glyph unicode="&#x2039;" horiz-adv-x="747" d="M69 554l318 318q33 33 50.5 46t38.5 20q61 20 119 -35q54 -54 35 -118q-11 -36 -66 -90l-141 -141l141 -141q54 -54 66 -90q19 -63 -35 -118q-57 -55 -119 -35q-22 7 -39 20t-50 46z" />
<glyph unicode="&#x203a;" horiz-adv-x="747" d="M118 323q11 36 65 90l142 141l-142 141q-54 54 -65 90q-19 63 35 118q57 55 118 35q22 -7 39.5 -20t49.5 -46l319 -318l-319 -318q-33 -33 -50 -46t-39 -20q-61 -20 -118 35q-54 55 -35 118z" />
<glyph unicode="&#x205f;" horiz-adv-x="519" />
<glyph unicode="&#x20ac;" horiz-adv-x="1402" d="M103 565q0 65 50 88q28 14 90 15h15v129h-15q-62 0 -90 14q-49 26 -50 88q0 65 50 88q28 14 90 14h25q11 100 43 175t98 141q152 154 388 153q128 0 216 -31.5t157 -99.5q65 -62 95 -130.5t30 -121.5q0 -71 -38 -108q-39 -39 -99 -39q-50 0 -82 25q-37 30 -70 101 q-68 151 -215 151q-103 0 -174 -78q-46 -53 -59 -138h179q61 0 89 -14q49 -24 50 -88q0 -62 -50 -88q-28 -14 -89 -14h-192v-129h192q61 0 89 -15q49 -24 50 -88q0 -62 -50 -88q-28 -14 -89 -14h-180q13 -89 60 -144q70 -78 174 -77q147 0 215 150q34 72 70 102q32 25 82 24 q60 0 99 -39q38 -38 38 -108q0 -52 -30 -121t-95 -131q-70 -68 -157.5 -99.5t-215.5 -31.5q-237 0 -388 153q-66 66 -98 142t-44 180h-24q-62 0 -90 14q-50 26 -50 88z" />
<glyph unicode="&#x2122;" horiz-adv-x="1893" d="M85 1371q0 53 40 74q24 13 77 13h428q52 0 76 -13q41 -20 40.5 -73.5t-40.5 -74.5q-24 -13 -76 -13h-116v-574q0 -59 -13 -86q-24 -48 -85.5 -48.5t-84.5 48.5q-13 27 -14 86v574h-115q-53 0 -77 13q-40 21 -40 74zM871 710v609q0 79 33 111q35 35 86 34q40 0 65 -16 q29 -16 57 -69l207 -387l207 387q29 52 57 69q25 16 65 16q51 0 86 -34q33 -32 32 -111v-609q0 -59 -13 -86q-25 -48 -85 -48.5t-85 48.5q-13 27 -13 86v388l-135 -260q-16 -31 -46.5 -50.5t-69.5 -19.5t-69 19.5t-47 50.5l-135 260v-388q0 -59 -13 -86q-25 -48 -85.5 -48.5 t-84.5 48.5q-14 27 -14 86z" />
<glyph unicode="&#xe000;" horiz-adv-x="1075" d="M0 1075h1075v-1075h-1075v1075z" />
<glyph unicode="&#xfb01;" horiz-adv-x="1246" d="M38 934.5q0 62.5 49 88.5q28 14 90 14h28v131q0 60 17.5 113.5t53 97t96.5 69.5t141 26h14q75 0 110 -19q53 -28 53 -95q0 -69 -53 -95q-27 -13 -80 -17q-86 -5 -86 -94v-117h80q62 0 90 -14q49 -26 49 -88.5t-49 -87.5q-28 -14 -90 -14h-80v-659q0 -84 -17 -119 q-32 -63 -116 -63t-116 63q-17 35 -17 119v659h-28q-62 0 -90 14q-49 25 -49 87.5zM811 1367.5q0 63.5 45 108.5t108.5 45t108.5 -45t45 -108.5t-45 -109t-108.5 -45.5t-108.5 45.5t-45 109zM831 174v688q0 84 18 119q32 63 116 63t115 -63q17 -35 18 -119v-688 q0 -84 -18 -119q-32 -63 -115.5 -63t-115.5 63q-18 35 -18 119z" />
<glyph unicode="&#xfb02;" horiz-adv-x="1348" d="M38 934.5q0 62.5 49 88.5q28 14 90 14h28v131q0 60 17.5 113.5t53 97t96.5 69.5t141 26h14q75 0 110 -19q53 -28 53 -95q0 -69 -53 -95q-27 -13 -80 -17q-86 -5 -86 -94v-117h80q62 0 90 -14q49 -26 49 -88.5t-49 -87.5q-28 -14 -90 -14h-80v-659q0 -84 -17 -119 q-32 -63 -116 -63t-116 63q-17 35 -17 119v659h-28q-62 0 -90 14q-49 25 -49 87.5zM837 305v979q0 84 17 119q32 63 116 63t115 -63q17 -35 18 -119v-965q0 -89 86 -94q53 -3 80 -16q53 -27 53 -95t-53 -96q-36 -18 -110 -18h-14q-80 0 -141 25.5t-97 69t-53 97t-17 113.5z " />
<glyph unicode="&#xfb03;" horiz-adv-x="2002" d="M1568 1367.5q0 63.5 45 108.5t108.5 45t108.5 -45t45 -108.5t-45 -109t-108.5 -45.5t-108.5 45.5t-45 109zM1588 174v688q0 84 18 119q32 63 116 63t115 -63q17 -35 18 -119v-688q0 -84 -18 -119q-32 -63 -115.5 -63t-115.5 63q-18 35 -18 119zM758 934.5q0 62.5 49 88.5 q28 14 90 14h28v131q0 60 17.5 113.5t53 97t96.5 69.5t141 26h14q75 0 110 -19q53 -28 53 -95q0 -69 -53 -95q-27 -13 -80 -17q-86 -5 -86 -94v-117h80q62 0 90 -14q49 -26 49 -88.5t-49 -87.5q-28 -14 -90 -14h-80v-659q0 -84 -17 -119q-32 -63 -116 -63t-116 63 q-17 35 -17 119v659h-28q-62 0 -90 14q-49 25 -49 87.5zM38 934.5q0 62.5 49 88.5q28 14 90 14h28v131q0 60 17.5 113.5t53 97t96.5 69.5t141 26h14q75 0 110 -19q53 -28 53 -95q0 -69 -53 -95q-27 -13 -80 -17q-86 -5 -86 -94v-117h80q62 0 90 -14q49 -26 49 -88.5 t-49 -87.5q-28 -14 -90 -14h-80v-659q0 -84 -17 -119q-32 -63 -116 -63t-116 63q-17 35 -17 119v659h-28q-62 0 -90 14q-49 25 -49 87.5z" />
<glyph unicode="&#xfb04;" horiz-adv-x="2092" d="M1580 305v979q0 84 18 119q32 63 115.5 63t115.5 -63q17 -35 18 -119v-965q0 -89 86 -94q53 -3 79 -16q53 -27 54 -95q0 -68 -54 -96q-36 -18 -109 -18h-14q-80 0 -141 25.5t-97 69t-53.5 97t-17.5 113.5zM758 934.5q0 62.5 49 88.5q28 14 90 14h28v131q0 60 17.5 113.5 t53 97t96.5 69.5t141 26h14q75 0 110 -19q53 -28 53 -95q0 -69 -53 -95q-27 -13 -80 -17q-86 -5 -86 -94v-117h80q62 0 90 -14q49 -26 49 -88.5t-49 -87.5q-28 -14 -90 -14h-80v-659q0 -84 -17 -119q-32 -63 -116 -63t-116 63q-17 35 -17 119v659h-28q-62 0 -90 14 q-49 25 -49 87.5zM38 934.5q0 62.5 49 88.5q28 14 90 14h28v131q0 60 17.5 113.5t53 97t96.5 69.5t141 26h14q75 0 110 -19q53 -28 53 -95q0 -69 -53 -95q-27 -13 -80 -17q-86 -5 -86 -94v-117h80q62 0 90 -14q49 -26 49 -88.5t-49 -87.5q-28 -14 -90 -14h-80v-659 q0 -84 -17 -119q-32 -63 -116 -63t-116 63q-17 35 -17 119v659h-28q-62 0 -90 14q-49 25 -49 87.5z" />
</font>
</defs>
</svg>
