<?xml version="1.0" standalone="no"?>
<!DOCTYPE svg PUBLIC "-//W3C//DTD SVG 1.1//EN" "http://www.w3.org/Graphics/SVG/1.1/DTD/svg11.dtd" >
<svg xmlns="http://www.w3.org/2000/svg">
<metadata>
This is a custom SVG webfont generated by Font Squirrel.
Copyright   : 2010 AlbertJan Pool published by FSI FontShop International GmbH
Designer    : AlbertJan Pool
Foundry     : FSI
Foundry URL : httpwwwfontfontcom
</metadata>
<defs>
<font id="DINRoundProMedium" horiz-adv-x="1091" >
<font-face units-per-em="2048" ascent="1565" descent="-483" />
<missing-glyph horiz-adv-x="491" />
<glyph unicode=" "  horiz-adv-x="491" />
<glyph unicode="&#x09;" horiz-adv-x="491" />
<glyph unicode="&#xa0;" horiz-adv-x="491" />
<glyph unicode="!" horiz-adv-x="680" d="M243 127q0 55 39 94t94 39t94 -39t39 -94t-39 -94t-94 -39t-94 39t-39 94zM265 577v739q0 43 2.5 61.5t14.5 38.5q28 50 94 50t94 -50q11 -20 13.5 -38.5t2.5 -61.5v-739q0 -43 -2.5 -61.5t-13.5 -39.5q-28 -50 -94.5 -50t-93.5 50q-11 20 -14 39t-3 62z" />
<glyph unicode="&#x22;" horiz-adv-x="875" d="M138 1113v216q0 66 17 95q28 46 88 46t88 -46q16 -30 16 -95v-216q0 -66 -16 -95q-27 -46 -88.5 -46t-87.5 46q-17 29 -17 95zM528 1113v216q0 66 17 95q28 46 88 46t88 -46q16 -30 16 -95v-216q0 -66 -16 -95q-27 -46 -88.5 -46t-87.5 46q-17 29 -17 95z" />
<glyph unicode="#" horiz-adv-x="1431" d="M106 517q0 54 44 80q24 14 84 14h114l53 268h-98q-59 0 -85 14q-43 26 -43 80t43 80q24 14 85 14h136l60 294q13 66 38 90q24 24 64 24q44 0 73 -28q24 -23 26.5 -56t-7.5 -69l-51 -255h277l59 294q13 66 38 90q24 24 64 24q44 0 73 -28q24 -23 27 -56t-8 -69l-51 -255 h76q61 0 85 -14q43 -26 43 -80t-43 -80q-26 -14 -85 -14h-114l-53 -268h98q61 0 85 -14q43 -26 43 -80t-43 -80q-26 -14 -85 -14h-136l-63 -318q-13 -66 -38 -90q-24 -24 -65 -23q-44 0 -72 27q-24 23 -27 56.5t7 68.5l56 279h-277l-63 -318q-13 -66 -38 -90 q-24 -24 -65 -23q-44 0 -73 27q-24 23 -26.5 56.5t7.5 68.5l55 279h-76q-59 0 -84 14q-44 26 -44 80zM551 611h276l54 268h-277z" />
<glyph unicode="$" horiz-adv-x="1210" d="M85 215q0 42 31 73q27 27 64 26q41 0 94 -36q109 -76 228 -90v458l-5 1q-176 26 -276 118q-108 98 -107 279q0 168 101 280.5t281 138.5v69q0 59 14 85q26 43 80 43t80 -43q14 -24 14 -85v-65q120 -10 260 -83q89 -46 89 -111q0 -38 -25 -68q-27 -32 -68 -31 q-38 0 -89 31q-86 52 -173 66v-443l38 -5q99 -15 160.5 -40t109.5 -68q119 -110 119 -299q0 -175 -114.5 -286.5t-306.5 -135.5v-109q0 -61 -14 -85q-26 -43 -80 -43t-80 43q-14 26 -14 85v106q-168 12 -308 95q-58 35 -80.5 62.5t-22.5 66.5zM329 1051q0 -88 53 -136 q48 -41 120 -57v409q-84 -20 -128.5 -77t-44.5 -139zM678 191q100 17 154 73.5t54 145.5q0 102 -58 151q-48 42 -150 60v-430z" />
<glyph unicode="%" horiz-adv-x="1721" d="M118 983v208q0 130 82 204.5t206 74.5q125 0 206 -74.5t81 -204.5v-208q0 -130 -81.5 -203.5t-205.5 -73.5t-206 74t-82 203zM274 989q0 -145 131.5 -145t131.5 145v197q0 145 -131.5 145t-131.5 -145v-197zM456 60q-1 25 19 67l637 1272q22 43 41 55t36.5 12t36.5 -9 q40 -19 41 -59q1 -25 -20 -67l-637 -1272q-22 -43 -41 -55t-36.5 -12t-35.5 9q-40 19 -41 59zM1028 265v208q0 130 82 205t206 75q125 0 206.5 -75t81.5 -205v-208q0 -130 -81.5 -203.5t-206.5 -73.5q-124 0 -206 74t-82 203zM1185 271q0 -145 131 -145t131 145v197 q0 145 -131 145t-131 -145v-197z" />
<glyph unicode="&#x26;" horiz-adv-x="1462" d="M140 422q0 58 17 111.5t42.5 93.5t66.5 79.5t77 67t86 60.5q-33 38 -53 64t-46 68.5t-39 87.5t-13 93q0 141 97.5 232t258.5 91q154 0 250 -92t96 -233q0 -151 -156 -258l-106 -74l307 -367q63 88 75 230q4 44 19 70q26 44 80 45q58 0 84 -46q15 -27 15 -73 q0 -34 -12 -99.5t-30 -112.5q-35 -94 -97 -167l84 -100q28 -34 38.5 -53.5t10.5 -42.5q0 -46 -40 -80q-31 -26 -68 -25q-29 0 -50.5 15.5t-51.5 50.5l-69 83q-34 -30 -61 -48.5t-79 -47t-118.5 -43t-143.5 -14.5q-224 0 -347.5 116.5t-123.5 317.5zM349 426 q0 -110 74.5 -180t187.5 -70q78 0 143.5 25.5t135.5 89.5l-346 411q-49 -34 -77 -56t-59 -57t-45 -75t-14 -88zM490 1145q0 -42 26.5 -86t86.5 -115l70 47q50 34 78 70t28 82q0 62 -41 103.5t-104 41.5q-67 0 -105.5 -40.5t-38.5 -102.5z" />
<glyph unicode="'" horiz-adv-x="485" d="M138 1113v216q0 66 17 95q28 46 88 46t88 -46q16 -30 16 -95v-216q0 -66 -16 -95q-27 -46 -88.5 -46t-87.5 46q-17 29 -17 95z" />
<glyph unicode="(" horiz-adv-x="650" d="M179 241v978q0 145 41 228q36 73 115 154q56 56 102 56q45 0 75 -31q29 -29 29 -67q0 -52 -58 -104q-39 -37 -63 -86q-32 -62 -32 -163v-953q0 -100 32 -163q25 -49 63 -86q57 -51 58 -103q0 -39 -29 -68q-30 -31 -75 -31q-46 0 -102 57q-79 81 -115 153q-41 84 -41 229z " />
<glyph unicode=")" horiz-adv-x="650" d="M110 -99q0 52 57 103q39 37 63 86q32 62 32 163v953q0 100 -32 163q-25 49 -63 86q-57 51 -57 104q0 39 28 67q30 31 75 31q46 0 102 -56q79 -81 115 -154q41 -83 41 -228v-978q0 -145 -41 -229q-36 -73 -115 -153q-56 -56 -102 -57q-45 0 -75 31q-28 29 -28 68z" />
<glyph unicode="*" horiz-adv-x="976" d="M147 948q12 20 54 45l143 86l-143 86q-41 25 -54 45q-19 35 3 72q24 38 62 36q27 -1 66 -25l136 -82v159q0 47 11 68q20 35 63 35t64 -35q11 -20 11 -68v-159l136 82q39 24 66 25q39 2 62 -36q22 -37 2 -72q-12 -20 -53 -45l-143 -86l143 -86q41 -25 53 -45 q19 -35 -2 -71q-24 -38 -62 -36q-27 1 -66 24l-136 82v-159q0 -47 -11 -67q-20 -35 -63.5 -35t-63.5 35q-11 20 -11 67v159l-136 -82q-39 -24 -66 -24q-39 -2 -62 36q-22 36 -3 71z" />
<glyph unicode="+" d="M96 568.5q0 54.5 43 79.5q24 14 85 15h228v227q0 59 14 85q26 43 80 43t80 -43q14 -24 14 -85v-227h227q61 0 85 -15q43 -26 43 -80t-43 -80q-26 -14 -85 -14h-227v-227q0 -61 -14 -85q-26 -43 -80 -43t-80 43q-14 26 -14 85v227h-228q-59 0 -85 14q-43 26 -43 80.5z" />
<glyph unicode="," horiz-adv-x="530" d="M72 -179q-5 33 14 93l90 270q20 62 45 84q27 24 63 24q35 0 67.5 -21t38.5 -60q5 -33 -14 -93l-90 -271q-20 -62 -45 -84q-27 -24 -63 -23q-35 0 -67.5 21t-38.5 60z" />
<glyph unicode="-" horiz-adv-x="874" d="M130 568.5q0 54.5 43 79.5q24 14 85 15h358q61 0 85 -15q43 -26 43 -80t-43 -80q-26 -14 -85 -14h-358q-59 0 -85 14q-43 26 -43 80.5z" />
<glyph unicode="." horiz-adv-x="571" d="M136 143.5q0 61.5 44 104.5t105.5 43t105.5 -43t44 -104.5t-44 -105.5t-105.5 -44t-105.5 44t-44 105.5z" />
<glyph unicode="/" horiz-adv-x="779" d="M32 -97q-11 34 11 100l506 1515q16 50 37 75t64 25q34 0 61.5 -19t36.5 -44q11 -34 -12 -100l-506 -1514q-16 -50 -37 -75.5t-64 -25.5q-34 0 -61.5 19t-35.5 44z" />
<glyph unicode="0" d="M125 406v647q0 189 120.5 303t299.5 114q180 0 301 -113.5t121 -303.5v-647q0 -190 -121 -304t-301 -114q-179 0 -299.5 114.5t-120.5 303.5zM334 414q0 -105 56.5 -171.5t154.5 -66.5t155.5 65.5t57.5 172.5v630q0 106 -57.5 172t-155.5 66q-97 0 -154 -66t-57 -172 v-630z" />
<glyph unicode="1" d="M184 1069q8 30 53 74l267 267q56 56 114 56q48 0 79 -30q31 -32 31 -110v-1192q0 -62 -15 -93q-26 -49 -89.5 -49t-88.5 49q-15 31 -16 93v1015l-144 -144q-27 -27 -42 -38t-31 -15q-50 -13 -91 28q-40 40 -27 89z" />
<glyph unicode="2" d="M120 103q0 31 12.5 54.5t45.5 65.5l488 611q51 65 75 120t24 123q0 91 -56 148t-155 57q-81 0 -134.5 -39t-83.5 -128q-16 -49 -41 -72q-22 -22 -64 -21q-49 0 -74 33q-25 31 -25 74q0 55 31 122t86 116q118 103 301 103q195 0 310 -102.5t115 -286.5q0 -103 -35 -178 t-113 -172l-433 -543h463q61 0 85 -14q43 -24 43 -80t-43 -80q-26 -14 -85 -14h-590q-47 0 -73 5t-47 26q-27 29 -27 72z" />
<glyph unicode="3" d="M103 314q0 48 33 81q32 32 78 32q40 0 62 -29q10 -12 23.5 -51t26.5 -62q53 -109 206 -109q104 0 171 64t67 177q0 112 -61 174t-174 64q-44 2 -66 15q-42 24 -42 77t42 76q25 14 66 15q104 2 161 60.5t57 162t-60.5 162.5t-157.5 59q-83 0 -132 -35t-74 -112 q-16 -49 -42 -72q-25 -19 -57 -20q-43 0 -74 29q-33 30 -33 80q0 92 77 178q122 140 335 140q187 0 307.5 -107.5t120.5 -292.5q0 -225 -189 -316q96 -39 150.5 -125t54.5 -216q0 -135 -62 -233.5t-162 -145t-224 -46.5q-226 0 -348 137q-80 91 -80 189z" />
<glyph unicode="4" d="M47 329q0 32 28 87l480 962q27 53 53 73q22 15 49 15q38 0 68.5 -27t30.5 -65q0 -30 -27 -83l-434 -870h329v213q0 62 15 93q26 49 89.5 49t88.5 -49q15 -31 16 -93v-213h69q63 0 90 -14q45 -26 45 -84.5t-45 -83.5q-27 -14 -90 -15h-69v-90q0 -62 -16 -93 q-26 -49 -89 -49t-89 49q-15 31 -15 93v90h-433q-75 0 -107 27q-37 28 -37 78z" />
<glyph unicode="5" d="M136 309q0 49 29 80q27 30 74 30q42 0 65 -22q25 -24 47 -91q42 -130 197 -130q100 0 157 56q42 42 55 104t13 151q0 69 -9.5 121t-32.5 96t-66 67t-106 23q-67 0 -111.5 -19.5t-82.5 -67.5q-17 -22 -42 -37q-22 -14 -59 -15q-45 0 -73 28q-30 29 -29 90v566q0 65 27 93 q27 27 91 26h548q61 0 85 -14q43 -26 43 -80t-43 -80q-26 -14 -85 -14h-477v-382q85 85 242 85q168 0 262 -94q75 -75 101 -172t26 -220q0 -132 -25 -222t-99 -164q-114 -114 -310 -113q-194 0 -306 101q-47 43 -76.5 101.5t-29.5 118.5z" />
<glyph unicode="6" d="M116 424q0 141 102 346l304 608q27 53 53 73q22 15 50 15q38 0 68 -27t30 -65q0 -30 -27 -83l-230 -460q53 23 129 23q162 0 272.5 -116.5t110.5 -305.5q0 -200 -120 -322t-310 -122q-191 0 -311.5 118t-120.5 318zM325 428q0 -116 60.5 -184t160 -68t161.5 68t62 184 q0 110 -60.5 181t-162.5 71q-99 0 -160 -67.5t-61 -184.5z" />
<glyph unicode="7" d="M127 1177v153q0 69 29.5 98.5t98.5 29.5h607q47 0 72 -5.5t46 -24.5q31 -28 31 -75q0 -30 -24 -91l-439 -1172q-23 -59 -44 -79q-23 -19 -55 -19q-36 0 -67.5 22t-35.5 56q-4 32 18 89l416 1111h-444v-93q0 -62 -15 -94q-26 -49 -89.5 -49t-89.5 49q-15 32 -15 94z" />
<glyph unicode="8" d="M96 412q0 221 201 342q-78 47 -127 126t-49 187q0 180 121.5 291.5t302.5 111.5t303.5 -112t122.5 -291q0 -108 -49.5 -187t-126.5 -126q201 -121 200 -342q0 -194 -129 -309t-321.5 -115t-320.5 115t-128 309zM305 418q0 -102 69.5 -172t171 -70t170.5 69.5t69 172 t-69 171.5t-170.5 69t-171 -69.5t-69.5 -170.5zM329 1061q0 -95 61.5 -157.5t155.5 -62.5q93 0 155 62t62 158q0 95 -61.5 158t-155.5 63t-155.5 -63t-61.5 -158z" />
<glyph unicode="9" d="M114 1026q0 200 119.5 322t310.5 122t311.5 -118t120.5 -318q0 -141 -103 -346l-304 -608q-27 -53 -53 -73q-22 -15 -49 -15q-38 0 -68 27t-30 65q0 30 26 83l231 460q-53 -23 -129 -23q-162 0 -272.5 117t-110.5 305zM323 1030q0 -110 60 -181t163 -71q99 0 160 67.5 t61 184.5q0 116 -61 184t-160.5 68t-161 -68t-61.5 -184z" />
<glyph unicode=":" horiz-adv-x="622" d="M188 143.5q0 61.5 44 104.5t105.5 43t105.5 -43t44 -104.5t-44 -105.5t-105.5 -44t-105.5 44t-44 105.5zM188 711.5q0 61.5 44 104.5t105.5 43t105.5 -43t44 -104.5t-44 -105.5t-105.5 -44t-105.5 44t-44 105.5z" />
<glyph unicode=";" horiz-adv-x="622" d="M151 -179q-5 33 14 93l90 270q20 62 45 84q27 24 62 24t68 -21t39 -60q5 -33 -14 -93l-90 -271q-20 -62 -46 -84q-27 -24 -62 -23q-35 0 -67.5 21t-38.5 60zM217 710.5q0 61.5 44 104.5t105.5 43t105.5 -43t44 -104.5t-44 -105.5t-105.5 -44t-105.5 44t-44 105.5z" />
<glyph unicode="&#x3c;" d="M155 568.5q0 25.5 8 46t26 36t33 24.5t42 22l480 240q53 27 83 27q38 0 65.5 -30.5t27.5 -68.5q0 -28 -16 -49q-19 -27 -73 -53l-389 -195l389 -194q53 -27 73 -53q15 -22 16 -50q0 -38 -27.5 -68t-65.5 -30q-30 0 -83 27l-480 239q-28 13 -42.5 22.5t-32.5 25t-26 36 t-8 46z" />
<glyph unicode="=" d="M96 365.5q0 54.5 43 79.5q24 14 85 15h643q61 0 85 -15q43 -26 43 -80t-43 -79q-26 -14 -85 -15h-643q-59 0 -85 15q-43 25 -43 79.5zM96 770q0 54 43 80q24 14 85 14h643q61 0 85 -14q43 -26 43 -80t-43 -80q-26 -14 -85 -14h-643q-59 0 -85 14q-43 26 -43 80z" />
<glyph unicode="&#x3e;" d="M172 271q0 28 15 50q19 27 73 53l389 194l-389 195q-53 27 -73 53q-15 22 -15 49q0 38 27 68.5t65 30.5q30 0 83 -27l480 -240q28 -13 43 -22t33 -24.5t26 -36t8 -46t-8 -46t-26 -36t-33 -24.5t-43 -23l-480 -239q-53 -27 -83 -27q-38 0 -65 30t-27 68z" />
<glyph unicode="?" horiz-adv-x="1045" d="M150 1120q0 57 29 123.5t81 116.5q117 111 294 110q174 0 291.5 -106.5t117.5 -278.5q0 -75 -24 -130.5t-73 -123.5l-140 -193q-40 -55 -51 -132q-6 -42 -30 -69q-29 -32 -79 -31q-48 0 -79 33q-27 30 -26 79q0 56 14 97t55 97l160 215q62 84 63 158q0 85 -55.5 141.5 t-142.5 56.5q-90 0 -146 -56q-38 -38 -60 -121q-11 -44 -28 -63q-28 -31 -76 -30q-43 0 -71 30q-24 28 -24 77zM432 127q0 55 39 94t94.5 39t94 -39t38.5 -94t-38.5 -94t-94 -39t-94.5 39t-39 94z" />
<glyph unicode="@" horiz-adv-x="1508" d="M131 335v650q0 237 121 358q119 120 351 120h303q231 0 350 -120q121 -122 121 -358v-851q0 -62 -15 -93q-26 -49 -89 -49q-46 0 -74 27q-26 26 -28 79q-55 -61 -116 -85.5t-142 -24.5q-155 0 -242 88q-67 67 -91 164.5t-24 238.5q0 142 24 240t91 165q88 88 241 88 q83 0 146 -25.5t116 -89.5l1 120q0 78 -16 128t-59 93q-77 77 -215 77h-261q-138 0 -215 -77q-43 -43 -59 -93t-16 -128v-633q0 -75 13 -110.5t51 -76.5q39 -44 39 -80q0 -44 -35 -76q-31 -27 -69 -27q-29 0 -50 14.5t-51 48.5q-54 60 -77.5 123.5t-23.5 174.5zM759 479.5 q0 -71.5 8.5 -124.5t30 -98.5t63.5 -69t104.5 -23.5t105 23.5t64.5 69t31 98.5t9 124.5t-9 124.5t-31 99t-64.5 70t-105 24t-104.5 -24t-63.5 -70t-30 -99t-8.5 -124.5z" />
<glyph unicode="A" horiz-adv-x="1275" d="M49 116q5 21 18 55l446 1189q19 52 44 76q33 31 81 30.5t81 -30.5q25 -24 44 -76l446 -1189q13 -34 18 -55q2 -10 2 -21q0 -12 -2 -25q-5 -25 -25 -45q-31 -33 -81 -33q-34 0 -60 21q-15 12 -24.5 29t-23.5 55l-73 196h-604l-73 -196q-14 -38 -23.5 -54.5t-24.5 -29.5 q-27 -22 -60 -21q-50 0 -81 33q-19 20 -25 45q-3 13 -3 25q1 11 3 21zM404 481h467l-233 638z" />
<glyph unicode="B" horiz-adv-x="1357" d="M189 135v1188q0 72 32 103.5t104 31.5h432q203 0 321.5 -107.5t118.5 -291.5q0 -112 -58 -195t-139 -114q94 -38 157 -123.5t63 -214.5q0 -197 -121 -304.5t-320 -107.5h-454q-72 0 -104 31.5t-32 103.5zM411 197h348q113 0 176 62.5t63 162.5q0 99 -63.5 160.5 t-175.5 61.5h-348v-447zM411 841h327q109 0 173.5 55t64.5 155t-64.5 155.5t-173.5 55.5h-327v-421z" />
<glyph unicode="C" horiz-adv-x="1283" d="M138 729.5q0 109.5 1.5 167.5t9.5 130t23 116t43 90.5t70 88.5q148 148 375 148q132 0 222 -37t160 -113q56 -60 84 -125t28 -110q0 -53 -30 -83q-33 -31 -76 -30q-39 0 -66 21q-28 22 -54 83q-42 97 -107 147.5t-165 50.5q-125 0 -210 -91q-55 -60 -71 -148.5 t-16 -305.5t16 -305t71 -149q85 -91 210 -91q99 0 164.5 50.5t107.5 147.5q27 61 54 83t66 21q44 0 76 -30q30 -30 30 -83q0 -45 -27.5 -109.5t-84.5 -125.5q-71 -76 -160 -113t-222 -37q-227 0 -375 148q-42 42 -70 88.5t-43 90.5t-23 116t-9.5 130.5t-1.5 168z" />
<glyph unicode="D" horiz-adv-x="1363" d="M189 135v1188q0 72 32 103.5t104 31.5h377q268 0 416 -185q71 -90 89.5 -204.5t18.5 -339.5q0 -222 -19.5 -338.5t-90.5 -207.5q-142 -183 -414 -183h-377q-72 0 -104 31.5t-32 103.5zM411 197h266q165 0 251 99q50 56 63.5 150.5t13.5 283t-13.5 282.5t-63.5 150 q-86 99 -251 100h-266v-1065z" />
<glyph unicode="E" horiz-adv-x="1231" d="M189 135v1188q0 72 32 103.5t104 31.5h671q63 0 90 -14q45 -26 45.5 -84t-45.5 -84q-27 -14 -90 -14h-585v-428h481q63 0 90 -15q45 -26 45 -84t-45 -84q-27 -14 -90 -14h-481v-440h585q63 0 90 -15q45 -26 45.5 -84t-45.5 -84q-27 -14 -90 -14h-671q-72 0 -104 31.5 t-32 103.5z" />
<glyph unicode="F" horiz-adv-x="1196" d="M189 142v1181q0 72 32 103.5t104 31.5h671q63 0 90 -14q45 -26 45.5 -84t-45.5 -84q-27 -14 -90 -14h-585v-448h481q63 0 90 -14q45 -26 45 -84.5t-45 -83.5q-27 -14 -90 -15h-481v-475q0 -43 -2.5 -61.5t-14.5 -38.5q-28 -50 -94.5 -50t-93.5 50q-11 20 -14 38.5 t-3 61.5z" />
<glyph unicode="G" horiz-adv-x="1312" d="M138 729.5q0 109.5 1.5 167.5t9.5 130t23 116t43 90.5t70 88.5q148 148 375 148q132 0 222 -37t160 -113q56 -60 84 -125t28 -110q0 -53 -30 -83q-33 -31 -76 -30q-39 0 -66 21q-28 22 -54 83q-42 97 -107 147.5t-165 50.5q-125 0 -210 -91q-55 -60 -71 -148.5 t-16 -305.5q0 -220 16.5 -308.5t69.5 -145.5q85 -91 218 -91q128 0 216 88q49 50 66 116.5t17 185.5h-185q-63 0 -90 15q-45 26 -45 84t45 84q27 14 90 14h262q72 0 104 -31.5t32 -103.5v-22q0 -186 -28.5 -290t-110.5 -186q-151 -151 -373 -150q-229 0 -378 148 q-42 42 -70 88.5t-43 90.5t-23 116t-9.5 130.5t-1.5 168z" />
<glyph unicode="H" horiz-adv-x="1413" d="M189 142v1174q0 43 3 61.5t14 38.5q28 50 94.5 50t93.5 -50q11 -20 14 -38.5t3 -61.5v-481h591v481q0 43 3 61.5t14 38.5q28 50 94.5 50t93.5 -50q11 -20 14 -38.5t3 -61.5v-1174q0 -43 -2.5 -61.5t-14.5 -38.5q-28 -50 -94 -50t-94 50q-11 20 -14 38.5t-3 61.5v496h-591 v-496q0 -43 -2.5 -61.5t-14.5 -38.5q-28 -50 -94.5 -50t-93.5 50q-11 20 -14 38.5t-3 61.5z" />
<glyph unicode="I" horiz-adv-x="600" d="M189 142v1174q0 43 3 61.5t14 38.5q28 50 94.5 50t93.5 -50q11 -20 14 -38.5t3 -61.5v-1174q0 -43 -2.5 -61.5t-14.5 -38.5q-28 -50 -94.5 -50t-93.5 50q-11 20 -14 38.5t-3 61.5z" />
<glyph unicode="J" horiz-adv-x="1036" d="M51 162q0 42 30 71q27 26 62.5 26t83.5 -30q72 -45 157 -45q126 0 195 76t69 219v837q0 43 2.5 61.5t14.5 38.5q28 50 94 50t94 -50q11 -20 13.5 -38.5t2.5 -61.5v-855q0 -146 -66 -255.5t-175 -163.5t-244 -54q-166 0 -281 83q-52 38 -52 91z" />
<glyph unicode="K" horiz-adv-x="1325" d="M189 142v1174q0 43 3 61.5t14 38.5q28 50 94.5 50t93.5 -50q11 -20 14 -38.5t3 -61.5v-586l552 670q30 36 51 51t50 15q38 0 69 -25q40 -34 39 -80q0 -23 -10.5 -42.5t-38.5 -52.5l-310 -375l399 -702q35 -61 35 -95q0 -55 -54 -87q-26 -15 -59 -15q-38 0 -61 22t-49 68 l-365 642l-248 -299v-283q0 -43 -2.5 -61.5t-14.5 -38.5q-28 -50 -94.5 -50t-93.5 50q-11 20 -14 38.5t-3 61.5z" />
<glyph unicode="L" horiz-adv-x="1172" d="M189 135v1181q0 43 3 61.5t14 38.5q28 50 94.5 50t93.5 -50q11 -20 14 -38.5t3 -61.5v-1119h575q63 0 90 -15q45 -26 45 -84t-45 -84q-27 -14 -90 -14h-661q-72 0 -104 31.5t-32 103.5z" />
<glyph unicode="M" horiz-adv-x="1665" d="M189 142v1188q0 70 33 104q33 33 81 32q37 0 63 -14q30 -17 54 -67l414 -843l411 843q25 49 54 67q26 14 63 14q48 0 81 -32q33 -34 33 -104v-1188q0 -43 -3 -61.5t-14 -38.5q-28 -50 -94.5 -50t-93.5 50q-11 20 -14 38.5t-3 61.5v833l-308 -645q-19 -41 -45.5 -61.5 t-67 -20.5t-67 20t-46.5 62l-309 645v-833q0 -43 -2.5 -61.5t-14.5 -38.5q-28 -50 -94.5 -50t-93.5 50q-11 20 -14 38.5t-3 61.5z" />
<glyph unicode="N" horiz-adv-x="1477" d="M189 142v1183q0 75 32 107q35 35 84 34q38 0 66 -22.5t63 -74.5l633 -935v882q0 43 2.5 61.5t13.5 38.5q28 50 94.5 50t94.5 -50q11 -20 13.5 -38.5t2.5 -61.5v-1184q0 -74 -32 -105q-35 -35 -84 -35q-38 0 -66 22.5t-63 74.5l-632 935v-882q0 -43 -2.5 -61.5 t-14.5 -38.5q-28 -50 -94.5 -50t-93.5 50q-11 20 -14 38.5t-3 61.5z" />
<glyph unicode="O" horiz-adv-x="1325" d="M138 729.5q0 109.5 1.5 167.5t9.5 130t23 116t43 90.5t70 88.5q148 148 378 148q228 0 376 -148q42 -42 70 -88.5t43.5 -91t23.5 -115.5t9.5 -130t1.5 -167.5t-1.5 -168t-9.5 -130.5t-23.5 -115.5t-43.5 -91t-70 -88.5q-148 -148 -376 -148q-229 0 -378 148 q-42 42 -70 88.5t-43 90.5t-23 116t-9.5 130.5t-1.5 168zM359 729q0 -220 16.5 -308t69.5 -145q86 -92 218 -92q130 0 217 92q53 57 69.5 145.5t16.5 307.5t-16.5 307.5t-69.5 146.5q-86 91 -217 91q-132 0 -218 -91q-53 -56 -69.5 -145t-16.5 -309z" />
<glyph unicode="P" horiz-adv-x="1287" d="M189 142v1181q0 72 32 103.5t104 31.5h417q211 0 339 -124.5t128 -318t-128 -317t-339 -123.5h-331v-433q0 -43 -2.5 -61.5t-14.5 -38.5q-28 -50 -94.5 -50t-93.5 50q-11 20 -14 38.5t-3 61.5zM411 772h319q118 0 188 65t70 179q0 116 -69.5 181t-188.5 65h-319v-490z " />
<glyph unicode="Q" horiz-adv-x="1325" d="M138 729.5q0 109.5 1.5 167.5t9.5 130t23 116t43 90.5t70 88.5q148 148 378 148q228 0 376 -148q42 -42 70 -88.5t43.5 -91t23.5 -115.5t9.5 -130t1.5 -168q0 -225 -16 -335t-78 -196l73 -74q39 -39 46 -65q3 -11 3 -20q0 -32 -27 -59.5t-59 -27.5q-10 0 -21 3 q-26 7 -65 46l-75 76q-129 -89 -305 -89q-229 0 -378 148q-42 42 -70 88.5t-43 90.5t-23 116t-9.5 130.5t-1.5 168zM359 729q0 -220 16.5 -308t69.5 -145q86 -92 218 -92q86 0 149 48l-98 100q-40 38 -47 64q-3 11 -3 21q0 32 27 59t59 27q10 0 21 -2q26 -7 65 -46l87 -87 q27 53 35 131t8 230q0 219 -16.5 307.5t-69.5 146.5q-86 91 -217 91q-132 0 -218 -91q-53 -56 -69.5 -145t-16.5 -309z" />
<glyph unicode="R" horiz-adv-x="1344" d="M189 142v1181q0 72 32 103.5t104 31.5h430q205 0 328.5 -118.5t123.5 -307.5q0 -150 -80 -250t-208 -137l261 -456q35 -61 35 -95q0 -55 -55 -87q-26 -15 -59 -15q-38 0 -61 22t-49 68l-304 532h-276v-472q0 -43 -2.5 -61.5t-14.5 -38.5q-28 -50 -94.5 -50t-93.5 50 q-11 20 -14 38.5t-3 61.5zM411 803h327q113 0 180.5 60.5t67.5 166.5q0 108 -68 170t-180 62h-327v-459z" />
<glyph unicode="S" horiz-adv-x="1210" d="M85 215q0 42 31 73q27 27 64 26q41 0 94 -36q74 -50 145 -72t166 -22q144 0 222.5 59t78.5 167q0 102 -58 151q-52 46 -158 62l-173 24q-176 26 -276 118q-108 98 -107 279q0 193 131 309.5t356 116.5q102 0 176.5 -18.5t166.5 -67.5q89 -46 89 -111q0 -38 -25 -68 q-27 -32 -68 -31q-38 0 -89 31q-65 40 -123 56t-135 16q-126 0 -195 -62t-69 -164q0 -90 53 -136q55 -49 160 -65l174 -27q99 -15 160.5 -40t109.5 -68q119 -110 119 -299q0 -198 -145 -313t-379 -115q-127 0 -218 24t-175 74q-58 35 -80.5 62.5t-22.5 66.5z" />
<glyph unicode="T" horiz-adv-x="1142" d="M51 1360q0 58 45 84q27 14 90 14h770q63 0 91 -14q45 -26 45 -84t-45 -84q-27 -14 -91 -14h-274v-1120q0 -43 -2.5 -61.5t-13.5 -38.5q-28 -50 -94.5 -50t-94.5 50q-11 20 -13.5 38.5t-2.5 61.5v1120h-275q-63 0 -90 14q-45 26 -45 84z" />
<glyph unicode="U" horiz-adv-x="1378" d="M167 492v824q0 43 2.5 61.5t13.5 38.5q28 50 94.5 50t94.5 -50q11 -20 13.5 -38.5t2.5 -61.5v-814q0 -146 82 -232t219 -86t219 85.5t82 232.5v814q0 43 2.5 61.5t14.5 38.5q28 50 94 50t94 -50q11 -20 13.5 -38.5t2.5 -61.5v-824q0 -223 -148.5 -363.5t-373.5 -140.5 t-373.5 140.5t-148.5 363.5z" />
<glyph unicode="V" horiz-adv-x="1138" d="M39 1385q6 39 39 60t67 21q36 0 63 -23q25 -22 45 -84l316 -973l317 973q20 62 45 84q27 24 62 23q35 0 68 -21t39 -60q1 -7 1 -14q0 -31 -16 -79l-395 -1188q-20 -62 -45 -84q-30 -29 -76 -28.5t-75 28.5q-25 22 -45 84l-396 1188q-15 48 -15 79q0 7 1 14z" />
<glyph unicode="W" horiz-adv-x="1771" d="M62 1395q7 31 37 51t66 20q44 0 71 -28q20 -23 36 -88l234 -938l266 953q14 50 38 74q28 27 76 26.5t76 -26.5q24 -24 37 -74l267 -953l233 938q16 66 37 88q27 29 71 28q36 0 65.5 -20.5t36.5 -50.5q2 -9 2 -21q0 -28 -11 -75l-295 -1183q-17 -68 -51 -97 q-34 -28 -79 -27.5t-79 27.5q-32 27 -51 97l-259 923l-259 -923q-19 -70 -52 -97q-34 -28 -78.5 -27.5t-78.5 27.5q-34 29 -51 97l-295 1183q-11 46 -12 75q0 12 2 21z" />
<glyph unicode="X" horiz-adv-x="1140" d="M113 189l321 560l-299 520q-34 59 -35 91v4q0 55 55 87q26 15 59 15q38 0 61 -22t49 -68l246 -441l247 441q26 46 49 68t61 22q34 0 59 -15q54 -32 54 -87v-4q-1 -32 -34 -91l-299 -519l321 -561q34 -59 35 -91v-4q0 -55 -54 -87q-26 -15 -60 -15q-38 0 -61 22t-48 68 l-270 478l-269 -478q-26 -46 -49 -68t-61 -22q-34 0 -59 15q-54 32 -54 87q0 34 35 95z" />
<glyph unicode="Y" horiz-adv-x="1071" d="M102 1454q25 12 52.5 12t50.5 -15q25 -17 54 -77l277 -554l276 554q30 59 54 77q23 15 50.5 15t52.5 -12q55 -28 57 -82v-2q0 -32 -28 -89l-352 -700v-439q0 -43 -2.5 -61.5t-13.5 -38.5q-28 -50 -94.5 -50t-94.5 50q-11 20 -13.5 38.5t-2.5 61.5v439l-352 700 q-28 56 -28 89q0 55 57 84z" />
<glyph unicode="Z" horiz-adv-x="1141" d="M89 114q0 37 38 98l645 1050h-519q-63 0 -90 14q-45 26 -45 84t45 84q27 14 90 14h643q85 0 117 -33q33 -33 33 -80q0 -38 -37 -99l-647 -1049h549q63 0 90 -15q45 -26 45.5 -84t-45.5 -84q-27 -14 -90 -14h-672q-84 0 -117 33t-33 81z" />
<glyph unicode="[" horiz-adv-x="709" d="M176 -24v1506q0 69 30 98.5t98 29.5h199q61 0 85 -15q43 -26 43 -80t-43 -79q-26 -14 -85 -15h-118v-1384h118q61 0 85 -14q43 -26 43 -80.5t-43 -79.5q-26 -14 -85 -15h-199q-69 0 -98.5 29.5t-29.5 98.5z" />
<glyph unicode="\" horiz-adv-x="781" d="M33 1558q8 25 35.5 43.5t61.5 18.5q43 0 64 -25t37 -75l506 -1515q23 -67 12 -100q-8 -25 -36 -44t-62 -19q-43 0 -64 25t-37 76l-506 1514q-22 67 -11 101z" />
<glyph unicode="]" horiz-adv-x="709" d="M79 -57.5q0 54.5 43 80.5q24 14 85 14h118v1384h-118q-59 0 -85 15q-43 26 -43 80t43 79q24 14 85 15h199q69 0 98.5 -30t29.5 -98v-1506q0 -69 -30 -98.5t-98 -29.5h-199q-59 0 -85 15q-43 25 -43 79.5z" />
<glyph unicode="^" horiz-adv-x="1084" d="M147 794q0 30 27 83l240 480q13 28 22 42.5t24.5 32.5t36 26t46 8t45.5 -8t35.5 -26t24.5 -33t23 -42l239 -480q27 -53 27 -83q0 -38 -30 -65.5t-68 -27.5q-28 0 -49 16q-27 19 -54 73l-194 389l-194 -389q-27 -53 -53 -73q-22 -15 -49 -16q-38 0 -68.5 27.5t-30.5 65.5z " />
<glyph unicode="_" horiz-adv-x="1170" d="M35 -289q0 47 37 68q23 12 72 12h882q50 0 73 -12q37 -20 37 -67.5t-37 -67.5q-23 -12 -73 -13h-882q-50 0 -72 13q-37 20 -37 67z" />
<glyph unicode="`" horiz-adv-x="1101" d="M311 1508q-3 48 44 79q25 15 50.5 15.5t48.5 -16.5q17 -12 45 -56l95 -153q31 -50 32 -75q3 -48 -44 -79q-25 -15 -50.5 -15.5t-48.5 16.5q-17 12 -45 56l-95 153q-31 49 -32 75z" />
<glyph unicode="a" horiz-adv-x="1085" d="M85 305q0 135 93.5 218t265.5 83h276v65q0 103 -52 152.5t-165 49.5q-108 0 -199 -69q-36 -28 -76 -28q-38 0 -60 28q-25 28 -25 64q0 63 98 120q109 62 264 63q209 0 317 -91t108 -267v-559q0 -67 -16 -94q-26 -48 -89 -48q-48 0 -75 30q-22 25 -24 74 q-61 -60 -122 -83.5t-157 -23.5q-188 0 -279 94q-83 85 -83 222zM289 308q0 -146 195 -146q63 0 108 11.5t82 47.5q46 43 46 155v82h-246q-91 0 -138 -38.5t-47 -111.5z" />
<glyph unicode="b" horiz-adv-x="1131" d="M166 135v1189q0 62 15 93q26 49 89.5 49t88.5 -49q15 -31 16 -93v-390q54 65 119 91t153 26q160 0 252 -93q69 -70 92 -177.5t23 -260.5q0 -154 -23 -262t-92 -178q-92 -92 -254 -92q-86 0 -151 26.5t-120 91.5q-2 -52 -19 -73q-29 -41 -85 -41q-58 0 -86 44 q-18 30 -18 99zM374 519.5q0 -61.5 4 -107t17.5 -93t36.5 -76.5t63 -48t95 -19t94.5 19t62.5 48t36.5 76.5t17.5 93t4 107t-4 107t-17.5 92.5t-36.5 76t-62.5 48t-94.5 19t-95 -19t-63 -48t-36.5 -76t-17.5 -92.5t-4 -107z" />
<glyph unicode="c" horiz-adv-x="992" d="M113 519q0 140 38 246t104.5 166.5t146 90t171.5 29.5q126 0 228 -66q49 -32 75 -60.5t26 -64.5q0 -37 -30 -68q-27 -27 -64 -27q-35 0 -83 40q-72 57 -152 57q-122 0 -189 -89q-62 -82 -62 -254t62 -253q68 -90 189 -90q77 0 152 58q50 40 83 40q37 0 64 -27 q30 -32 30 -69q0 -36 -27 -65t-74 -60q-102 -66 -228 -65q-92 0 -171.5 29t-146 89.5t-104.5 166.5t-38 246z" />
<glyph unicode="d" horiz-adv-x="1131" d="M118 520q0 153 23 261t91 177q92 92 252 93q88 0 153 -26.5t120 -90.5v390q0 62 15 93q26 49 89.5 49t88.5 -49q15 -31 16 -93v-1189q0 -69 -19 -99q-28 -44 -86 -44q-56 0 -85 41q-16 22 -18 73q-55 -66 -120.5 -92t-151.5 -26q-162 0 -254 92q-69 70 -91.5 178 t-22.5 262zM327 519.5q0 -61.5 4 -107t17 -93t36.5 -76.5t62.5 -48t94.5 -19t95.5 19t63 48t36.5 76.5t17.5 93t4 107t-4 107t-17.5 92.5t-36.5 76t-63 48t-95.5 19t-94.5 -19t-62.5 -48t-36.5 -76t-17 -92.5t-4 -107z" />
<glyph unicode="e" horiz-adv-x="1100" d="M113 519q0 253 118.5 392.5t321.5 139.5q200 0 317 -131.5t122 -340.5v-8q0 -57 -28 -86q-27 -27 -93 -26h-552q0 -135 69.5 -214t197.5 -79q118 0 199 65q47 38 85 38q33 0 59.5 -27t26.5 -62q0 -59 -104 -126q-101 -67 -271 -66q-101 0 -183.5 28t-148 88.5t-101 166 t-35.5 248.5zM319 604h467q-6 91 -28 141q-27 60 -80 96t-125 36q-73 0 -126.5 -35.5t-80.5 -96.5q-24 -52 -27 -141z" />
<glyph unicode="f" horiz-adv-x="685" d="M54 958.5q0 47.5 37 67.5q23 12 73 12h48v143q0 80 28.5 142.5t93.5 103.5t160 41h20q58 0 88 -16q42 -23 42 -73q0 -51 -42 -73q-23 -12 -76 -15q-105 -3 -105 -120v-133h114q50 0 72 -12q37 -20 37 -67.5t-37 -67.5q-23 -12 -72 -12h-114v-745q0 -62 -15 -93 q-26 -49 -89.5 -49t-89.5 49q-15 31 -15 93v745h-48q-50 0 -73 12q-37 20 -37 67.5z" />
<glyph unicode="g" horiz-adv-x="1125" d="M118 538.5q0 150.5 23.5 251.5t92.5 171q90 90 250 90q85 0 148.5 -26.5t119.5 -90.5q2 48 18 72q29 41 85 41q58 0 86 -45q18 -31 18 -99v-897q0 -193 -121 -315t-325 -122q-147 0 -246 54q-106 59 -106 123q0 39 26.5 65t58.5 26t94 -40q79 -51 167 -51q125 0 184.5 75 t59.5 189v133q-54 -65 -119.5 -91.5t-149.5 -26.5q-156 0 -248 92q-70 70 -93 170.5t-23 251zM327 538.5q0 -55.5 4 -97.5t16.5 -87t35.5 -74t62.5 -48t94 -19t94.5 19t62 47.5t34.5 74t16.5 87t4 98.5q0 46 -3 81t-10.5 75t-22.5 68.5t-37.5 52.5t-57 36t-80.5 12 q-54 0 -94 -19t-63 -48t-35.5 -74t-16.5 -87t-4 -97.5z" />
<glyph unicode="h" horiz-adv-x="1164" d="M166 134v1190q0 62 15 93q26 49 89.5 49t88.5 -49q15 -31 16 -93v-390q105 117 272 117q160 0 256 -95q105 -102 106 -292v-530q0 -62 -16 -93q-26 -49 -89 -49t-89 49q-15 31 -15 93v499q0 116 -58 172.5t-153 56.5q-94 0 -154 -57t-60 -172v-499q0 -62 -16 -93 q-26 -49 -89 -49t-89 49q-15 31 -15 93z" />
<glyph unicode="i" horiz-adv-x="540" d="M144 1377.5q0 52.5 37 89t89.5 36.5t89 -36.5t36.5 -89t-36.5 -89.5t-89 -37t-89.5 37t-37 89.5zM166 134v770q0 62 15 93q26 49 89.5 49.5t88.5 -49.5q15 -31 16 -93v-770q0 -62 -16 -93q-26 -49 -89 -49t-89 49q-15 31 -15 93z" />
<glyph unicode="j" horiz-adv-x="540" d="M-57 -335q0 51 42 74q23 12 75 14q105 3 106 120v1031q0 62 15 93q26 49 89.5 49.5t88.5 -49.5q15 -31 16 -93v-1040q0 -80 -29 -143t-94 -104t-159 -41h-20q-58 0 -88 16q-42 23 -42 73zM144 1377.5q0 52.5 37 89t89.5 36.5t89 -36.5t36.5 -89t-36.5 -89.5t-89 -37 t-89.5 37t-37 89.5z" />
<glyph unicode="k" horiz-adv-x="1064" d="M166 134v1190q0 62 15 93q26 49 89.5 49t88.5 -49q15 -31 16 -93v-765l375 427q30 34 50 47.5t45 13.5q37 0 64 -25q33 -29 33 -68t-48 -94l-214 -244l277 -438q36 -57 36 -88q0 -50 -49 -81q-28 -17 -57 -17q-33 0 -54 18t-48 61l-251 401l-159 -184v-154q0 -62 -16 -93 q-26 -49 -89 -49t-89 49q-15 31 -15 93z" />
<glyph unicode="l" horiz-adv-x="627" d="M161 288v1038q0 62 15 93q26 49 89.5 49t88.5 -49q15 -31 16 -93v-1029q0 -117 105 -120q53 -2 76 -14q42 -23 42 -74q0 -50 -42 -73q-30 -16 -88 -16h-21q-94 0 -159 41t-93.5 104t-28.5 143z" />
<glyph unicode="m" horiz-adv-x="1796" d="M166 134v769q0 69 18 99q28 44 86 45q56 0 85 -41q16 -24 19 -69q52 54 123 84t150 30q196 0 295 -152q124 152 326 152q165 0 262 -95q111 -108 110 -292v-530q0 -62 -15 -93q-26 -49 -89 -49t-89 49q-15 31 -15 93v499q0 116 -58 172.5t-151 56.5q-91 0 -153 -56 t-62 -163v-509q0 -62 -16 -93q-26 -49 -89 -49t-89 49q-15 31 -15 93v499q0 116 -58 172.5t-151 56.5q-94 0 -154.5 -58t-60.5 -171v-499q0 -62 -16 -93q-26 -49 -89 -49t-89 49q-15 31 -15 93z" />
<glyph unicode="n" horiz-adv-x="1163" d="M166 134v769q0 69 18 99q28 44 86 45q56 0 85 -41q16 -24 19 -69q108 114 273 114q159 0 256 -95q104 -101 105 -292v-530q0 -62 -16 -93q-26 -49 -89 -49t-89 49q-15 31 -15 93v499q0 116 -58 172.5t-151 56.5q-94 0 -154.5 -58t-60.5 -171v-499q0 -62 -16 -93 q-26 -49 -89 -49t-89 49q-15 31 -15 93z" />
<glyph unicode="o" horiz-adv-x="1099" d="M118 519.5q0 144.5 25 239.5t97 169q119 123 310 123t310 -123q71 -74 96.5 -169.5t25.5 -239t-25.5 -239.5t-96.5 -169q-119 -123 -310.5 -123t-309.5 123q-72 74 -97 169t-25 239.5zM327 519q0 -101 14 -170.5t57 -112.5q58 -59 151.5 -59.5t151.5 59.5 q43 43 57.5 112.5t14.5 170.5q0 100 -14.5 170.5t-57.5 113.5q-58 59 -151 59t-152 -59q-43 -43 -57 -113.5t-14 -170.5z" />
<glyph unicode="p" horiz-adv-x="1131" d="M166 -285v1189q0 69 18 100q28 44 86 44q56 0 85 -41q16 -24 19 -74q55 66 119.5 92.5t151.5 26.5q162 0 254 -93q69 -70 92 -178t23 -262q0 -153 -23 -260.5t-92 -177.5q-93 -93 -252 -93q-87 0 -152.5 26.5t-119.5 90.5v-390q0 -62 -16 -93q-26 -49 -89 -49t-89 49 q-15 31 -15 93zM374 520.5q0 -61.5 4 -107t17.5 -93t36.5 -77t63 -48.5t95 -19t94.5 19t62.5 48.5t36.5 77t17.5 93t4 107t-4 107t-17.5 92.5t-36.5 76t-62.5 48t-94.5 19t-95 -19t-63 -48t-36.5 -76t-17.5 -92.5t-4 -107z" />
<glyph unicode="q" horiz-adv-x="1131" d="M118 519q0 154 23 262.5t91 177.5q92 92 254 93q86 0 151 -27t121 -92q2 52 18 74q29 41 85 41q58 0 86 -44q18 -31 19 -100v-1189q0 -62 -16 -93q-26 -49 -89 -49t-89 49q-15 31 -15 93v390q-54 -65 -119.5 -90.5t-153.5 -25.5q-160 0 -252 92q-69 70 -91.5 177.5 t-22.5 260.5zM327 520.5q0 -61.5 4 -107t17 -93t36.5 -76.5t62.5 -48t94.5 -19t95.5 19t63 48t36.5 76.5t17.5 93t4 107t-4 107t-17.5 92.5t-36.5 76t-63 48t-95.5 19t-94.5 -19t-62.5 -48t-36.5 -76t-17 -92.5t-4 -107z" />
<glyph unicode="r" horiz-adv-x="901" d="M166 134v769q0 69 18 99q28 44 86 45q56 0 85 -41q16 -24 19 -76q45 55 114.5 88t149.5 33q111 0 182 -49q62 -41 63 -94q0 -45 -31 -75q-29 -29 -72 -29q-33 0 -81 27q-55 31 -112 31q-91 0 -151.5 -63.5t-60.5 -168.5v-496q0 -62 -16 -93q-26 -49 -89 -49t-89 49 q-15 31 -15 93z" />
<glyph unicode="s" horiz-adv-x="1022" d="M82 169q0 44 34 72q25 22 57 21q32 0 78 -30q108 -70 251 -69q104 0 166 37.5t62 108.5q0 110 -140 123l-167 15q-307 28 -307 285q0 148 111.5 233.5t280.5 85.5q157 0 279 -58q47 -23 68 -44q19 -24 19 -57.5t-25 -61.5q-27 -27 -62 -26q-23 0 -67 21q-112 54 -216 55 q-90 0 -138.5 -37.5t-48.5 -99.5q0 -56 35.5 -84t108.5 -34l164 -16q308 -30 308 -293q0 -158 -120 -243t-312 -85q-223 0 -362 94q-57 39 -57 87z" />
<glyph unicode="t" horiz-adv-x="719" d="M51 958.5q0 47.5 37 67.5q23 12 73 12h48v163q0 62 15 93q26 49 89.5 49t88.5 -49q15 -31 16 -93v-163h112q50 0 73 -12q37 -20 37 -67.5t-37 -67.5q-23 -12 -73 -12h-112v-582q0 -117 105 -120q53 -2 76 -14q42 -23 42 -74q0 -50 -42 -73q-30 -16 -88 -16h-21 q-94 0 -159 41t-93.5 104t-28.5 143v591h-48q-50 0 -73 12q-37 20 -37 67.5z" />
<glyph unicode="u" horiz-adv-x="1163" d="M156 375v529q0 62 15 93q26 49 89.5 49.5t88.5 -49.5q15 -31 16 -93v-498q0 -116 57.5 -173t150.5 -57q94 0 154.5 58t60.5 172v498q0 62 16 93q26 49 89 49.5t89 -49.5q15 -31 15 -93v-769q0 -69 -18 -99q-28 -44 -86 -44q-56 0 -85 41q-16 24 -18 68 q-108 -114 -274 -113q-159 0 -256 94q-104 102 -104 293z" />
<glyph unicode="v" horiz-adv-x="919" d="M54 984q8 25 36 44t62 19q43 0 64 -25.5t37 -75.5l207 -623l207 623q16 50 37 75.5t64 25.5q34 0 61.5 -19t35.5 -44q4 -11 4 -26q0 -30 -15 -74l-265 -775q-22 -63 -51 -91q-31 -27 -78 -26.5t-78 26.5q-31 28 -51 91l-265 775q-15 44 -15 74q-1 15 3 26z" />
<glyph unicode="w" horiz-adv-x="1501" d="M61 976q7 30 35.5 50.5t63.5 20.5q39 0 66 -28q18 -18 36 -79l179 -630l188 614q23 74 51 97q29 26 71 26t70 -26q29 -24 51 -97l188 -614l179 630q17 60 36 79q28 28 66 28q35 0 63.5 -20.5t35.5 -50.5q2 -9 2 -20q0 -27 -12 -70l-228 -765q-24 -79 -53 -102 q-33 -28 -78 -27q-44 0 -77 27q-30 23 -53 102l-190 613l-191 -613q-24 -79 -53 -102q-33 -28 -77 -27q-45 0 -78 27q-30 23 -53 102l-227 765q-12 43 -13 70q0 11 2 20z" />
<glyph unicode="x" horiz-adv-x="921" d="M78 90q0 31 36 88l221 343l-216 339q-36 57 -36 88q0 50 49 81q28 17 57 18q33 0 54 -18t48 -61l171 -280l169 280q27 43 47.5 61t53.5 18q30 0 58 -18q49 -31 49 -81q0 -31 -36 -88l-215 -338l220 -344q36 -57 36 -88q0 -50 -49 -81q-28 -17 -58 -17q-33 0 -53.5 18 t-47.5 61l-174 286l-176 -286q-27 -43 -48 -61t-54 -18q-30 0 -57 17q-49 31 -49 81z" />
<glyph unicode="y" horiz-adv-x="919" d="M54 984q8 25 36 44t62 19q43 0 64 -25.5t37 -75.5l205 -636l209 636q16 50 37 75.5t64 25.5q34 0 61.5 -19t35.5 -44q4 -13 4 -28q0 -30 -15 -72l-378 -1092q-30 -84 -76 -129q-78 -77 -203 -77q-69 0 -97 25q-30 27 -29 71q0 49 31 73q25 19 70 20q49 0 81.5 24.5 t52.5 85.5l50 153l-290 846q-15 44 -15 74q-1 15 3 26z" />
<glyph unicode="z" horiz-adv-x="948" d="M76 91q0 27 8.5 47.5t33.5 54.5l476 657h-365q-59 0 -85 14q-43 26 -43 80t43 80q24 14 85 14h509q60 0 90 -17q42 -25 42 -73q0 -44 -42 -101l-478 -659h394q61 0 85 -14q43 -26 43 -80t-43 -80q-26 -14 -85 -14h-537q-61 0 -90 17q-41 23 -41 74z" />
<glyph unicode="{" horiz-adv-x="831" d="M86 729q0 41 26 67q19 20 84 29q42 6 70 35q36 36 36 123v342q0 75 17 124.5t57 90.5q68 69 199 69h43q60 0 87 -14q20 -9 32.5 -31t12.5 -50q0 -57 -43 -79q-26 -14 -71 -15q-68 -1 -93 -26q-32 -31 -32 -131v-329q0 -89 -36.5 -133t-98.5 -72q29 -13 49 -26t41.5 -36.5 t33 -59.5t11.5 -83v-328q0 -100 32 -131q26 -26 93 -27q45 0 71 -14q43 -23 43 -80q0 -28 -12.5 -50t-32.5 -31q-26 -13 -87 -14h-43q-132 0 -199 69q-40 41 -57 90.5t-17 124.5v342q0 87 -36 123q-29 29 -70 35q-65 9 -84 30q-26 25 -26 66z" />
<glyph unicode="|" horiz-adv-x="692" d="M242 -17v1493q0 62 15 93q26 49 89.5 49t88.5 -49q15 -31 16 -93v-1493q0 -62 -16 -94q-26 -49 -89 -49t-89 49q-15 32 -15 94z" />
<glyph unicode="}" horiz-adv-x="831" d="M82 -56q0 57 43 80q26 14 71 14q68 1 93 27q32 31 32 131v328q0 89 36 133t99 72q-29 13 -49.5 26t-42 36.5t-32.5 59.5t-11 83v329q0 100 -32 131q-26 26 -93 26q-45 0 -71 15q-43 23 -43 79q0 28 12 50t33 31q26 13 86 14h43q132 0 200 -69q40 -41 56.5 -90.5 t16.5 -124.5v-342q0 -87 36 -123q29 -29 71 -35q65 -9 84 -29q26 -26 25.5 -67t-25.5 -66q-19 -20 -84 -30q-42 -6 -71 -35q-36 -36 -36 -123v-342q0 -75 -16.5 -124.5t-56.5 -90.5q-68 -69 -200 -69h-43q-60 0 -86 14q-20 9 -32.5 31t-12.5 50z" />
<glyph unicode="~" horiz-adv-x="1174" d="M98 538q0 48 55 97q59 54 113.5 74.5t122.5 20.5q93 0 228 -65q100 -49 164 -50q38 0 68.5 12.5t66.5 45.5q35 29 69 28q38 0 67 -32q25 -29 24 -62q0 -48 -54 -97q-59 -54 -113 -74.5t-124 -20.5q-93 0 -228 65q-100 49 -163 49q-38 0 -68 -12t-68 -44q-34 -30 -68 -30 q-39 0 -67 33q-25 28 -25 62z" />
<glyph unicode="&#xa1;" horiz-adv-x="680" d="M174 911.5q0 55.5 39 94t94 38.5t94 -38.5t39 -94t-39 -94.5t-94 -39t-94 39t-39 94.5zM197 -278v740q0 43 2.5 61.5t13.5 38.5q28 50 94.5 50t93.5 -50q11 -20 14 -38.5t3 -61.5v-740q0 -43 -2.5 -61t-14.5 -39q-28 -50 -94 -50t-94 50q-11 20 -13.5 38.5t-2.5 61.5z " />
<glyph unicode="&#xa2;" horiz-adv-x="992" d="M113 749.5q0 121.5 28.5 217.5t80 157.5t115.5 97.5t141 51v65q0 59 15 85q26 43 80 43t79 -43q14 -24 15 -85v-65q69 -14 134 -58q49 -32 75 -60.5t26 -63.5q0 -37 -30 -69q-27 -27 -64 -27q-35 0 -83 40q-33 26 -65 40v-651q29 13 65 41q50 40 83 40q37 0 64 -28 q30 -32 30 -68t-27 -65.5t-74 -59.5q-70 -44 -134 -58v-106q0 -61 -15 -85q-26 -43 -80 -43t-79 43q-14 26 -15 85v106q-77 13 -141 49.5t-115.5 98.5t-80 158t-28.5 217.5zM322 750q0 -91 14 -149.5t48 -103.5q40 -54 100 -76v657q-61 -23 -100 -74q-62 -82 -62 -254z" />
<glyph unicode="&#xa3;" horiz-adv-x="1188" d="M92 720q0 48 37 68q20 12 74 13h47v196q0 219 138 346t347 127q169 0 282 -79q67 -47 66 -106q0 -42 -27 -72q-25 -27 -58 -26q-34 0 -80 30q-49 32 -89.5 44.5t-92.5 12.5q-125 0 -195 -75.5t-70 -217.5v-180h188q52 0 73 -13q37 -20 37 -68q0 -47 -37 -68 q-20 -12 -73 -12h-188v-443h493q63 0 90 -15q45 -26 45 -84t-45 -84q-27 -14 -90 -14h-579q-72 0 -103.5 31.5t-31.5 103.5v505h-47q-53 0 -74 12q-37 21 -37 68z" />
<glyph unicode="&#xa4;" horiz-adv-x="1360" d="M151 158q8 30 52 73l86 86q-78 114 -78 254q0 141 77 253l-85 86q-44 44 -52 74q-13 49 26 89q41 41 91 28q29 -7 73 -52l85 -86q111 76 254 75.5t254 -75.5l86 86q45 45 73 52q50 13 91 -28q40 -40 26 -89q-8 -30 -52 -74l-86 -86q77 -115 77 -253q0 -140 -78 -254 l87 -86q44 -44 52 -73q13 -49 -26 -89q-41 -41 -91 -28q-16 4 -31 15t-42 37l-87 86q-112 -77 -253 -77t-253 77l-86 -86q-44 -44 -73 -52q-50 -13 -91 28q-39 40 -26 89zM401 570.5q0 -115.5 82 -197t197 -81.5t196.5 81.5t81.5 197t-81.5 197t-196.5 81.5t-197 -81.5 t-82 -197z" />
<glyph unicode="&#xa5;" horiz-adv-x="1095" d="M69 1372q2 54 57 82q25 12 52 12t50 -15q25 -17 55 -77l265 -535l265 535q30 59 54 77q24 15 51 15q28 0 52 -12q55 -28 57 -82q1 -33 -28 -91l-217 -434h97q50 0 72 -12q37 -20 37 -67.5t-37 -68.5q-23 -12 -72 -12h-177l-44 -88v-93h221q50 0 72 -12q37 -20 37 -67.5 t-37 -68.5q-23 -12 -72 -12h-221v-204q0 -43 -2.5 -61.5t-13.5 -38.5q-28 -50 -94.5 -50t-93.5 50q-11 20 -14 38.5t-3 61.5v204h-221q-50 0 -73 12q-37 20 -37 67.5t37 68.5q23 12 73 12h221v93l-44 88h-177q-50 0 -73 12q-37 20 -37 67.5t37 68.5q23 12 73 12h97l-217 434 q-28 58 -27 91z" />
<glyph unicode="&#xa6;" horiz-adv-x="692" d="M242 -17v448q0 62 15 93q26 49 89.5 49t88.5 -49q15 -31 16 -93v-448q0 -62 -16 -94q-26 -49 -89 -49t-89 49q-15 32 -15 94zM242 1027v449q0 62 15 93q26 49 89.5 49t88.5 -49q15 -31 16 -93v-449q0 -62 -16 -93q-26 -49 -89 -49t-89 49q-15 31 -15 93z" />
<glyph unicode="&#xa7;" horiz-adv-x="1116" d="M151 523q0 113 59.5 198t140.5 127q-173 85 -173 277q0 148 102.5 246.5t278.5 98.5q221 0 325 -140q53 -73 53 -147q0 -35 -16 -64q-25 -43 -83 -43q-46 0 -74 31q-17 20 -25 56q-23 129 -180 129q-85 0 -132.5 -41.5t-47.5 -117.5q0 -66 39.5 -107t123.5 -67l129 -39 q147 -45 221 -137.5t74 -238.5q0 -114 -59 -199t-139 -127q181 -78 181 -287q0 -168 -114 -265t-278 -97q-202 0 -310 122q-73 81 -73 170q0 39 17 66q27 42 82 42q43 0 70 -26q20 -20 28 -62q24 -130 186 -130q88 0 137.5 45t49.5 127q0 130 -160 180l-130 40 q-153 46 -228 139.5t-75 240.5zM355 533.5q0 -102.5 57 -161.5q55 -58 146 -58.5t147 58.5t56 161.5t-56 161.5q-55 58 -146.5 58.5t-146.5 -58.5q-57 -59 -57 -161.5z" />
<glyph unicode="&#xa8;" horiz-adv-x="1101" d="M211 1346q0 47 34 80.5t81 33.5q48 0 82 -33.5t34 -81t-34.5 -82t-81.5 -34.5t-81 34.5t-34 82.5zM662 1345.5q0 47.5 34 81t82 33.5q47 0 81 -33.5t34 -80.5q0 -48 -34 -82.5t-81 -34.5t-81.5 34.5t-34.5 82z" />
<glyph unicode="&#xa9;" horiz-adv-x="1765" d="M141 729q0 202 99.5 372.5t270 269.5t372 99t372 -99t270 -269.5t99.5 -372.5t-99.5 -372.5t-270 -269.5t-372 -99t-372 99t-270 269.5t-99.5 372.5zM283 729q0 -126 47 -238.5t127.5 -194t191.5 -129t234 -47.5t234 47.5t191 129t127 194t47 238.5t-47 238.5t-127 194 t-191 129t-234 47.5t-234 -47.5t-191.5 -129t-127.5 -194t-47 -238.5zM557 729q0 175 92.5 277t248.5 102q125 0 199 -70q37 -35 37 -64q0 -26 -18 -43q-18 -18 -43.5 -18.5t-60.5 27.5q-52 43 -114 43q-102 0 -152 -68.5t-50 -185.5t50 -185.5t152 -68.5q61 0 114 43 q35 28 60.5 28t43.5 -19q17 -17 18 -43q0 -30 -37 -64q-74 -70 -199 -70q-156 0 -248.5 102t-92.5 277z" />
<glyph unicode="&#xaa;" horiz-adv-x="924" d="M106 877q0 102 74 167t210 65h221v61q0 84 -43.5 121t-136.5 37q-52 0 -87.5 -14.5t-72.5 -45.5q-28 -25 -61 -25q-27 0 -44 19q-18 22 -19 50q0 52 86 104q80 48 198 48q340 0 340 -282v-444q0 -50 -12 -72q-20 -37 -67.5 -37t-67.5 37q-11 20 -13 44 q-51 -45 -99.5 -63.5t-121.5 -18.5q-150 0 -223 81q-61 67 -61 168zM261 877q0 -118 154 -118q56 0 93.5 9t65.5 38q37 37 37 125v66h-199q-75 0 -113 -31t-38 -89z" />
<glyph unicode="&#xab;" horiz-adv-x="1247" d="M75 538l332 331q44 44 72 53q50 13 91 -28q40 -40 27 -89q-8 -30 -52 -74l-194 -193l194 -194q44 -44 52 -74q13 -49 -27 -89q-41 -41 -91 -27q-29 8 -72 52zM592 538l332 331q27 27 41.5 38t30.5 15q50 13 91 -28q40 -40 27 -89q-8 -30 -52 -74l-194 -193l194 -194 q44 -44 52 -74q13 -49 -27 -89q-41 -41 -91 -27q-16 4 -31 14.5t-41 37.5z" />
<glyph unicode="&#xac;" d="M91 582.5q0 54.5 43 80.5q24 14 85 14h643q69 0 98.5 -30t29.5 -98v-226q0 -59 -14 -85q-26 -43 -80 -43t-80 43q-14 24 -14 85v165h-583q-59 0 -85 15q-43 25 -43 79.5z" />
<glyph unicode="&#xad;" horiz-adv-x="874" d="M129 568.5q0 54.5 43 79.5q24 14 85 15h358q61 0 85 -15q43 -26 43 -80t-43 -80q-26 -14 -85 -14h-358q-59 0 -85 14q-43 26 -43 80.5z" />
<glyph unicode="&#xae;" horiz-adv-x="1765" d="M141 729q0 202 99.5 372.5t270 269.5t372 99t372 -99t270 -269.5t99.5 -372.5t-99.5 -372.5t-270 -269.5t-372 -99t-372 99t-270 269.5t-99.5 372.5zM283 729q0 -168 79.5 -308t217.5 -220.5t303 -80.5q123 0 234 47.5t191 129t127 194t47 238.5t-47 238.5t-127 194 t-191 129t-234 47.5q-165 0 -303 -80t-217.5 -220.5t-79.5 -308.5zM644 447v568q0 47 19.5 66.5t66.5 19.5h194q105 0 172.5 -65.5t67.5 -162.5q0 -77 -39.5 -127.5t-103.5 -72.5l115 -197q22 -35 22 -59q2 -35 -35 -56q-16 -10 -36 -10q-23 0 -36.5 13.5t-31.5 44.5 l-142 244h-94v-206q0 -45 -10 -64q-19 -32 -59 -32t-60 32q-10 19 -10 64zM783 764h123q52 0 85.5 29t33.5 80q0 50 -33.5 79.5t-85.5 29.5h-123v-218z" />
<glyph unicode="&#xaf;" horiz-adv-x="1101" d="M231 1351q0 49 39 70q24 13 76 14h409q52 0 75 -14q38 -20 38 -70.5t-38 -70.5q-24 -13 -75 -13h-409q-52 0 -76 13q-39 22 -39 71z" />
<glyph unicode="&#xb0;" horiz-adv-x="963" d="M125 1125.5q0 148.5 104.5 253t253 104.5t253 -104.5t104.5 -253t-104.5 -253t-253 -104.5t-253 104.5t-104.5 253zM297 1125q0 -81 53 -135t132 -54t132.5 54t53.5 135t-53.5 135.5t-132.5 54.5t-132 -54.5t-53 -135.5z" />
<glyph unicode="&#xb1;" d="M96 94q0 54 43 80q24 14 85 14h643q61 0 85 -14q43 -26 43 -80t-43 -80q-26 -14 -85 -14h-643q-59 0 -85 14q-43 26 -43 80zM96 742.5q0 54.5 43 79.5q24 14 85 15h228v227q0 59 14 85q26 43 80 43t80 -43q14 -24 14 -85v-227h227q61 0 85 -15q43 -26 43 -80t-43 -79 q-26 -14 -85 -15h-227v-227q0 -61 -14 -85q-26 -43 -80 -43t-80 43q-14 26 -14 85v227h-228q-59 0 -85 15q-43 25 -43 79.5z" />
<glyph unicode="&#xb2;" horiz-adv-x="665" d="M70 659q0 33 38 79l290 361q50 61 51 116q0 50 -30 80t-81 30q-88 0 -112 -85q-8 -30 -27 -49q-18 -16 -47 -16q-41 0 -61 29q-13 19 -13 47q0 61 53 125q77 90 207 90q123 0 195 -66.5t72 -184.5q0 -52 -19.5 -95t-72.5 -108l-234 -287h242q44 0 65 -12q31 -16 30 -59 q0 -41 -30 -59q-18 -11 -65 -11h-351q-59 0 -81 22q-19 21 -19 53z" />
<glyph unicode="&#xb3;" horiz-adv-x="665" d="M73 787q0 44 22 67q19 19 52 19q29 0 49 -17q18 -18 24 -46q19 -93 121 -93q52 0 85.5 32.5t33.5 90.5q0 54 -31.5 86t-88.5 35q-36 2 -53 19q-19 19 -19.5 49t19.5 49q17 17 53 20q53 2 81 32.5t28 77.5q0 52 -32 82.5t-76 30.5q-79 0 -104 -67q-13 -39 -22 -53 q-16 -29 -58 -29q-33 0 -52.5 24t-19.5 59q0 77 57 135q75 75 199 74q118 0 192 -69.5t74 -181.5q0 -126 -100 -179q113 -59 113 -198q0 -126 -79.5 -194.5t-199.5 -68.5q-135 0 -217 87q-51 54 -51 127z" />
<glyph unicode="&#xb4;" horiz-adv-x="1101" d="M476 1302q1 26 32 75l95 153q28 44 45 56q23 16 48.5 16.5t49.5 -15.5q47 -31 45 -79q-1 -26 -32 -75l-95 -153q-28 -44 -46 -56q-23 -16 -48 -16.5t-50 15.5q-47 31 -44 79z" />
<glyph unicode="&#xb5;" horiz-adv-x="1173" d="M166 -286v1190q0 62 15 93q26 49 89.5 49.5t88.5 -49.5q15 -31 16 -93v-498q0 -116 57.5 -173t151.5 -57t154.5 58t60.5 172v498q0 62 15 93q26 49 89.5 49.5t88.5 -49.5q15 -31 16 -93v-769q0 -69 -19 -99q-28 -44 -86 -44q-56 0 -85 41q-16 22 -18 68 q-108 -114 -274 -113q-96 0 -151 52v-326q0 -62 -16 -93q-26 -49 -89 -49t-89 49q-15 31 -15 93z" />
<glyph unicode="&#xb6;" horiz-adv-x="1304" d="M78 1051q0 183 125.5 295t335.5 112h447q69 0 98.5 -29.5t29.5 -98.5v-1616q0 -62 -15 -93q-26 -49 -89.5 -49t-88.5 49q-15 31 -16 93v1548h-221v-1548q0 -62 -15 -93q-26 -49 -89.5 -49t-89.5 49q-15 31 -15 93v934q-167 0 -282 119.5t-115 283.5z" />
<glyph unicode="&#xb7;" horiz-adv-x="651" d="M176 568.5q0 61.5 44 104.5t105.5 43t105.5 -43t44 -104.5t-44 -104.5t-105.5 -43t-105.5 43t-44 104.5z" />
<glyph unicode="&#xb8;" horiz-adv-x="1101" d="M315 -411q1 27 33 76l95 153q29 45 45 56q23 16 48.5 16t50.5 -15q47 -31 44 -79q-1 -26 -32 -76l-95 -152q-28 -44 -45 -57q-23 -15 -48 -16q-28 0 -51 16q-48 29 -45 78z" />
<glyph unicode="&#xb9;" horiz-adv-x="665" d="M94 1218q7 22 41 56l148 148q44 44 92 44q40 0 62 -23q25 -26 25 -79v-679q0 -50 -12 -73q-20 -37 -67.5 -37t-68.5 37q-12 23 -12 73v543l-60 -61q-32 -33 -57 -40q-39 -11 -69 21q-33 33 -22 70z" />
<glyph unicode="&#xba;" horiz-adv-x="937" d="M127 1043.5q0 115.5 22 193t79 134.5q93 93 240.5 93t241.5 -93q57 -57 79 -134.5t22 -193t-22 -193t-79 -134.5q-93 -93 -240.5 -93t-241.5 93q-57 57 -79 134.5t-22 193zM287 1043.5q0 -82.5 10 -137.5t45 -90q51 -51 127 -51t127 51q35 35 45 90t10 137.5t-10 137.5 t-45 90q-51 51 -127 51t-127 -51q-35 -35 -45 -90t-10 -137.5z" />
<glyph unicode="&#xbb;" horiz-adv-x="1247" d="M133 270q8 30 52 74l194 194l-194 193q-44 44 -52 74q-13 49 27 89q41 41 91 28q16 -4 31 -15t42 -38l331 -331l-331 -332q-27 -27 -42 -37.5t-31 -14.5q-50 -13 -91 27q-40 40 -27 89zM650 270q8 30 52 74l194 194l-194 193q-44 44 -52 74q-13 49 27 89q41 41 91 28 q29 -8 73 -53l331 -331l-331 -332q-44 -44 -73 -52q-50 -13 -91 27q-40 40 -27 89z" />
<glyph unicode="&#xbc;" horiz-adv-x="1693" d="M94 1218q7 22 41 56l148 148q44 44 92 44q40 0 62 -23q25 -26 25 -79v-679q0 -50 -12 -73q-20 -37 -67.5 -37t-68.5 37q-12 23 -12 73v543l-60 -61q-32 -33 -57 -40q-39 -11 -69 21q-33 33 -22 70zM441 60q-1 25 20 67l637 1272q22 43 41 55t36.5 12t35.5 -9 q40 -19 41 -59q1 -25 -19 -67l-637 -1272q-22 -43 -41 -55t-36.5 -12t-36.5 9q-40 19 -41 59zM1062 196q0 20 19 59l281 561q34 68 80 68q30 0 52.5 -20.5t22.5 -50.5q0 -26 -20 -64l-241 -482h164v72q0 50 13 73q20 37 67 37t68 -37q12 -23 12 -73v-72h4q44 0 65 -12 q31 -17 30.5 -58t-30.5 -60q-18 -11 -65 -11h-4v-25q0 -50 -12 -72q-20 -37 -67.5 -37t-67.5 37q-12 23 -13 72v25h-263q-41 0 -61 11q-34 21 -34 59z" />
<glyph unicode="&#xbd;" horiz-adv-x="1693" d="M94 1218q7 22 41 56l148 148q44 44 92 44q40 0 62 -23q25 -26 25 -79v-679q0 -50 -12 -73q-20 -37 -67.5 -37t-68.5 37q-12 23 -12 73v543l-60 -61q-32 -33 -57 -40q-39 -11 -69 21q-33 33 -22 70zM441 60q-1 25 20 67l637 1272q22 43 41 55t36.5 12t35.5 -9 q40 -19 41 -59q1 -25 -19 -67l-637 -1272q-22 -43 -41 -55t-36.5 -12t-36.5 9q-40 19 -41 59zM1098 76q0 33 38 79l290 360q50 61 51 117q0 50 -30 79.5t-81 29.5q-88 0 -112 -85q-8 -30 -27 -49q-18 -16 -47 -16q-41 0 -61 30q-13 19 -13 47q0 61 53 125q77 90 207 90 q123 0 195 -66.5t72 -184.5q0 -52 -19.5 -95t-72.5 -109l-234 -287h242q44 0 65 -12q31 -16 31 -58q0 -41 -31 -60q-18 -11 -65 -11h-351q-59 0 -81 23q-19 21 -19 53z" />
<glyph unicode="&#xbe;" horiz-adv-x="1693" d="M73 790q0 44 22 66q19 19 52 20q29 0 49 -18q18 -18 24 -46q19 -93 121 -93q52 0 85.5 32.5t33.5 90.5q0 54 -31.5 86.5t-88.5 34.5q-36 2 -53 19q-19 19 -19.5 49t19.5 49q17 17 53 20q53 2 81 32.5t28 77.5q0 52 -32 82.5t-76 30.5q-79 0 -104 -67q-13 -39 -22 -53 q-16 -29 -58 -28q-33 0 -52.5 23.5t-19.5 58.5q0 77 57 135q75 75 199 74q118 0 192 -69.5t74 -181.5q0 -126 -100 -179q113 -59 113 -198q0 -126 -79.5 -194.5t-199.5 -68.5q-135 0 -217 88q-51 54 -51 127zM441 60q-1 25 20 67l637 1272q22 43 41 55t36.5 12t35.5 -9 q40 -19 41 -59q1 -25 -19 -67l-637 -1272q-22 -43 -41 -55t-36.5 -12t-36.5 9q-40 19 -41 59zM1062 196q0 20 19 59l281 561q34 68 80 68q30 0 52.5 -20.5t22.5 -50.5q0 -26 -20 -64l-241 -482h164v72q0 50 13 73q20 37 67 37t68 -37q12 -23 12 -73v-72h4q44 0 65 -12 q31 -17 30.5 -58t-30.5 -60q-18 -11 -65 -11h-4v-25q0 -50 -12 -72q-20 -37 -67.5 -37t-67.5 37q-12 23 -13 72v25h-263q-41 0 -61 11q-34 21 -34 59z" />
<glyph unicode="&#xbf;" horiz-adv-x="1045" d="M83 -47q0 75 23.5 130.5t72.5 123.5l140 193q40 55 52 132q6 42 29 69q29 32 79 32q48 0 79 -34q27 -30 27 -79q0 -56 -14.5 -97t-55.5 -96l-160 -215q-62 -84 -62 -159q0 -85 55 -141.5t142 -56.5q90 0 147 57q38 38 59 120q11 44 29 63q28 31 76 31q43 0 70 -31 q25 -28 25 -77q0 -57 -29 -123t-82 -117q-117 -111 -293 -110q-174 0 -291.5 106.5t-117.5 278.5zM347 911.5q0 55.5 39 94t94.5 38.5t94 -38.5t38.5 -94t-38.5 -94.5t-94 -39t-94.5 39t-39 94.5z" />
<glyph unicode="&#xc0;" horiz-adv-x="1275" d="M48.5 116q4.5 21 18.5 55l446 1189q19 52 44 76q33 31 81 30.5t81 -30.5q25 -24 44 -76l446 -1189q13 -34 18 -55t0 -46t-25 -45q-31 -33 -81 -33q-34 0 -60 21q-15 12 -24.5 29t-23.5 55l-73 196h-604l-73 -196q-14 -38 -23.5 -54.5t-24.5 -29.5q-27 -22 -60 -21 q-50 0 -81 33q-19 20 -24.5 45t-1 46zM399 1878q-3 48 44 79q25 15 50.5 15t48.5 -16q17 -12 45 -56l95 -153q31 -50 32 -76q3 -48 -44 -79q-25 -15 -50.5 -15t-48.5 16q-17 12 -45 57l-95 152q-31 50 -32 76zM404 481h467l-233 638z" />
<glyph unicode="&#xc1;" horiz-adv-x="1275" d="M48.5 116q4.5 21 18.5 55l446 1189q19 52 44 76q33 31 81 30.5t81 -30.5q25 -24 44 -76l446 -1189q13 -34 18 -55t0 -46t-25 -45q-31 -33 -81 -33q-34 0 -60 21q-15 12 -24.5 29t-23.5 55l-73 196h-604l-73 -196q-14 -38 -23.5 -54.5t-24.5 -29.5q-27 -22 -60 -21 q-50 0 -81 33q-19 20 -24.5 45t-1 46zM404 481h467l-233 638zM562 1671q1 26 32 76l95 153q28 44 45 56q23 16 48.5 16t50.5 -15q47 -31 44 -79q-1 -26 -32 -76l-95 -152q-28 -44 -45 -57q-23 -16 -48.5 -16t-50.5 15q-47 31 -44 79z" />
<glyph unicode="&#xc2;" horiz-adv-x="1275" d="M48.5 116q4.5 21 18.5 55l446 1189q19 52 44 76q33 31 81 30.5t81 -30.5q25 -24 44 -76l446 -1189q13 -34 18 -55t0 -46t-25 -45q-31 -33 -81 -33q-34 0 -60 21q-15 12 -24.5 29t-23.5 55l-73 196h-604l-73 -196q-14 -38 -23.5 -54.5t-24.5 -29.5q-27 -22 -60 -21 q-50 0 -81 33q-19 20 -24.5 45t-1 46zM334 1677q6 25 44 63l170 170q49 49 90 49t90 -49l170 -170q38 -38 44 -63q13 -43 -22 -79q-37 -35 -78 -22q-27 7 -64 44l-140 141l-140 -141q-37 -37 -64 -44q-41 -12 -78 22q-35 36 -22 79zM404 481h467l-233 638z" />
<glyph unicode="&#xc3;" horiz-adv-x="1275" d="M48.5 116q4.5 21 18.5 55l446 1189q19 52 44 76q33 31 81 30.5t81 -30.5q25 -24 44 -76l446 -1189q13 -34 18 -55t0 -46t-25 -45q-31 -33 -81 -33q-34 0 -60 21q-15 12 -24.5 29t-23.5 55l-73 196h-604l-73 -196q-14 -38 -23.5 -54.5t-24.5 -29.5q-27 -22 -60 -21 q-50 0 -81 33q-19 20 -24.5 45t-1 46zM286 1711q0 39 47 79q77 63 171 63q44 0 76 -10t77 -36q68 -38 110 -38q47 0 90 35q34 27 61 27q35 0 55 -24q17 -20 17 -53q0 -39 -47 -79q-77 -63 -171 -63q-44 0 -76 10t-78 36q-68 38 -109 38q-47 0 -90 -35q-34 -27 -61 -27 q-35 0 -55 24q-17 20 -17 53zM404 481h467l-233 638z" />
<glyph unicode="&#xc4;" horiz-adv-x="1275" d="M48.5 116q4.5 21 18.5 55l446 1189q19 52 44 76q33 31 81 30.5t81 -30.5q25 -24 44 -76l446 -1189q13 -34 18 -55t0 -46t-25 -45q-31 -33 -81 -33q-34 0 -60 21q-15 12 -24.5 29t-23.5 55l-73 196h-604l-73 -196q-14 -38 -23.5 -54.5t-24.5 -29.5q-27 -22 -60 -21 q-50 0 -81 33q-19 20 -24.5 45t-1 46zM298 1718q0 47 33.5 81t81.5 34t82 -34t34 -81t-34 -81.5t-82 -34.5q-47 0 -81 34t-34 82zM404 481h467l-233 638zM746 1718q0 47 34.5 81t82.5 34t81.5 -34t33.5 -81q0 -48 -34 -82t-81 -34q-48 0 -82.5 34.5t-34.5 81.5z" />
<glyph unicode="&#xc5;" horiz-adv-x="1275" d="M48.5 116q4.5 21 18.5 55l446 1189q19 52 44 76q33 31 81 30.5t81 -30.5q25 -24 44 -76l446 -1189q13 -34 18 -55t0 -46t-25 -45q-31 -33 -81 -33q-34 0 -60 21q-15 12 -24.5 29t-23.5 55l-73 196h-604l-73 -196q-14 -38 -23.5 -54.5t-24.5 -29.5q-27 -22 -60 -21 q-50 0 -81 33q-19 20 -24.5 45t-1 46zM382 1791q0 105 75 180.5t180.5 75.5t181 -75.5t75.5 -180.5t-75.5 -180.5t-181 -75.5t-180.5 75.5t-75 180.5zM404 481h467l-233 638zM508 1791q0 -54 38 -92t92 -38t92 38t38 92t-38 92t-92 38t-92 -38t-38 -92z" />
<glyph unicode="&#xc6;" horiz-adv-x="1896" d="M47 86q-1 33 28 91l573 1149q36 73 73 102.5t89 29.5h851q63 0 90 -14q45 -26 45 -84t-45 -84q-27 -14 -90 -14h-586v-428h481q63 0 91 -15q45 -26 45 -84t-45 -84q-27 -14 -91 -14h-481v-440h586q63 0 90 -15q45 -26 45 -84t-45 -84q-27 -14 -90 -14h-672 q-72 0 -103.5 31.5t-31.5 103.5v198h-469l-124 -249q-30 -59 -54 -77q-23 -15 -50.5 -15t-52.5 12q-55 28 -57 82zM479 520h375v753z" />
<glyph unicode="&#xc7;" horiz-adv-x="1283" d="M138 729.5q0 109.5 1.5 167.5t9.5 130t23 116t43 90.5t70 88.5q148 148 375 148q132 0 222 -37t160 -113q56 -60 84 -125t28 -110q0 -53 -30 -83q-33 -31 -76 -30q-39 0 -66 21q-28 22 -54 83q-42 97 -107 147.5t-165 50.5q-125 0 -210 -91q-55 -60 -71 -148.5 t-16 -305.5t16 -305t71 -149q85 -91 210 -91q99 0 164.5 50.5t107.5 147.5q27 61 54 83t66 21q44 0 76 -30q30 -30 30 -83q0 -45 -27.5 -109.5t-84.5 -125.5q-71 -76 -160 -113t-222 -37q-227 0 -375 148q-42 42 -70 88.5t-43 90.5t-23 116t-9.5 130.5t-1.5 168zM454 -411 q1 27 32 76l96 153q29 45 45 56q23 16 48 16t50 -15q47 -31 44 -79q-1 -26 -32 -76l-95 -152q-28 -44 -45 -57q-24 -15 -48 -16q-27 0 -50 16q-48 29 -45 78z" />
<glyph unicode="&#xc8;" horiz-adv-x="1231" d="M189 135v1188q0 72 32 103.5t104 31.5h671q63 0 90 -14q45 -26 45.5 -84t-45.5 -84q-27 -14 -90 -14h-585v-428h481q63 0 90 -15q45 -26 45 -84t-45 -84q-27 -14 -90 -14h-481v-440h585q63 0 90 -15q45 -26 45.5 -84t-45.5 -84q-27 -14 -90 -14h-671q-72 0 -104 31.5 t-32 103.5zM404 1878q-3 48 45 79q25 15 50 15t48 -16q17 -12 45 -56l95 -153q31 -50 32 -76q3 -48 -44 -79q-25 -15 -50.5 -15t-47.5 16q-17 12 -46 57l-95 152q-31 50 -32 76z" />
<glyph unicode="&#xc9;" horiz-adv-x="1231" d="M189 135v1188q0 72 32 103.5t104 31.5h671q63 0 90 -14q45 -26 45.5 -84t-45.5 -84q-27 -14 -90 -14h-585v-428h481q63 0 90 -15q45 -26 45 -84t-45 -84q-27 -14 -90 -14h-481v-440h585q63 0 90 -15q45 -26 45.5 -84t-45.5 -84q-27 -14 -90 -14h-671q-72 0 -104 31.5 t-32 103.5zM567 1671q1 26 32 76l95 153q28 44 45 56q23 16 48.5 16t50.5 -15q47 -31 44 -79q-1 -26 -32 -76l-95 -152q-28 -44 -45 -57q-23 -16 -48.5 -16t-50.5 15q-47 31 -44 79z" />
<glyph unicode="&#xca;" horiz-adv-x="1231" d="M189 135v1188q0 72 32 103.5t104 31.5h671q63 0 90 -14q45 -26 45.5 -84t-45.5 -84q-27 -14 -90 -14h-585v-428h481q63 0 90 -15q45 -26 45 -84t-45 -84q-27 -14 -90 -14h-481v-440h585q63 0 90 -15q45 -26 45.5 -84t-45.5 -84q-27 -14 -90 -14h-671q-72 0 -104 31.5 t-32 103.5zM339 1677q6 25 44 63l170 170q49 49 90 49t90 -49l170 -170q38 -38 44 -63q13 -43 -22 -79q-37 -35 -78 -22q-27 7 -64 44l-140 141l-140 -141q-37 -37 -64 -44q-41 -12 -78 22q-35 36 -22 79z" />
<glyph unicode="&#xcb;" horiz-adv-x="1231" d="M189 135v1188q0 72 32 103.5t104 31.5h671q63 0 90 -14q45 -26 45.5 -84t-45.5 -84q-27 -14 -90 -14h-585v-428h481q63 0 90 -15q45 -26 45 -84t-45 -84q-27 -14 -90 -14h-481v-440h585q63 0 90 -15q45 -26 45.5 -84t-45.5 -84q-27 -14 -90 -14h-671q-72 0 -104 31.5 t-32 103.5zM303 1718q0 47 34 81t81 34q48 0 82.5 -34t34.5 -81t-35 -81.5t-82 -34.5t-81 34t-34 82zM752 1718q0 47 34 81t82 34q47 0 81 -34t34 -81q0 -48 -34 -82t-81 -34t-81.5 34.5t-34.5 81.5z" />
<glyph unicode="&#xcc;" horiz-adv-x="600" d="M62 1878q-3 48 44 79q25 15 50.5 15t48.5 -16q17 -12 45 -56l95 -153q31 -50 32 -76q3 -48 -44 -79q-25 -15 -50.5 -15t-48.5 16q-17 12 -45 57l-95 152q-31 50 -32 76zM189 142v1174q0 43 3 61.5t14 38.5q28 50 94.5 50t93.5 -50q11 -20 14 -38.5t3 -61.5v-1174 q0 -43 -2.5 -61.5t-14.5 -38.5q-28 -50 -94.5 -50t-93.5 50q-11 20 -14 38.5t-3 61.5z" />
<glyph unicode="&#xcd;" horiz-adv-x="600" d="M189 142v1174q0 43 3 61.5t14 38.5q28 50 94.5 50t93.5 -50q11 -20 14 -38.5t3 -61.5v-1174q0 -43 -2.5 -61.5t-14.5 -38.5q-28 -50 -94.5 -50t-93.5 50q-11 20 -14 38.5t-3 61.5zM225 1671q1 26 32 76l95 153q28 44 45 56q23 16 48.5 16t50.5 -15q47 -31 44 -79 q-1 -26 -32 -76l-95 -152q-28 -44 -45 -57q-23 -16 -48.5 -16t-50.5 15q-47 31 -44 79z" />
<glyph unicode="&#xce;" horiz-adv-x="600" d="M-3 1677q6 25 44 63l170 170q49 49 90 49t90 -49l170 -170q38 -38 44 -63q13 -43 -22 -79q-37 -35 -78 -22q-27 7 -64 44l-140 141l-140 -141q-37 -37 -64 -44q-41 -12 -78 22q-35 36 -22 79zM189 142v1174q0 43 3 61.5t14 38.5q28 50 94.5 50t93.5 -50q11 -20 14 -38.5 t3 -61.5v-1174q0 -43 -2.5 -61.5t-14.5 -38.5q-28 -50 -94.5 -50t-93.5 50q-11 20 -14 38.5t-3 61.5z" />
<glyph unicode="&#xcf;" horiz-adv-x="600" d="M-16 1729q0 47 33.5 80.5t80.5 33.5q48 0 82.5 -33.5t34.5 -81t-35 -82t-82 -34.5t-80.5 34.5t-33.5 82.5zM189 142v1174q0 43 3 61.5t14 38.5q28 50 94.5 50t93.5 -50q11 -20 14 -38.5t3 -61.5v-1174q0 -43 -2.5 -61.5t-14.5 -38.5q-28 -50 -94.5 -50t-93.5 50 q-11 20 -14 38.5t-3 61.5zM389 1728.5q0 47.5 34.5 81t82.5 33.5q47 0 81 -33.5t34 -80.5q0 -48 -34 -82.5t-81 -34.5t-82 34.5t-35 82z" />
<glyph unicode="&#xd0;" horiz-adv-x="1404" d="M49 735q0 51 40 75q23 13 80 13h61v500q0 72 32 103.5t104 31.5h377q268 0 416 -185q71 -90 89.5 -204.5t18.5 -339.5q0 -222 -19.5 -338.5t-90.5 -207.5q-142 -183 -414 -183h-377q-72 0 -104 31.5t-32 103.5v512h-61q-57 0 -80 13q-40 24 -40 75zM452 197h266 q165 0 251 99q50 56 63.5 150.5t13.5 283t-13.5 282.5t-63.5 150q-86 99 -251 100h-266v-439h184q58 0 81 -13q40 -24 40 -75t-40 -75q-23 -13 -81 -13h-184v-450z" />
<glyph unicode="&#xd1;" horiz-adv-x="1477" d="M189 142v1183q0 75 32 107q35 35 84 34q38 0 66 -22.5t63 -74.5l633 -935v882q0 43 2.5 61.5t13.5 38.5q28 50 94.5 50t94.5 -50q11 -20 13.5 -38.5t2.5 -61.5v-1184q0 -74 -32 -105q-35 -35 -84 -35q-38 0 -66 22.5t-63 74.5l-632 935v-882q0 -43 -2.5 -61.5 t-14.5 -38.5q-28 -50 -94.5 -50t-93.5 50q-11 20 -14 38.5t-3 61.5zM386 1711q0 39 47 79q77 63 171 63q44 0 76.5 -10t77.5 -36q68 -38 109 -38q47 0 90 35q34 27 61 27q35 0 55 -24q17 -20 18 -53q0 -39 -48 -79q-77 -63 -171 -63q-44 0 -76 10t-77 36q-68 38 -110 38 q-47 0 -90 -35q-34 -27 -60 -27q-35 0 -56 24q-17 20 -17 53z" />
<glyph unicode="&#xd2;" horiz-adv-x="1325" d="M138 729.5q0 109.5 1.5 167.5t9.5 130t23 116t43 90.5t70 88.5q148 148 378 148q228 0 376 -148q42 -42 70 -88.5t43.5 -91t23.5 -115.5t9.5 -130t1.5 -167.5t-1.5 -168t-9.5 -130.5t-23.5 -115.5t-43.5 -91t-70 -88.5q-148 -148 -376 -148q-229 0 -378 148 q-42 42 -70 88.5t-43 90.5t-23 116t-9.5 130.5t-1.5 168zM359 729q0 -220 16.5 -308t69.5 -145q86 -92 218 -92q130 0 217 92q53 57 69.5 145.5t16.5 307.5t-16.5 307.5t-69.5 146.5q-86 91 -217 91q-132 0 -218 -91q-53 -56 -69.5 -145t-16.5 -309zM423 1878q-3 48 44 79 q25 15 50.5 15t47.5 -16q17 -12 45 -56l96 -153q31 -50 31 -76q3 -48 -44 -79q-25 -15 -50.5 -15t-47.5 16q-17 12 -45 57l-95 152q-31 50 -32 76z" />
<glyph unicode="&#xd3;" horiz-adv-x="1325" d="M138 729.5q0 109.5 1.5 167.5t9.5 130t23 116t43 90.5t70 88.5q148 148 378 148q228 0 376 -148q42 -42 70 -88.5t43.5 -91t23.5 -115.5t9.5 -130t1.5 -167.5t-1.5 -168t-9.5 -130.5t-23.5 -115.5t-43.5 -91t-70 -88.5q-148 -148 -376 -148q-229 0 -378 148 q-42 42 -70 88.5t-43 90.5t-23 116t-9.5 130.5t-1.5 168zM359 729q0 -220 16.5 -308t69.5 -145q86 -92 218 -92q130 0 217 92q53 57 69.5 145.5t16.5 307.5t-16.5 307.5t-69.5 146.5q-86 91 -217 91q-132 0 -218 -91q-53 -56 -69.5 -145t-16.5 -309zM586 1671q1 26 31 76 l96 153q28 44 45 56q23 16 48 16t50 -15q47 -31 44 -79q-1 -26 -32 -76l-95 -152q-28 -44 -45 -57q-23 -16 -48.5 -16t-49.5 15q-47 31 -44 79z" />
<glyph unicode="&#xd4;" horiz-adv-x="1325" d="M138 729.5q0 109.5 1.5 167.5t9.5 130t23 116t43 90.5t70 88.5q148 148 378 148q228 0 376 -148q42 -42 70 -88.5t43.5 -91t23.5 -115.5t9.5 -130t1.5 -167.5t-1.5 -168t-9.5 -130.5t-23.5 -115.5t-43.5 -91t-70 -88.5q-148 -148 -376 -148q-229 0 -378 148 q-42 42 -70 88.5t-43 90.5t-23 116t-9.5 130.5t-1.5 168zM357 1677q6 25 44 63l170 170q49 49 90 49t91 -49l170 -170q38 -38 44 -63q13 -43 -23 -79q-37 -35 -78 -22q-27 7 -63 44l-140 141l-141 -141q-37 -37 -63 -44q-41 -12 -78 22q-36 36 -23 79zM359 729 q0 -220 16.5 -308t69.5 -145q86 -92 218 -92q130 0 217 92q53 57 69.5 145.5t16.5 307.5t-16.5 307.5t-69.5 146.5q-86 91 -217 91q-132 0 -218 -91q-53 -56 -69.5 -145t-16.5 -309z" />
<glyph unicode="&#xd5;" horiz-adv-x="1325" d="M138 729.5q0 109.5 1.5 167.5t9.5 130t23 116t43 90.5t70 88.5q148 148 378 148q228 0 376 -148q42 -42 70 -88.5t43.5 -91t23.5 -115.5t9.5 -130t1.5 -167.5t-1.5 -168t-9.5 -130.5t-23.5 -115.5t-43.5 -91t-70 -88.5q-148 -148 -376 -148q-229 0 -378 148 q-42 42 -70 88.5t-43 90.5t-23 116t-9.5 130.5t-1.5 168zM309 1711q0 39 47 79q77 63 171 63q44 0 76.5 -10t77.5 -36q68 -38 110 -38q47 0 90 35q33 27 60 27q35 0 55 -24q17 -20 18 -53q0 -39 -47 -79q-77 -63 -171 -63q-44 0 -76.5 10t-77.5 36q-68 38 -110 38 q-47 0 -90 -35q-33 -27 -60 -27q-35 0 -55 24q-18 20 -18 53zM359 729q0 -220 16.5 -308t69.5 -145q86 -92 218 -92q130 0 217 92q53 57 69.5 145.5t16.5 307.5t-16.5 307.5t-69.5 146.5q-86 91 -217 91q-132 0 -218 -91q-53 -56 -69.5 -145t-16.5 -309z" />
<glyph unicode="&#xd6;" horiz-adv-x="1325" d="M138 729.5q0 109.5 1.5 167.5t9.5 130t23 116t43 90.5t70 88.5q148 148 378 148q228 0 376 -148q42 -42 70 -88.5t43.5 -91t23.5 -115.5t9.5 -130t1.5 -167.5t-1.5 -168t-9.5 -130.5t-23.5 -115.5t-43.5 -91t-70 -88.5q-148 -148 -376 -148q-229 0 -378 148 q-42 42 -70 88.5t-43 90.5t-23 116t-9.5 130.5t-1.5 168zM322 1718q0 47 33.5 81t80.5 34q48 0 82.5 -34t34.5 -81t-35 -81.5t-82 -34.5t-80.5 34t-33.5 82zM359 729q0 -220 16.5 -308t69.5 -145q86 -92 218 -92q130 0 217 92q53 57 69.5 145.5t16.5 307.5t-16.5 307.5 t-69.5 146.5q-86 91 -217 91q-132 0 -218 -91q-53 -56 -69.5 -145t-16.5 -309zM770 1718q0 47 34.5 81t82.5 34q47 0 80.5 -34t33.5 -81q0 -48 -33.5 -82t-80.5 -34t-82 34.5t-35 81.5z" />
<glyph unicode="&#xd7;" d="M157 296q8 30 52 74l199 198l-199 198q-44 44 -52 74q-13 49 26 89q41 41 91 27q29 -8 73 -52l199 -197l198 197q44 44 73 52q50 13 91 -27q40 -40 27 -89q-8 -30 -52 -74l-199 -198l199 -198q44 -44 52 -74q13 -49 -27 -89q-41 -41 -91 -28q-29 7 -73 52l-198 199 l-199 -199q-44 -45 -73 -52q-50 -13 -91 28q-39 40 -26 89z" />
<glyph unicode="&#xd8;" horiz-adv-x="1325" d="M138 729q0 110 1.5 168t9.5 130t23 116t43 90.5t70 88.5q148 148 378 148q125 0 233 -51l31 61q25 49 48 64q37 25 82 2q46 -23 46 -70q0 -26 -24 -73l-40 -81q42 -42 70 -88.5t43.5 -91t23.5 -115.5t9.5 -130t1.5 -167.5t-1.5 -168t-9.5 -130.5t-23.5 -115.5t-43.5 -91 t-70 -88.5q-148 -148 -376 -148q-132 0 -236 52l-30 -62q-25 -49 -48 -64q-37 -25 -82 -2q-46 23 -46 71q0 26 24 72l41 81q-42 42 -70 88.5t-43.5 91t-23.5 115.5t-9.5 130t-1.5 168zM359 729q0 -163 9.5 -238t44.5 -130l412 867q-72 46 -162 46q-132 0 -218 -91 q-53 -56 -69.5 -145t-16.5 -309zM499 231q73 -47 164 -47q130 0 217 92q53 57 69.5 145.5t16.5 307.5q0 161 -10 237t-45 130z" />
<glyph unicode="&#xd9;" horiz-adv-x="1378" d="M167 492v824q0 43 2.5 61.5t13.5 38.5q28 50 94.5 50t94.5 -50q11 -20 13.5 -38.5t2.5 -61.5v-814q0 -146 82 -232t219 -86t219 85.5t82 232.5v814q0 43 2.5 61.5t14.5 38.5q28 50 94 50t94 -50q11 -20 13.5 -38.5t2.5 -61.5v-824q0 -223 -148.5 -363.5t-373.5 -140.5 t-373.5 140.5t-148.5 363.5zM451 1878q-3 48 44 79q25 15 50 15t48 -16q17 -12 45 -56l95 -153q31 -50 32 -76q3 -48 -44 -79q-25 -15 -50.5 -15t-47.5 16q-17 12 -45 57l-96 152q-30 50 -31 76z" />
<glyph unicode="&#xda;" horiz-adv-x="1378" d="M167 492v824q0 43 2.5 61.5t13.5 38.5q28 50 94.5 50t94.5 -50q11 -20 13.5 -38.5t2.5 -61.5v-814q0 -146 82 -232t219 -86t219 85.5t82 232.5v814q0 43 2.5 61.5t14.5 38.5q28 50 94 50t94 -50q11 -20 13.5 -38.5t2.5 -61.5v-824q0 -223 -148.5 -363.5t-373.5 -140.5 t-373.5 140.5t-148.5 363.5zM613 1671q1 26 32 76l95 153q28 44 45 56q23 16 48.5 16t50.5 -15q47 -31 44 -79q-1 -26 -32 -76l-95 -152q-28 -44 -45 -57q-23 -16 -48.5 -16t-50.5 15q-47 31 -44 79z" />
<glyph unicode="&#xdb;" horiz-adv-x="1378" d="M167 492v824q0 43 2.5 61.5t13.5 38.5q28 50 94.5 50t94.5 -50q11 -20 13.5 -38.5t2.5 -61.5v-814q0 -146 82 -232t219 -86t219 85.5t82 232.5v814q0 43 2.5 61.5t14.5 38.5q28 50 94 50t94 -50q11 -20 13.5 -38.5t2.5 -61.5v-824q0 -223 -148.5 -363.5t-373.5 -140.5 t-373.5 140.5t-148.5 363.5zM385 1677q6 25 44 63l170 170q49 49 90 49t90 -49l170 -170q38 -38 44 -63q13 -43 -22 -79q-37 -35 -78 -22q-27 7 -64 44l-140 141l-140 -141q-37 -37 -64 -44q-41 -12 -77 22q-36 36 -23 79z" />
<glyph unicode="&#xdc;" horiz-adv-x="1378" d="M167 492v824q0 43 2.5 61.5t13.5 38.5q28 50 94.5 50t94.5 -50q11 -20 13.5 -38.5t2.5 -61.5v-814q0 -146 82 -232t219 -86t219 85.5t82 232.5v814q0 43 2.5 61.5t14.5 38.5q28 50 94 50t94 -50q11 -20 13.5 -38.5t2.5 -61.5v-824q0 -223 -148.5 -363.5t-373.5 -140.5 t-373.5 140.5t-148.5 363.5zM349 1718q0 47 33.5 81t81.5 34t82.5 -34t34.5 -81t-34.5 -81.5t-82.5 -34.5q-47 0 -81 34t-34 82zM798 1718q0 47 34 81t82.5 34t81.5 -34t33 -81q0 -48 -33.5 -82t-81.5 -34t-82 34.5t-34 81.5z" />
<glyph unicode="&#xdd;" horiz-adv-x="1071" d="M45 1372q2 54 57 82q25 12 52.5 12t50.5 -15q25 -17 54 -77l277 -554l276 554q30 59 54 77q23 15 50.5 15t52.5 -12q55 -28 57 -82q1 -33 -28 -91l-352 -700v-439q0 -43 -2.5 -61.5t-13.5 -38.5q-28 -50 -94.5 -50t-94.5 50q-11 20 -13.5 38.5t-2.5 61.5v439l-352 700 q-29 58 -28 91zM459 1671q1 26 31 76l96 153q28 44 45 56q23 16 48.5 16t49.5 -15q47 -31 44 -79q-1 -26 -32 -76l-95 -152q-28 -44 -45 -57q-23 -16 -48.5 -16t-49.5 15q-47 31 -44 79z" />
<glyph unicode="&#xde;" horiz-adv-x="1304" d="M189 142v1174q0 43 3 61.5t14 38.5q28 50 94.5 50t93.5 -50q11 -20 14 -38.5t3 -61.5v-138h331q211 0 339 -124.5t128 -318t-128 -317t-339 -123.5h-331v-153q0 -43 -2.5 -61.5t-14.5 -38.5q-28 -50 -94.5 -50t-93.5 50q-11 20 -14 38.5t-3 61.5zM411 492h319 q119 0 189 65t70 179.5t-70 179.5t-189 65h-319v-489z" />
<glyph unicode="&#xdf;" horiz-adv-x="1155" d="M166 134v935q0 199 117.5 301.5t318.5 102.5q122 0 215 -36.5t150 -117.5t57 -198q0 -157 -127 -237q68 -36 97.5 -88t29.5 -147v-351q0 -138 -82 -217q-84 -81 -216 -81h-20q-58 0 -89 16q-42 23 -42 73q0 51 42 74q23 12 76 14q58 2 88 35q34 35 34 107v343 q0 69 -35 103q-30 30 -95 32q-51 1 -73 13q-37 20 -37 67.5t37 67.5q22 12 73 13q58 2 94 41.5t36 110.5q0 77 -51 126q-53 52 -168 52q-118 0 -169.5 -60t-51.5 -171v-923q0 -62 -16 -93q-26 -49 -89 -49t-89 49q-15 31 -15 93z" />
<glyph unicode="&#xe0;" horiz-adv-x="1085" d="M85 305q0 135 93.5 218t265.5 83h276v65q0 103 -52 152.5t-165 49.5q-108 0 -199 -69q-36 -28 -76 -28q-38 0 -60 28q-25 28 -25 64q0 63 98 120q109 62 264 63q209 0 317 -91t108 -267v-559q0 -67 -16 -94q-26 -48 -89 -48q-48 0 -75 30q-22 25 -24 74 q-61 -60 -122 -83.5t-157 -23.5q-188 0 -279 94q-83 85 -83 222zM286 1508q-3 48 44 79q25 15 50.5 15.5t47.5 -16.5q17 -12 45 -56l95 -153q31 -50 32 -75q3 -48 -44 -79q-25 -15 -50.5 -15.5t-47.5 16.5q-17 12 -45 56l-96 153q-30 49 -31 75zM289 308q0 -146 195 -146 q63 0 108 11.5t82 47.5q46 43 46 155v82h-246q-91 0 -138 -38.5t-47 -111.5z" />
<glyph unicode="&#xe1;" horiz-adv-x="1085" d="M85 305q0 135 93.5 218t265.5 83h276v65q0 103 -52 152.5t-165 49.5q-108 0 -199 -69q-36 -28 -76 -28q-38 0 -60 28q-25 28 -25 64q0 63 98 120q109 62 264 63q209 0 317 -91t108 -267v-559q0 -67 -16 -94q-26 -48 -89 -48q-48 0 -75 30q-22 25 -24 74 q-61 -60 -122 -83.5t-157 -23.5q-188 0 -279 94q-83 85 -83 222zM289 308q0 -146 195 -146q63 0 108 11.5t82 47.5q46 43 46 155v82h-246q-91 0 -138 -38.5t-47 -111.5zM451 1302q1 26 31 75l96 153q28 44 45 56q23 16 48 16.5t50 -15.5q47 -31 44 -79q-1 -26 -32 -75 l-95 -153q-28 -44 -45 -56q-23 -16 -48.5 -16.5t-49.5 15.5q-47 31 -44 79z" />
<glyph unicode="&#xe2;" horiz-adv-x="1085" d="M85 305q0 135 93.5 218t265.5 83h276v65q0 103 -52 152.5t-165 49.5q-108 0 -199 -69q-36 -28 -76 -28q-38 0 -60 28q-25 28 -25 64q0 63 98 120q109 62 264 63q209 0 317 -91t108 -267v-559q0 -67 -16 -94q-26 -48 -89 -48q-48 0 -75 30q-22 25 -24 74 q-61 -60 -122 -83.5t-157 -23.5q-188 0 -279 94q-83 85 -83 222zM221 1304q6 25 44 62l170 170q49 49 90 49t90 -49l170 -170q38 -38 44 -62q13 -43 -22 -79q-37 -35 -78 -23q-27 7 -63 44l-141 142l-140 -142q-37 -37 -63 -44q-41 -12 -78 23q-36 36 -23 79zM289 308 q0 -146 195 -146q63 0 108 11.5t82 47.5q46 43 46 155v82h-246q-91 0 -138 -38.5t-47 -111.5z" />
<glyph unicode="&#xe3;" horiz-adv-x="1085" d="M85 305q0 135 93.5 218t265.5 83h276v65q0 103 -52 152.5t-165 49.5q-108 0 -199 -69q-36 -28 -76 -28q-38 0 -60 28q-25 28 -25 64q0 63 98 120q109 62 264 63q209 0 317 -91t108 -267v-559q0 -67 -16 -94q-26 -48 -89 -48q-48 0 -75 30q-22 25 -24 74 q-61 -60 -122 -83.5t-157 -23.5q-188 0 -279 94q-83 85 -83 222zM173 1345q0 39 47 78q77 63 171 64q44 0 76.5 -10.5t77.5 -35.5q68 -38 109 -38q47 0 90 35q34 27 61 26q35 0 55 -23q17 -20 18 -53q0 -39 -48 -79q-77 -63 -171 -64q-44 0 -76 10.5t-77 35.5 q-68 38 -110 38q-47 0 -90 -35q-34 -27 -60 -26q-35 0 -56 23q-17 21 -17 54zM289 308q0 -146 195 -146q63 0 108 11.5t82 47.5q46 43 46 155v82h-246q-91 0 -138 -38.5t-47 -111.5z" />
<glyph unicode="&#xe4;" horiz-adv-x="1085" d="M85 305q0 135 93.5 218t265.5 83h276v65q0 103 -52 152.5t-165 49.5q-108 0 -199 -69q-36 -28 -76 -28q-38 0 -60 28q-25 28 -25 64q0 63 98 120q109 62 264 63q209 0 317 -91t108 -267v-559q0 -67 -16 -94q-26 -48 -89 -48q-48 0 -75 30q-22 25 -24 74 q-61 -60 -122 -83.5t-157 -23.5q-188 0 -279 94q-83 85 -83 222zM185 1346q0 47 33.5 80.5t81.5 33.5t82.5 -33.5t34.5 -81t-34.5 -82t-82.5 -34.5q-47 0 -81 34.5t-34 82.5zM289 308q0 -146 195 -146q63 0 108 11.5t82 47.5q46 43 46 155v82h-246q-91 0 -138 -38.5 t-47 -111.5zM636 1345.5q0 47.5 34.5 81t82.5 33.5t81 -33.5t33 -80.5q0 -48 -33.5 -82.5t-80.5 -34.5q-48 0 -82.5 34.5t-34.5 82z" />
<glyph unicode="&#xe5;" horiz-adv-x="1085" d="M85 305q0 135 93.5 218t265.5 83h276v65q0 103 -52 152.5t-165 49.5q-108 0 -199 -69q-36 -28 -76 -28q-38 0 -60 28q-25 28 -25 64q0 63 98 120q109 62 264 63q209 0 317 -91t108 -267v-559q0 -67 -16 -94q-26 -48 -89 -48q-48 0 -75 30q-22 25 -24 74 q-61 -60 -122 -83.5t-157 -23.5q-188 0 -279 94q-83 85 -83 222zM269 1435.5q0 106.5 75.5 181.5t181 75t180.5 -75t75 -181.5t-75 -181t-180.5 -74.5t-181 74.5t-75.5 181zM289 308q0 -146 195 -146q63 0 108 11.5t82 47.5q46 43 46 155v82h-246q-91 0 -138 -38.5 t-47 -111.5zM395 1435.5q0 -53.5 38 -91.5t92.5 -38t92 38t37.5 91.5t-37.5 92t-92 38.5t-92.5 -38.5t-38 -92z" />
<glyph unicode="&#xe6;" horiz-adv-x="1708" d="M85 305q0 135 93.5 218t265.5 83h276v65q0 103 -52 152.5t-165 49.5q-108 0 -199 -69q-36 -28 -76 -28q-38 0 -60 28q-25 28 -25 64q0 63 98 120q110 63 264 64q249 0 347 -137q112 136 308 137q200 -1 317 -132.5t122 -340.5q2 -62 -28 -94q-27 -27 -92 -26h-552 q0 -135 69 -214t197 -79q118 0 200 65q47 38 85 38q32 0 59 -27t27 -62q0 -59 -105 -126q-101 -67 -271 -66q-250 0 -370 160q-75 -92 -159.5 -125.5t-211.5 -33.5q-188 0 -279 94q-83 85 -83 222zM289 308q0 -146 195 -146q63 0 108 11.5t82 47.5q46 43 46 155v82h-246 q-91 0 -138 -38.5t-47 -111.5zM927 604h467q-6 91 -29 141q-27 60 -80 96t-125 36q-73 0 -126.5 -35.5t-80.5 -96.5q-23 -52 -26 -141z" />
<glyph unicode="&#xe7;" horiz-adv-x="992" d="M113 519q0 140 38 246t104.5 166.5t146 90t171.5 29.5q126 0 228 -66q49 -32 75 -60.5t26 -64.5q0 -37 -30 -68q-27 -27 -64 -27q-35 0 -83 40q-72 57 -152 57q-122 0 -189 -89q-62 -82 -62 -254t62 -253q68 -90 189 -90q77 0 152 58q50 40 83 40q37 0 64 -27 q30 -32 30 -69q0 -36 -27 -65t-74 -60q-102 -66 -228 -65q-92 0 -171.5 29t-146 89.5t-104.5 166.5t-38 246zM339 -411q1 27 33 76l95 153q29 45 45 56q23 16 48.5 16t49.5 -15q47 -31 44 -79q-1 -26 -31 -76l-96 -152q-28 -44 -45 -57q-24 -15 -48 -16q-27 0 -50 16 q-48 29 -45 78z" />
<glyph unicode="&#xe8;" horiz-adv-x="1100" d="M113 519q0 253 118.5 392.5t321.5 139.5q200 0 317 -131.5t122 -340.5q2 -62 -28 -94q-27 -27 -93 -26h-552q0 -135 69.5 -214t197.5 -79q118 0 199 65q47 38 85 38q33 0 59.5 -27t26.5 -62q0 -59 -104 -126q-101 -67 -271 -66q-101 0 -183.5 28t-148 88.5t-101 166 t-35.5 248.5zM315 1508q-3 48 44 79q25 15 50.5 15.5t48.5 -16.5q17 -12 45 -56l95 -153q31 -50 32 -75q3 -48 -44 -79q-25 -15 -50.5 -15.5t-48.5 16.5q-17 12 -45 56l-95 153q-31 49 -32 75zM319 604h467q-6 91 -28 141q-27 60 -80 96t-125 36q-73 0 -126.5 -35.5 t-80.5 -96.5q-24 -52 -27 -141z" />
<glyph unicode="&#xe9;" horiz-adv-x="1100" d="M113 519q0 253 118.5 392.5t321.5 139.5q200 0 317 -131.5t122 -340.5q2 -62 -28 -94q-27 -27 -93 -26h-552q0 -135 69.5 -214t197.5 -79q118 0 199 65q47 38 85 38q33 0 59.5 -27t26.5 -62q0 -59 -104 -126q-101 -67 -271 -66q-101 0 -183.5 28t-148 88.5t-101 166 t-35.5 248.5zM319 604h467q-6 91 -28 141q-27 60 -80 96t-125 36q-73 0 -126.5 -35.5t-80.5 -96.5q-24 -52 -27 -141zM480 1302q1 26 32 75l95 153q28 44 45 56q23 16 48.5 16.5t50.5 -15.5q47 -31 44 -79q-1 -26 -32 -75l-95 -153q-28 -44 -45 -56q-23 -16 -48.5 -16.5 t-50.5 15.5q-47 31 -44 79z" />
<glyph unicode="&#xea;" horiz-adv-x="1100" d="M113 519q0 253 118.5 392.5t321.5 139.5q200 0 317 -131.5t122 -340.5q2 -62 -28 -94q-27 -27 -93 -26h-552q0 -135 69.5 -214t197.5 -79q118 0 199 65q47 38 85 38q33 0 59.5 -27t26.5 -62q0 -59 -104 -126q-101 -67 -271 -66q-101 0 -183.5 28t-148 88.5t-101 166 t-35.5 248.5zM251 1304q6 25 44 62l170 170q49 49 90 49t90 -49l170 -170q38 -38 44 -62q13 -43 -22 -79q-37 -35 -78 -23q-27 7 -64 44l-140 142l-140 -142q-37 -37 -64 -44q-41 -12 -78 23q-35 36 -22 79zM319 604h467q-6 91 -28 141q-27 60 -80 96t-125 36 q-73 0 -126.5 -35.5t-80.5 -96.5q-24 -52 -27 -141z" />
<glyph unicode="&#xeb;" horiz-adv-x="1100" d="M113 519q0 253 118.5 392.5t321.5 139.5q200 0 317 -131.5t122 -340.5q2 -62 -28 -94q-27 -27 -93 -26h-552q0 -135 69.5 -214t197.5 -79q118 0 199 65q47 38 85 38q33 0 59.5 -27t26.5 -62q0 -59 -104 -126q-101 -67 -271 -66q-101 0 -183.5 28t-148 88.5t-101 166 t-35.5 248.5zM215 1346q0 47 34 80.5t81 33.5q48 0 82 -33.5t34 -81t-34.5 -82t-81.5 -34.5t-81 34.5t-34 82.5zM319 604h467q-6 91 -28 141q-27 60 -80 96t-125 36q-73 0 -126.5 -35.5t-80.5 -96.5q-24 -52 -27 -141zM666 1345.5q0 47.5 34 81t82 33.5q47 0 81 -33.5 t34 -80.5q0 -48 -34 -82.5t-81 -34.5t-81.5 34.5t-34.5 82z" />
<glyph unicode="&#xec;" horiz-adv-x="540" d="M32 1508q-3 48 44 79q25 15 50.5 15.5t47.5 -16.5q17 -12 45 -56l95 -153q31 -50 32 -75q3 -48 -44 -79q-25 -15 -50.5 -15.5t-47.5 16.5q-17 12 -45 56l-96 153q-30 49 -31 75zM166 134v770q0 62 15 93q26 49 89.5 49.5t88.5 -49.5q15 -31 16 -93v-770q0 -62 -16 -93 q-26 -49 -89 -49t-89 49q-15 31 -15 93z" />
<glyph unicode="&#xed;" horiz-adv-x="540" d="M166 134v770q0 62 15 93q26 49 89.5 49.5t88.5 -49.5q15 -31 16 -93v-770q0 -62 -16 -93q-26 -49 -89 -49t-89 49q-15 31 -15 93zM197 1302q1 26 31 75l96 153q28 44 45 56q23 16 48 16.5t50 -15.5q47 -31 44 -79q-1 -26 -32 -75l-95 -153q-28 -44 -45 -56 q-23 -16 -48.5 -16.5t-49.5 15.5q-47 31 -44 79z" />
<glyph unicode="&#xee;" horiz-adv-x="540" d="M-33 1304q6 25 44 62l170 170q49 49 90 49t90 -49l170 -170q38 -38 44 -62q13 -43 -22 -79q-37 -35 -78 -23q-27 7 -63 44l-141 142l-140 -142q-37 -37 -63 -44q-41 -12 -78 23q-36 36 -23 79zM166 134v770q0 62 15 93q26 49 89.5 49.5t88.5 -49.5q15 -31 16 -93v-770 q0 -62 -16 -93q-26 -49 -89 -49t-89 49q-15 31 -15 93z" />
<glyph unicode="&#xef;" horiz-adv-x="540" d="M-46 1346q0 47 33 80.5t81.5 33.5t82.5 -33.5t34 -81t-34 -82t-82 -34.5q-47 0 -81 34.5t-34 82.5zM166 134v770q0 62 15 93q26 49 89.5 49.5t88.5 -49.5q15 -31 16 -93v-770q0 -62 -16 -93q-26 -49 -89 -49t-89 49q-15 31 -15 93zM355 1345.5q0 47.5 34.5 81t82.5 33.5 t81.5 -33.5t33.5 -80.5q0 -48 -34 -82.5t-81 -34.5q-48 0 -82.5 34.5t-34.5 82z" />
<glyph unicode="&#xf0;" horiz-adv-x="1099" d="M125 510q0 140 25.5 235.5t95.5 165.5q80 83 213 105q34 6 69 6q42 0 86 -10l-71 142h-165q-53 0 -74 12q-37 20 -37 68t37 69q20 12 74 12h85q-19 40 -20 69q0 38 30.5 65.5t68.5 27.5q28 0 49 -16q27 -19 53 -72l37 -74h111q52 0 72 -12q37 -20 37 -69q0 -47 -37 -68 q-20 -12 -72 -12h-29l87 -169q76 -148 100.5 -241t24.5 -234t-24.5 -233.5t-96.5 -167.5q-114 -121 -305 -121q-189 0 -303 121q-72 76 -96.5 168t-24.5 233zM334 510q0 -100 12.5 -168t54.5 -111q59 -59 148 -59q90 0 149 59q42 43 55 111t13 168q0 99 -13 166t-55 110 q-59 59 -149 60q-88 0 -148 -60q-42 -43 -54.5 -110t-12.5 -166z" />
<glyph unicode="&#xf1;" horiz-adv-x="1163" d="M166 134v769q0 69 18 99q28 44 86 45q56 0 85 -41q16 -24 19 -69q108 114 273 114q159 0 256 -95q104 -101 105 -292v-530q0 -62 -16 -93q-26 -49 -89 -49t-89 49q-15 31 -15 93v499q0 116 -58 172.5t-151 56.5q-94 0 -154.5 -58t-60.5 -171v-499q0 -62 -16 -93 q-26 -49 -89 -49t-89 49q-15 31 -15 93zM238 1345q0 39 47 78q77 63 171 64q44 0 76 -10.5t77 -35.5q68 -38 110 -38q47 0 90 35q33 27 60 26q35 0 56 -23q17 -20 17 -53q0 -39 -47 -79q-77 -63 -171 -64q-44 0 -76.5 10.5t-77.5 35.5q-68 38 -109 38q-47 0 -90 -35 q-33 -27 -61 -26q-35 0 -55 23q-17 21 -17 54z" />
<glyph unicode="&#xf2;" horiz-adv-x="1099" d="M118 519.5q0 144.5 25 239.5t97 169q119 123 310 123t310 -123q71 -74 96.5 -169.5t25.5 -239t-25.5 -239.5t-96.5 -169q-119 -123 -310.5 -123t-309.5 123q-72 74 -97 169t-25 239.5zM311 1508q-3 48 44 79q25 15 50.5 15.5t48.5 -16.5q17 -12 45 -56l95 -153 q31 -50 32 -75q3 -48 -44 -79q-25 -15 -50.5 -15.5t-48.5 16.5q-17 12 -45 56l-95 153q-31 49 -32 75zM327 519q0 -101 14 -170.5t57 -112.5q58 -59 151.5 -59.5t151.5 59.5q43 43 57.5 112.5t14.5 170.5q0 100 -14.5 170.5t-57.5 113.5q-58 59 -151 59t-152 -59 q-43 -43 -57 -113.5t-14 -170.5z" />
<glyph unicode="&#xf3;" horiz-adv-x="1099" d="M118 519.5q0 144.5 25 239.5t97 169q119 123 310 123t310 -123q71 -74 96.5 -169.5t25.5 -239t-25.5 -239.5t-96.5 -169q-119 -123 -310.5 -123t-309.5 123q-72 74 -97 169t-25 239.5zM327 519q0 -101 14 -170.5t57 -112.5q58 -59 151.5 -59.5t151.5 59.5 q43 43 57.5 112.5t14.5 170.5q0 100 -14.5 170.5t-57.5 113.5q-58 59 -151 59t-152 -59q-43 -43 -57 -113.5t-14 -170.5zM476 1302q1 26 32 75l95 153q28 44 45 56q23 16 48.5 16.5t49.5 -15.5q47 -31 45 -79q-1 -26 -32 -75l-95 -153q-28 -44 -46 -56q-23 -16 -48 -16.5 t-50 15.5q-47 31 -44 79z" />
<glyph unicode="&#xf4;" horiz-adv-x="1099" d="M118 519.5q0 144.5 25 239.5t97 169q119 123 310 123t310 -123q71 -74 96.5 -169.5t25.5 -239t-25.5 -239.5t-96.5 -169q-119 -123 -310.5 -123t-309.5 123q-72 74 -97 169t-25 239.5zM247 1304q6 25 44 62l170 170q49 49 90 49t90 -49l170 -170q38 -38 44 -62 q13 -43 -22 -79q-37 -35 -78 -23q-27 7 -64 44l-140 142l-140 -142q-37 -37 -64 -44q-41 -12 -78 23q-35 36 -22 79zM327 519q0 -101 14 -170.5t57 -112.5q58 -59 151.5 -59.5t151.5 59.5q43 43 57.5 112.5t14.5 170.5q0 100 -14.5 170.5t-57.5 113.5q-58 59 -151 59 t-152 -59q-43 -43 -57 -113.5t-14 -170.5z" />
<glyph unicode="&#xf5;" horiz-adv-x="1099" d="M118 519.5q0 144.5 25 239.5t97 169q119 123 310 123t310 -123q71 -74 96.5 -169.5t25.5 -239t-25.5 -239.5t-96.5 -169q-119 -123 -310.5 -123t-309.5 123q-72 74 -97 169t-25 239.5zM199 1345q0 39 47 78q77 63 171 64q44 0 76 -10.5t77 -35.5q68 -38 110 -38 q47 0 90 35q33 27 60 26q35 0 56 -23q17 -20 17 -53q0 -39 -47 -79q-77 -63 -171 -64q-44 0 -76 10.5t-78 35.5q-68 38 -109 38q-47 0 -90 -35q-33 -27 -61 -26q-35 0 -55 23q-17 21 -17 54zM327 519q0 -101 14 -170.5t57 -112.5q58 -59 151.5 -59.5t151.5 59.5 q43 43 57.5 112.5t14.5 170.5q0 100 -14.5 170.5t-57.5 113.5q-58 59 -151 59t-152 -59q-43 -43 -57 -113.5t-14 -170.5z" />
<glyph unicode="&#xf6;" horiz-adv-x="1099" d="M118 519.5q0 144.5 25 239.5t97 169q119 123 310 123t310 -123q71 -74 96.5 -169.5t25.5 -239t-25.5 -239.5t-96.5 -169q-119 -123 -310.5 -123t-309.5 123q-72 74 -97 169t-25 239.5zM211 1346q0 47 34 80.5t81 33.5q48 0 82 -33.5t34 -81t-34.5 -82t-81.5 -34.5 t-81 34.5t-34 82.5zM327 519q0 -101 14 -170.5t57 -112.5q58 -59 151.5 -59.5t151.5 59.5q43 43 57.5 112.5t14.5 170.5q0 100 -14.5 170.5t-57.5 113.5q-58 59 -151 59t-152 -59q-43 -43 -57 -113.5t-14 -170.5zM662 1345.5q0 47.5 34 81t82 33.5q47 0 81 -33.5t34 -80.5 q0 -48 -34 -82.5t-81 -34.5t-81.5 34.5t-34.5 82z" />
<glyph unicode="&#xf7;" d="M96 569.5q0 54.5 43 79.5q24 14 85 15h643q61 0 85 -15q43 -26 43 -80t-43 -80q-26 -14 -85 -14h-643q-59 0 -85 14q-43 26 -43 80.5zM396 173q0 61 44 104.5t105.5 43.5t105.5 -43.5t44 -104.5t-44 -105t-105.5 -44t-105.5 44t-44 105zM396 965.5q0 61.5 44 104.5 t105.5 43t105.5 -43t44 -104.5t-44 -105.5t-105.5 -44t-105.5 44t-44 105.5z" />
<glyph unicode="&#xf8;" horiz-adv-x="1099" d="M118 520q0 141 26 238t96 170q119 123 309 123q111 0 203 -46l41 69q29 47 52 56q34 13 65 -6q40 -23 38 -64q-3 -25 -25 -63l-51 -84q62 -71 86 -164.5t24 -228.5q0 -143 -26 -240t-96 -169q-119 -123 -311 -123q-111 0 -203 46l-42 -71q-29 -47 -52 -56q-34 -13 -66 6 q-40 24 -36 64q1 24 24 63l52 85q-61 71 -84.5 161t-23.5 234zM327 519q0 -151 37 -212l307 522q-51 33 -121 33q-95 0 -154 -58q-43 -44 -56 -113t-13 -172zM428 211q54 -35 121 -35q93 0 153 61q43 44 57 113t14 171q0 148 -38 212z" />
<glyph unicode="&#xf9;" horiz-adv-x="1163" d="M156 375v529q0 62 15 93q26 49 89.5 49.5t88.5 -49.5q15 -31 16 -93v-498q0 -116 57.5 -173t150.5 -57q94 0 154.5 58t60.5 172v498q0 62 16 93q26 49 89 49.5t89 -49.5q15 -31 15 -93v-769q0 -69 -18 -99q-28 -44 -86 -44q-56 0 -85 41q-16 24 -18 68 q-108 -114 -274 -113q-159 0 -256 94q-104 102 -104 293zM335 1508q-3 48 44 79q25 15 50.5 15.5t47.5 -16.5q17 -12 45 -56l95 -153q31 -50 32 -75q3 -48 -44 -79q-25 -15 -50.5 -15.5t-47.5 16.5q-17 12 -45 56l-95 153q-31 49 -32 75z" />
<glyph unicode="&#xfa;" horiz-adv-x="1163" d="M156 375v529q0 62 15 93q26 49 89.5 49.5t88.5 -49.5q15 -31 16 -93v-498q0 -116 57.5 -173t150.5 -57q94 0 154.5 58t60.5 172v498q0 62 16 93q26 49 89 49.5t89 -49.5q15 -31 15 -93v-769q0 -69 -18 -99q-28 -44 -86 -44q-56 0 -85 41q-16 24 -18 68 q-108 -114 -274 -113q-159 0 -256 94q-104 102 -104 293zM500 1302q1 26 31 75l96 153q28 44 45 56q23 16 48 16.5t50 -15.5q47 -31 44 -79q-1 -26 -32 -75l-95 -153q-28 -44 -45 -56q-23 -16 -48.5 -16.5t-49.5 15.5q-47 31 -44 79z" />
<glyph unicode="&#xfb;" horiz-adv-x="1163" d="M156 375v529q0 62 15 93q26 49 89.5 49.5t88.5 -49.5q15 -31 16 -93v-498q0 -116 57.5 -173t150.5 -57q94 0 154.5 58t60.5 172v498q0 62 16 93q26 49 89 49.5t89 -49.5q15 -31 15 -93v-769q0 -69 -18 -99q-28 -44 -86 -44q-56 0 -85 41q-16 24 -18 68 q-108 -114 -274 -113q-159 0 -256 94q-104 102 -104 293zM270 1304q6 25 44 62l170 170q49 49 90 49t91 -49l170 -170q38 -38 44 -62q13 -43 -23 -79q-37 -35 -78 -23q-27 7 -63 44l-141 142l-140 -142q-37 -37 -63 -44q-41 -12 -78 23q-36 36 -23 79z" />
<glyph unicode="&#xfc;" horiz-adv-x="1163" d="M156 375v529q0 62 15 93q26 49 89.5 49.5t88.5 -49.5q15 -31 16 -93v-498q0 -116 57.5 -173t150.5 -57q94 0 154.5 58t60.5 172v498q0 62 16 93q26 49 89 49.5t89 -49.5q15 -31 15 -93v-769q0 -69 -18 -99q-28 -44 -86 -44q-56 0 -85 41q-16 24 -18 68 q-108 -114 -274 -113q-159 0 -256 94q-104 102 -104 293zM234 1346q0 47 33.5 80.5t81.5 33.5t82.5 -33.5t34.5 -81t-34.5 -82t-82.5 -34.5q-47 0 -81 34.5t-34 82.5zM685 1345.5q0 47.5 34.5 81t82.5 33.5t81 -33.5t33 -80.5q0 -48 -33.5 -82.5t-80.5 -34.5 q-48 0 -82.5 34.5t-34.5 82z" />
<glyph unicode="&#xfd;" horiz-adv-x="919" d="M54 984q8 25 36 44t62 19q43 0 64 -25.5t37 -75.5l205 -636l209 636q16 50 37 75.5t64 25.5q34 0 61.5 -19t35.5 -44q12 -37 -11 -100l-378 -1092q-30 -84 -76 -129q-78 -77 -203 -77q-69 0 -97 25q-30 27 -29 71q0 49 31 73q25 19 70 20q49 0 81.5 24.5t52.5 85.5 l50 153l-290 846q-23 66 -12 100zM383 1302q1 26 32 75l95 153q28 44 45 56q23 16 48.5 16.5t49.5 -15.5q47 -31 44 -79q-1 -26 -31 -75l-96 -153q-28 -44 -45 -56q-23 -16 -48 -16.5t-50 15.5q-47 31 -44 79z" />
<glyph unicode="&#xfe;" horiz-adv-x="1132" d="M166 -285v1609q0 62 15 93q26 49 89.5 49t88.5 -49q15 -31 16 -93v-390q54 65 119 91t153 26q160 0 252 -93q69 -70 92 -177.5t23 -260.5q0 -154 -23 -262t-92 -178q-92 -92 -254 -92q-86 0 -150.5 26.5t-119.5 90.5v-390q0 -62 -16 -93q-26 -49 -89 -49t-89 49 q-15 31 -15 93zM375 519.5q0 -61.5 4 -107t17.5 -93t36 -76.5t62.5 -48t95 -19t94.5 19t62.5 48t36.5 76.5t17.5 93t4 107t-4 107t-17.5 92.5t-36.5 76t-62.5 48t-94.5 19t-95 -19t-62.5 -48t-36 -76t-17.5 -92.5t-4 -107z" />
<glyph unicode="&#xff;" horiz-adv-x="919" d="M54 984q8 25 36 44t62 19q43 0 64 -25.5t37 -75.5l205 -636l209 636q16 50 37 75.5t64 25.5q34 0 61.5 -19t35.5 -44q12 -37 -11 -100l-378 -1092q-30 -84 -76 -129q-78 -77 -203 -77q-69 0 -97 25q-30 27 -29 71q0 49 31 73q25 19 70 20q49 0 81.5 24.5t52.5 85.5 l50 153l-290 846q-23 66 -12 100zM118 1346q0 47 33 80.5t81.5 33.5t82.5 -33.5t34 -81t-34 -82t-83 -34.5q-47 0 -80.5 34.5t-33.5 82.5zM568 1345.5q0 47.5 34.5 81t82.5 33.5t81.5 -33.5t33.5 -80.5q0 -48 -34 -82.5t-81 -34.5q-48 0 -82.5 34.5t-34.5 82z" />
<glyph unicode="&#x152;" horiz-adv-x="2007" d="M138 729.5q0 109.5 1.5 167.5t9.5 130t23 116t43 90.5t70 88.5q148 148 378 148q174 0 296 -101q5 31 32 57q32 32 103 32h678q63 0 90 -14q45 -26 45 -84t-45 -84q-27 -14 -90 -14h-586v-428h481q63 0 90 -15q45 -26 45 -84t-45 -84q-27 -14 -90 -14h-481v-440h586 q63 0 90 -15q45 -26 45 -84t-45 -84q-27 -14 -90 -14h-678q-71 0 -103 32q-27 27 -32 57q-123 -101 -296 -101q-229 0 -378 148q-42 42 -70 88.5t-43 90.5t-23 116t-9.5 130.5t-1.5 168zM359 729q0 -220 16.5 -308t69.5 -145q86 -92 218 -92q130 0 217 92q53 57 69.5 145.5 t16.5 307.5t-16.5 307.5t-69.5 146.5q-86 91 -217 91q-132 0 -218 -91q-53 -56 -69.5 -145t-16.5 -309z" />
<glyph unicode="&#x153;" horiz-adv-x="1762" d="M118 519.5q0 143.5 25.5 239t97.5 169.5q120 124 310 124q112 0 197.5 -44t137.5 -123q112 167 329 167q200 -1 317.5 -132.5t122.5 -340.5v-9q0 -56 -29 -85q-27 -27 -92 -26h-552q0 -135 69 -214t197 -79q118 0 200 65q47 38 85 38q32 0 59 -27t27 -62q0 -59 -105 -126 q-101 -67 -272 -66q-244 0 -359 164q-51 -77 -137 -120.5t-195 -43.5q-191 0 -310 123q-72 74 -97.5 169.5t-25.5 239zM328 519q0 -101 14 -170.5t57 -112.5q58 -59 151.5 -59.5t151.5 59.5q43 43 57.5 112.5t14.5 170.5q0 100 -14.5 170.5t-57.5 113.5q-58 59 -151 59 t-152 -59q-43 -43 -57 -113.5t-14 -170.5zM982 604h467q-6 91 -29 141q-27 60 -80 95.5t-125 35.5q-74 0 -127 -35t-79 -96q-24 -52 -27 -141z" />
<glyph unicode="&#x178;" horiz-adv-x="1071" d="M45 1372q2 54 57 82q25 12 52.5 12t50.5 -15q25 -17 54 -77l277 -554l276 554q30 59 54 77q23 15 50.5 15t52.5 -12q55 -28 57 -82q1 -33 -28 -91l-352 -700v-439q0 -43 -2.5 -61.5t-13.5 -38.5q-28 -50 -94.5 -50t-94.5 50q-11 20 -13.5 38.5t-2.5 61.5v439l-352 700 q-29 58 -28 91zM195 1718q0 47 33.5 81t80.5 34q48 0 82.5 -34t34.5 -81t-35 -81.5t-82 -34.5t-80.5 34t-33.5 82zM643 1718q0 47 34.5 81t82.5 34q47 0 80.5 -34t33.5 -81q0 -48 -33.5 -82t-80.5 -34t-82 34.5t-35 81.5z" />
<glyph unicode="&#x2c6;" horiz-adv-x="1101" d="M247 1304q6 25 44 62l170 170q49 49 90 49t90 -49l170 -170q38 -38 44 -62q13 -43 -22 -79q-37 -35 -78 -23q-27 7 -64 44l-140 142l-140 -142q-37 -37 -64 -44q-41 -12 -78 23q-35 36 -22 79z" />
<glyph unicode="&#x2dc;" horiz-adv-x="1101" d="M199 1345q0 39 47 78q77 63 171 64q44 0 76 -10.5t77 -35.5q68 -38 110 -38q47 0 90 35q33 27 60 26q35 0 56 -23q17 -20 17 -53q0 -39 -47 -79q-77 -63 -171 -64q-44 0 -76 10.5t-78 35.5q-68 38 -109 38q-47 0 -90 -35q-33 -27 -61 -26q-35 0 -55 23q-17 21 -17 54z " />
<glyph unicode="&#x2000;" horiz-adv-x="1022" />
<glyph unicode="&#x2001;" horiz-adv-x="2046" />
<glyph unicode="&#x2002;" horiz-adv-x="1022" />
<glyph unicode="&#x2003;" horiz-adv-x="2046" />
<glyph unicode="&#x2004;" horiz-adv-x="681" />
<glyph unicode="&#x2005;" horiz-adv-x="510" />
<glyph unicode="&#x2006;" horiz-adv-x="340" />
<glyph unicode="&#x2007;" horiz-adv-x="340" />
<glyph unicode="&#x2008;" horiz-adv-x="254" />
<glyph unicode="&#x2009;" horiz-adv-x="408" />
<glyph unicode="&#x200a;" horiz-adv-x="113" />
<glyph unicode="&#x2010;" horiz-adv-x="874" d="M130 568.5q0 54.5 43 79.5q24 14 85 15h358q61 0 85 -15q43 -26 43 -80t-43 -80q-26 -14 -85 -14h-358q-59 0 -85 14q-43 26 -43 80.5z" />
<glyph unicode="&#x2011;" horiz-adv-x="874" d="M130 568.5q0 54.5 43 79.5q24 14 85 15h358q61 0 85 -15q43 -26 43 -80t-43 -80q-26 -14 -85 -14h-358q-59 0 -85 14q-43 26 -43 80.5z" />
<glyph unicode="&#x2012;" horiz-adv-x="874" d="M130 568.5q0 54.5 43 79.5q24 14 85 15h358q61 0 85 -15q43 -26 43 -80t-43 -80q-26 -14 -85 -14h-358q-59 0 -85 14q-43 26 -43 80.5z" />
<glyph unicode="&#x2013;" d="M96 568.5q0 54.5 43 79.5q24 14 85 15h643q61 0 85 -15q43 -26 43 -80t-43 -80q-26 -14 -85 -14h-643q-59 0 -85 14q-43 26 -43 80.5z" />
<glyph unicode="&#x2014;" horiz-adv-x="1988" d="M96 568.5q0 54.5 43 79.5q24 14 85 15h1540q61 0 85 -15q43 -26 43 -80t-43 -80q-26 -14 -85 -14h-1540q-59 0 -85 14q-43 26 -43 80.5z" />
<glyph unicode="&#x2018;" horiz-adv-x="541" d="M121 1054q-6 32 14 93l73 216q20 62 42 83q27 25 65 24q34 0 67 -21t39 -58q6 -32 -14 -94l-73 -216q-20 -62 -42 -83q-26 -25 -66 -24q-34 0 -66.5 21t-38.5 59z" />
<glyph unicode="&#x2019;" horiz-adv-x="541" d="M121 1054q-6 32 14 93l73 216q20 62 42 83q27 25 65 24q34 0 67 -21t39 -58q6 -32 -14 -94l-73 -216q-20 -62 -42 -83q-26 -25 -66 -24q-34 0 -66.5 21t-38.5 59z" />
<glyph unicode="&#x201a;" horiz-adv-x="541" d="M121 -180q-6 32 14 93l73 216q20 62 42 83q27 25 65 25q34 0 67 -21t39 -59q6 -32 -14 -94l-73 -216q-20 -62 -42 -83q-26 -25 -66 -24q-34 0 -66.5 21t-38.5 59z" />
<glyph unicode="&#x201c;" horiz-adv-x="944" d="M121 1054q-6 32 14 93l73 216q20 62 42 83q27 25 65 24q34 0 67 -21t39 -58q6 -32 -14 -94l-73 -216q-20 -62 -42 -83q-26 -25 -66 -24q-34 0 -66.5 21t-38.5 59zM523 1054q-6 32 15 93l72 216q20 62 42 83q26 25 66 24q34 0 66.5 -21t38.5 -58q6 -32 -14 -94l-73 -216 q-20 -62 -42 -83q-27 -25 -65 -24q-34 0 -67 21t-39 59z" />
<glyph unicode="&#x201d;" horiz-adv-x="944" d="M121 1054q-6 32 14 93l73 216q20 62 42 83q27 25 65 24q34 0 67 -21t39 -58q6 -32 -14 -94l-73 -216q-20 -62 -42 -83q-26 -25 -66 -24q-34 0 -66.5 21t-38.5 59zM523 1054q-6 32 15 93l72 216q20 62 42 83q26 25 66 24q34 0 66.5 -21t38.5 -58q6 -32 -14 -94l-73 -216 q-20 -62 -42 -83q-27 -25 -65 -24q-34 0 -67 21t-39 59z" />
<glyph unicode="&#x201e;" horiz-adv-x="944" d="M121 -155q-6 32 14 94l73 216q20 62 42 83q27 25 65 24q34 0 67 -21t39 -59q6 -32 -14 -93l-73 -216q-20 -62 -42 -83q-26 -25 -66 -24q-34 0 -66.5 20.5t-38.5 58.5zM523 -155q-6 32 15 94l72 216q20 62 42 83q26 25 66 24q34 0 66.5 -21t38.5 -59q6 -32 -14 -93 l-73 -216q-20 -62 -42 -83q-27 -25 -65 -24q-34 0 -67 20.5t-39 58.5z" />
<glyph unicode="&#x2022;" d="M212 568.5q0 138.5 98 236t236 97.5t236 -97.5t98 -236t-98 -236.5t-236 -98t-236 98t-98 236.5z" />
<glyph unicode="&#x2026;" horiz-adv-x="1634" d="M135 141.5q0 62.5 43.5 106t106 43.5t106 -43.5t43.5 -106t-43.5 -106t-106 -43.5t-106 43.5t-43.5 106zM668 141.5q0 62.5 43.5 106t106 43.5t106 -43.5t43.5 -106t-43.5 -106t-106 -43.5t-106 43.5t-43.5 106zM1200 141.5q0 62.5 43.5 106t106 43.5t106 -43.5 t43.5 -106t-43.5 -106t-106 -43.5t-106 43.5t-43.5 106z" />
<glyph unicode="&#x202f;" horiz-adv-x="408" />
<glyph unicode="&#x2039;" horiz-adv-x="730" d="M75 538l332 331q44 44 72 53q50 13 91 -28q40 -40 27 -89q-8 -30 -52 -74l-194 -193l194 -194q44 -44 52 -74q13 -49 -27 -89q-41 -41 -91 -27q-29 8 -72 52z" />
<glyph unicode="&#x203a;" horiz-adv-x="730" d="M133 270q8 30 52 74l194 194l-194 193q-44 44 -52 74q-13 49 27 89q41 41 91 28q16 -4 31 -15t42 -38l331 -331l-331 -332q-27 -27 -42 -37.5t-31 -14.5q-50 -13 -91 27q-40 40 -27 89z" />
<glyph unicode="&#x205f;" horiz-adv-x="510" />
<glyph unicode="&#x20ac;" horiz-adv-x="1412" d="M118 578.5q0 47.5 37 67.5q23 12 72 12h40v150h-40q-50 0 -72 12q-37 20 -37 67.5t37 67.5q23 12 72 13h45q8 121 39 201.5t103 152.5q148 148 376 148q132 0 221.5 -37t159.5 -113q56 -60 84 -125t28 -110q0 -53 -30 -83q-33 -31 -76 -30q-39 0 -66 21q-28 22 -54 83 q-42 97 -107 147.5t-165 50.5q-125 0 -210 -91q-37 -40 -55 -88t-25 -127h280q50 0 73 -13q37 -20 37 -67t-37 -68q-23 -12 -73 -12h-287v-150h287q50 0 73 -12q37 -20 37 -67.5t-37 -67.5q-23 -12 -73 -12h-280q7 -83 25 -133.5t55 -90.5q85 -91 210 -91q99 0 164.5 50.5 t107.5 147.5q27 61 54 83t66 21q44 0 76 -30q30 -30 30 -83q0 -45 -27.5 -109.5t-84.5 -125.5q-71 -76 -160 -113t-221 -37q-227 0 -376 148q-73 73 -103.5 155t-39.5 208h-44q-50 0 -72 12q-37 20 -37 67.5z" />
<glyph unicode="&#x2122;" horiz-adv-x="1807" d="M75 1387.5q0 39.5 31 59.5q17 11 64 11h451q46 0 63 -11q32 -19 32 -59t-32 -60q-17 -11 -63 -11h-146v-632q0 -50 -12 -73q-20 -37 -67.5 -37t-67.5 37q-12 23 -13 73v632h-145q-46 0 -64 11q-31 20 -31 59.5zM851 685v654q0 69 26 96q28 28 69 27q31 0 54 -15 q26 -18 51 -66l217 -420l217 420q25 47 50 66q24 15 54 15q42 0 70 -27q26 -27 25 -96v-654q0 -50 -12 -73q-20 -37 -67 -37t-68 37q-12 23 -12 73v469l-159 -313q-31 -61 -98.5 -61.5t-98.5 61.5l-158 313v-469q0 -50 -13 -73q-20 -37 -67 -37t-68 37q-12 23 -12 73z" />
<glyph unicode="&#xe000;" horiz-adv-x="1045" d="M0 1045h1045v-1045h-1045v1045z" />
<glyph unicode="&#xfb01;" horiz-adv-x="1205" d="M54 958.5q0 47.5 37 67.5q23 12 73 12h48v143q0 80 28.5 142.5t93.5 103.5t160 41h20q58 0 88 -16q42 -23 42 -73q0 -51 -42 -73q-23 -12 -76 -15q-105 -3 -105 -120v-133h114q50 0 72 -12q37 -20 37 -67.5t-37 -67.5q-23 -12 -72 -12h-114v-745q0 -62 -15 -93 q-26 -49 -89.5 -49t-89.5 49q-15 31 -15 93v745h-48q-50 0 -73 12q-37 20 -37 67.5zM809 1377.5q0 52.5 37 89t89 36.5t89 -36.5t37 -89t-37 -89.5t-89 -37t-89 37t-37 89.5zM830 134v770q0 62 16 93q26 49 89 49.5t89 -49.5q15 -31 15 -93v-770q0 -62 -15 -93 q-26 -49 -89.5 -49t-88.5 49q-16 31 -16 93z" />
<glyph unicode="&#xfb02;" horiz-adv-x="1298" d="M54 958.5q0 47.5 37 67.5q23 12 73 12h48v143q0 80 28.5 142.5t93.5 103.5t160 41h20q58 0 88 -16q42 -23 42 -73q0 -51 -42 -73q-23 -12 -76 -15q-105 -3 -105 -120v-133h114q50 0 72 -12q37 -20 37 -67.5t-37 -67.5q-23 -12 -72 -12h-114v-745q0 -62 -15 -93 q-26 -49 -89.5 -49t-89.5 49q-15 31 -15 93v745h-48q-50 0 -73 12q-37 20 -37 67.5zM829 288v1038q0 62 16 93q26 49 89 49t89 -49q15 -31 15 -93v-1029q0 -117 106 -120q53 -2 76 -14q42 -23 42 -74q0 -50 -42 -73q-30 -16 -88 -16h-21q-94 0 -159 41t-94 104t-29 143z" />
<glyph unicode="&#xfb03;" horiz-adv-x="1910" d="M1514 1377.5q0 52.5 37 89t89.5 36.5t89 -36.5t36.5 -89t-36.5 -89.5t-89 -37t-89.5 37t-37 89.5zM1536 134v770q0 62 15 93q26 49 89.5 49.5t88.5 -49.5q15 -31 16 -93v-770q0 -62 -16 -93q-26 -49 -89 -49t-89 49q-15 31 -15 93zM739 958.5q0 47.5 37 67.5q23 12 73 12 h48v143q0 80 28.5 142.5t93.5 103.5t160 41h20q58 0 88 -16q42 -23 42 -73q0 -51 -42 -73q-23 -12 -76 -15q-105 -3 -105 -120v-133h114q50 0 72 -12q37 -20 37 -67.5t-37 -67.5q-23 -12 -72 -12h-114v-745q0 -62 -15 -93q-26 -49 -89.5 -49t-89.5 49q-15 31 -15 93v745h-48 q-50 0 -73 12q-37 20 -37 67.5zM54 958.5q0 47.5 37 67.5q23 12 73 12h48v143q0 80 28.5 142.5t93.5 103.5t160 41h20q58 0 88 -16q42 -23 42 -73q0 -51 -42 -73q-23 -12 -76 -15q-105 -3 -105 -120v-133h114q50 0 72 -12q37 -20 37 -67.5t-37 -67.5q-23 -12 -72 -12h-114 v-745q0 -62 -15 -93q-26 -49 -89.5 -49t-89.5 49q-15 31 -15 93v745h-48q-50 0 -73 12q-37 20 -37 67.5z" />
<glyph unicode="&#xfb04;" horiz-adv-x="1997" d="M1531 288v1038q0 62 15 93q26 49 89.5 49t88.5 -49q15 -31 16 -93v-1029q0 -117 105 -120q53 -2 76 -14q42 -23 42 -74q0 -50 -42 -73q-30 -16 -88 -16h-21q-94 0 -159 41t-93.5 104t-28.5 143zM739 958.5q0 47.5 37 67.5q23 12 73 12h48v143q0 80 28.5 142.5t93.5 103.5 t160 41h20q58 0 88 -16q42 -23 42 -73q0 -51 -42 -73q-23 -12 -76 -15q-105 -3 -105 -120v-133h114q50 0 72 -12q37 -20 37 -67.5t-37 -67.5q-23 -12 -72 -12h-114v-745q0 -62 -15 -93q-26 -49 -89.5 -49t-89.5 49q-15 31 -15 93v745h-48q-50 0 -73 12q-37 20 -37 67.5z M54 958.5q0 47.5 37 67.5q23 12 73 12h48v143q0 80 28.5 142.5t93.5 103.5t160 41h20q58 0 88 -16q42 -23 42 -73q0 -51 -42 -73q-23 -12 -76 -15q-105 -3 -105 -120v-133h114q50 0 72 -12q37 -20 37 -67.5t-37 -67.5q-23 -12 -72 -12h-114v-745q0 -62 -15 -93 q-26 -49 -89.5 -49t-89.5 49q-15 31 -15 93v745h-48q-50 0 -73 12q-37 20 -37 67.5z" />
</font>
</defs>
</svg>
